<?xml version="1.0" encoding="utf-8"?>
<!-- Generator: Adobe Illustrator 17.0.0, SVG Export Plug-In . SVG Version: 6.00 Build 0)  -->
<!DOCTYPE svg PUBLIC "-//W3C//DTD SVG 1.1//EN" "http://www.w3.org/Graphics/SVG/1.1/DTD/svg11.dtd">
<svg version="1.1" id="Layer_1" xmlns="http://www.w3.org/2000/svg" xmlns:xlink="http://www.w3.org/1999/xlink" x="0px" y="0px"
	 width="250px" height="153.006px" viewBox="0 0 250 153.006" enable-background="new 0 0 250 153.006" xml:space="preserve">
<g>
	<path fill="#FF9933" d="M134.95,0.026c12.52-0.05,25.03-0.01,37.55-0.02c0,8.48,0,16.95-0.01,25.42
		c0.03,8.92-0.01,17.85,0.03,26.77c-12.53,0.02-25.06,0-37.58,0.01c-0.01-3.62-0.01-7.23-0.01-10.84c0.02-7.9,0-15.8,0.01-23.7
		C134.95,11.786,134.91,5.906,134.95,0.026z"/>
	<path fill="#FF9933" d="M134.94,102.806c12.52,0,25.05,0.01,37.58,0c-0.04,7.6,0,15.2-0.03,22.81c0.01,9.13,0.03,18.26-0.01,27.39
		c-12.51-0.09-25.02-0.01-37.53-0.05c-0.03-7.09,0-14.18-0.02-21.27C134.94,122.056,134.94,112.436,134.94,102.806z"/>
</g>
<g>
	<path fill="#FF3366" d="M53.82,7.636c14.49,0,28.97-0.06,43.45,0.02c0.04,11.24,0.04,22.47,0,33.71
		c-8.52-0.01-17.05,0.02-25.57-0.02c0.01,3.62,0.01,7.23,0.01,10.85c-5.97-0.01-11.94,0.05-17.91-0.05c0-7,0.01-14,0-21
		C53.82,23.306,53.78,15.466,53.82,7.636z"/>
	<path fill="#FF3366" d="M53.81,102.806c5.97,0.01,11.93,0,17.9,0.01c-0.01,4.54,0,9.08,0.01,13.62c-5.97,0.02-11.93,0.01-17.89,0
		C53.78,111.896,53.8,107.346,53.81,102.806z"/>
</g>
<g>
	<path fill="#663399" d="M106.17,17.666c9.59,0.02,19.18,0,28.77,0c-0.01,7.9,0.01,15.8-0.01,23.7c-9.59,0-19.17,0-28.76,0
		C106.22,33.466,106.21,25.566,106.17,17.666z"/>
</g>
<g>
	<path fill="#F03333" d="M172.49,25.426c21.98,0.01,43.96,0.03,65.95-0.01c-0.03,8.92,0,17.85-0.02,26.77
		c-21.97,0-43.94-0.01-65.9,0.01C172.48,43.276,172.52,34.346,172.49,25.426z"/>
	<path fill="#F03333" d="M172.52,102.806c21.96-0.01,43.93-0.01,65.89,0c0.03,7.61,0.02,15.22,0.01,22.83
		c-21.98-0.05-43.95-0.01-65.93-0.02C172.52,118.006,172.48,110.406,172.52,102.806z"/>
</g>
<g>
	<path fill="#669933" d="M11.5,31.136c14.1,0.03,28.2,0.01,42.3,0.01c0.01,7,0,14,0,21c-14.09-0.07-28.19-0.07-42.29,0.01
		C11.49,45.146,11.52,38.146,11.5,31.136z"/>
</g>
<g>
	<path fill="#66CCFF" d="M71.7,41.346c8.52,0.04,17.05,0.01,25.57,0.02c2.97,0,5.93,0,8.9,0c9.59,0,19.17,0,28.76,0
		c0,3.61,0,7.22,0.01,10.84c-21.08-0.01-42.16,0.01-63.23-0.01C71.71,48.576,71.71,44.966,71.7,41.346z"/>
	<path fill="#66CCFF" d="M71.71,102.816c21.08-0.02,42.15,0,63.23-0.01c0,9.63,0,19.25-0.01,28.88
		c-21.09,0.01-42.19-0.03-63.28,0.02c0.12-5.09,0.05-10.18,0.07-15.27C71.71,111.896,71.7,107.356,71.71,102.816z"/>
</g>
<rect y="52.186" fill="#334B8C" width="250" height="50.61"/>
<g>
	<path fill="#FFFFFF" d="M20.543,61.851c-0.05,10.25-0.01,20.51-0.02,30.77c1.39,0,2.79,0,4.19-0.01l0.03-25.03
		c3.6,8.28,6.86,16.7,10.34,25.03c0.7,0,2.1-0.01,2.8-0.01c3.48-8.32,6.84-16.7,10.28-25.04l0.08,25.06
		c1.06-0.01,3.19-0.02,4.26-0.02c-0.05-10.24-0.01-20.49-0.02-30.73c-2.06-0.04-4.12-0.04-6.18-0.07c-3.36,7.73-6.38,15.6-9.8,23.3
		c-3.26-7.76-6.54-15.5-9.73-23.28C24.693,61.841,22.613,61.821,20.543,61.851z"/>
	<path fill="#FFFFFF" d="M137.523,61.851c-0.02,10.26,0.01,20.51-0.01,30.76c1.42,0.01,2.84,0.01,4.26,0l-0.01-25.01
		c3.61,8.26,6.85,16.68,10.34,25c0.7,0,2.1,0,2.8,0.01c3.54-8.32,6.78-16.75,10.34-25.06l0.05,25.08c1.05-0.01,3.16-0.03,4.21-0.04
		c-0.05-10.24-0.01-20.48-0.02-30.72c-2.05-0.04-4.1-0.04-6.14-0.07c-3.4,7.71-6.38,15.6-9.83,23.29
		c-3.25-7.75-6.53-15.49-9.71-23.27C141.713,61.841,139.613,61.811,137.523,61.851z"/>
	<path fill="#FFFFFF" d="M211.203,61.811l-0.03,30.8c1.34,0.01,2.68,0.01,4.02,0.02c0.18-4.56-0.48-9.21,0.38-13.71
		c1.07-4.61,8.97-5.24,9.74-0.13c0.37,4.59,0.03,9.22,0.13,13.82c1.33,0.01,2.66,0.01,4,0c0-3.398,0.092-7.68,0-11.236
		c-0.056-2.184-0.119-4.094-0.5-5.354c-1.764-5.846-8.99-4.42-13.74-4.5c0.03-3.23,0-6.46-0.05-9.69
		C213.833,61.831,212.513,61.821,211.203,61.811z"/>
	<path fill="#FFFFFF" d="M106.523,64.851c-0.02,1.29-0.03,2.59-0.03,3.89c1.33,0,2.66,0,4-0.01c0-1.32-0.01-2.64,0-3.97
		C109.163,64.791,107.843,64.811,106.523,64.851z"/>
	<path fill="#FFFFFF" d="M197.753,66.261c0.01,1.88,0.02,3.77,0.03,5.65c-1.49,0.02-2.98,0.03-4.46,0.04
		c-0.03,1.16-0.05,2.31-0.07,3.47c1.51,0,3.03,0,4.54,0.01c0.18,4.81-0.49,9.72,0.36,14.47c1.32,3.82,6.14,3.6,9.33,2.69
		c0.01-1.17,0.02-2.34,0.04-3.51c-6.705,2.628-5.872-4.33-5.78-13.66c1.87,0,3.75,0,5.63,0.01c-0.01-0.87-0.02-2.61-0.02-3.48
		c-1.87-0.01-3.73-0.03-5.59-0.03c0-1.89,0-3.77,0-5.65C200.423,66.261,199.093,66.251,197.753,66.261z"/>
	<path fill="#FFFFFF" d="M106.523,71.941c-0.04,6.89,0.01,13.79-0.03,20.69c1.34-0.01,2.67-0.02,4.01-0.04
		c-0.05-6.88,0.01-13.76-0.04-20.64C109.143,71.941,107.833,71.931,106.523,71.941z"/>
	<path fill="#FFFFFF" d="M58.283,76.391c-2.97,4.84-1.84,12.03,3.1,15.15c4.82,3.01,11.5,1.71,15.17-2.53
		c-1.02-0.79-2.03-1.58-3.03-2.38c-3.34,5.07-12.18,3.4-12.8-2.85c5.56-0.06,11.12-0.02,16.67-0.03c-0.04-3.05-0.31-6.35-2.34-8.8
		C70.943,69.591,61.553,70.641,58.283,76.391z M60.713,80.581c0.44-7.47,12.58-7.91,12.6,0
		C69.113,80.611,64.913,80.621,60.713,80.581z"/>
	<path fill="#FFFFFF" d="M97.493,61.851c0.01,4.28-0.06,8.56,0.08,12.84c-3.99-4.46-11.78-4.23-15.42,0.54
		c-4.1,5.1-2.76,14.31,3.82,16.63c5.01,1.52,10.36,0.45,15.52,0.74l-0.03-30.73C100.133,61.841,98.813,61.831,97.493,61.851z
		 M88.443,75.551c4.29-1.69,9.34,1.82,9.07,6.47c0.56,4.6-4.1,8.59-8.57,7.24C82.703,87.761,82.393,77.501,88.443,75.551z"/>
	<path fill="#FFFFFF" d="M115.483,74.321c0.71,0.9,1.45,1.77,2.22,2.62c3.49-3.32,11.12-3.28,11.14,2.8
		c-4.23,0.06-9.05-0.25-12.47,2.68c-3.11,2.58-2.36,8.54,1.75,9.65c4.63,1.16,9.397,0.55,14.22,0.55c0-5.539,0.933-13.787-0.43-16.7
		C129.053,69.701,120.133,70.751,115.483,74.321z M118.643,87.881c-1.08-5.56,6.49-5.2,10.14-5.21
		C130.153,88.321,121.983,92.891,118.643,87.881z"/>
	<path fill="#FFFFFF" d="M173.372,74.321c0.71,0.9,1.45,1.77,2.22,2.62c3.49-3.32,11.12-3.28,11.14,2.8
		c-4.23,0.06-9.05-0.25-12.47,2.68c-3.11,2.58-2.36,8.54,1.75,9.65c4.63,1.16,9.397,0.55,14.22,0.55c0-5.539,0.933-13.787-0.43-16.7
		C186.942,69.701,178.022,70.751,173.372,74.321z M176.532,87.881c-1.08-5.56,6.49-5.2,10.14-5.21
		C188.042,88.321,179.872,92.891,176.532,87.881z"/>
</g>
</svg>
