<?xml version="1.0" encoding="utf-8"?>
<!-- Generator: Adobe Illustrator 26.0.1, SVG Export Plug-In . SVG Version: 6.00 Build 0)  -->
<svg version="1.1" id="Ebene_1" xmlns="http://www.w3.org/2000/svg" xmlns:xlink="http://www.w3.org/1999/xlink" x="0px" y="0px"
	 viewBox="0 0 1028.3 173.7" style="enable-background:new 0 0 1028.3 173.7;" xml:space="preserve">
<style type="text/css">
	.st0{fill:#6E37FA;}
	.st1{fill:#F40953;}
	.st2{fill:#FF9408;}
	.st3{fill:#32BBB9;}
	.st4{fill:#002041;}
</style>
<g id="Layer_2">
	<g id="Layer_1-2">
		<path class="st0" d="M194.4,39.5v61.6c0,2,1.7,3.7,3.7,3.7c0.6,0,1.3-0.2,1.8-0.5l53.4-30.8c1.8-1,2.4-3.3,1.4-5
			c-0.3-0.6-0.8-1-1.4-1.4l-53.4-30.8c-1.8-1-4-0.4-5,1.4C194.5,38.3,194.4,38.9,194.4,39.5z"/>
		<path class="st1" d="M74.9,132.4V70.8c0-2-1.6-3.7-3.7-3.7c-0.7,0-1.3,0.2-1.9,0.5L16,98.4c-1.8,1-2.4,3.3-1.3,5.1
			c0.3,0.6,0.8,1,1.3,1.3l53.4,30.8c1.8,1,4,0.4,5-1.4C74.7,133.7,74.9,133,74.9,132.4z"/>
		<path class="st2" d="M104.3,91.4v61.6c0,2,1.7,3.7,3.7,3.7c0.6,0,1.3-0.2,1.8-0.5l53.3-30.8c1.8-1,2.4-3.3,1.3-5
			c-0.3-0.6-0.8-1-1.3-1.3l-53.3-30.8c-1.8-1-4-0.4-5,1.4C104.5,90.2,104.3,90.8,104.3,91.4z"/>
		<path class="st3" d="M165.2,80.6V19c0-2-1.7-3.7-3.7-3.7c-0.6,0-1.3,0.2-1.8,0.5l-53.4,30.8c-1.8,1-2.4,3.3-1.3,5
			c0.3,0.6,0.8,1,1.3,1.3l53.4,30.8c1.8,1,4,0.4,5-1.3C165.1,81.9,165.2,81.3,165.2,80.6z"/>
		<path class="st4" d="M498.6,156.8h-15.9c-2.3,0-4.2-1.9-4.2-4.2l0,0V58.2c0-2.3,1.9-4.2,4.2-4.2l0,0h15.9c2.3,0,4.2,1.9,4.2,4.2v0
			v94.5C502.8,155,500.9,156.8,498.6,156.8z"/>
		<path class="st4" d="M574.9,42c34.8,0,54.5,24.7,54.5,59.2v2.8c0,2.3-1.9,4.2-4.2,4.2c0,0,0,0,0,0h-79.5c-1.2,0-2.1,0.9-2.1,2.1
			c0,0.1,0,0.2,0,0.4c3.2,17.4,17.8,26.2,33.3,26.2c11,0.1,21.7-3.9,29.9-11.1c1.7-1.5,4.4-1.3,5.9,0.5c0,0,0,0,0,0l9.3,11.1
			c1.4,1.7,1.3,4.2-0.3,5.7c-10.9,9.9-25.2,16.4-44.5,16.4c-35.9,0-58.5-23.8-58.5-58.3C518.6,68.3,540.3,42,574.9,42z M574.4,63.6
			c-16.8,0-26.9,8.8-30.4,23.7c-0.3,1.1,0.4,2.2,1.6,2.5c0.1,0,0.3,0.1,0.4,0.1h54.5c1.2,0,2.1-0.9,2.1-2.1c0-0.1,0-0.2,0-0.3
			C600.3,73.2,591,63.6,574.4,63.6z"/>
		<path class="st4" d="M842.7,42c34.8,0,54.5,24.7,54.5,59.2v2.8c0,2.3-1.9,4.2-4.2,4.2h-79.5c-1.1,0-2.1,1-2,2.1c0,0.1,0,0.2,0,0.3
			c3.2,17.4,17.8,26.2,33.3,26.2c11,0.1,21.6-3.9,29.9-11.1c1.7-1.5,4.4-1.3,5.9,0.5c0,0,0,0,0,0l9.3,11.1c1.4,1.7,1.3,4.2-0.4,5.7
			c-10.9,9.9-25.2,16.4-44.5,16.4c-35.9,0-58.5-23.8-58.5-58.3C786.4,68.3,808.2,42,842.7,42z M842.2,63.6
			c-16.8,0-26.9,8.8-30.4,23.7c-0.3,1.1,0.4,2.2,1.6,2.5c0.1,0,0.3,0.1,0.4,0.1h54.5c1.2,0,2.1-0.9,2.1-2.1c0-0.1,0-0.2,0-0.3
			C868.1,73.2,858.8,63.6,842.2,63.6z"/>
		<path class="st4" d="M665.8,156.8h-16.3c-2.3,0-4.2-1.9-4.2-4.2V19.6c0-2.3,1.9-4.2,4.2-4.2h16.3c2.3,0,4.2,1.9,4.2,4.2v133.1
			C670,155,668.1,156.8,665.8,156.8z"/>
		<path class="st4" d="M730.6,42c18.5,0,32.2,6,41.8,17.3c1.5,1.8,1.3,4.4-0.5,5.9l-11.4,9.6c-1.7,1.4-4.1,1.3-5.6-0.2
			c-6.4-6.4-15-10.3-26.1-10.3c-11.2,0-18.2,4-18.2,11.2c0,7.6,7.4,9.4,26.5,13.9c22.4,5.4,38.1,11.9,38.1,34.5
			c0,23.1-16.6,35.6-45.5,35.6c-19.5,0-38.5-7.6-48.2-20c-1.3-1.7-1.1-4.2,0.5-5.7l11.3-10c1.7-1.5,4.4-1.3,5.9,0.4
			c7,7.8,17.5,13.3,32.3,13.3c11.9,0,19-4,19-12.3s-6.9-10-24.8-14.1c-19.3-4.3-39.7-11-39.7-34.8C686,55,703,42,730.6,42z"/>
		<path class="st4" d="M917.2,44.7h15.2c2.3,0,4.2,1.9,4.2,4.2v6.6c0,1.1,0.9,2.1,2.1,2.1c0.6,0,1.2-0.3,1.6-0.7
			c8.4-9.9,19.9-14.8,33.3-14.8c25.8,0,40.6,16.8,40.6,46v64.7c0,2.3-1.9,4.2-4.2,4.2h-16.3c-2.3,0-4.2-1.9-4.2-4.2V92.3
			c0-17.7-8.5-27.3-24.4-27.3c-18.2,0-27.8,13.4-27.8,39v48.8c0,2.3-1.9,4.2-4.2,4.2h-15.9c-2.3,0-4.2-1.9-4.2-4.2V48.9
			C913.1,46.6,914.9,44.7,917.2,44.7z"/>
		<path class="st4" d="M475.5,29.3c-0.3-8.1,6.1-14.9,14.1-15.1c0.3,0,0.7,0,1,0c8.8,0,15.1,6.4,15.1,15.1s-6.4,15.1-15.1,15.1
			S475.5,38.1,475.5,29.3z"/>
		<path class="st4" d="M320,15.4H337c2.4,0,4.7,1,6.3,2.8l84.1,96c0.8,0.9,2.1,1,2.9,0.2c0.5-0.4,0.7-1,0.7-1.6V19.6
			c0-2.3,1.9-4.1,4.1-4.2h17.2c2.3,0,4.2,1.9,4.2,4.2c0,0,0,0,0,0v133.1c0,2.3-1.9,4.2-4.2,4.2l0,0H435c-2.4,0-4.7-1-6.3-2.9
			L345,58.2c-0.8-0.9-2.1-1-2.9-0.2c-0.5,0.4-0.7,1-0.7,1.6v93.1c0,2.3-1.9,4.2-4.2,4.2l0,0H320c-2.3,0-4.2-1.9-4.2-4.2V19.6
			C315.8,17.3,317.7,15.4,320,15.4z"/>
	</g>
</g>
</svg>
