<svg xmlns="http://www.w3.org/2000/svg" viewBox="0 0 1292 398"><g fill="none" stroke-width="2"><path stroke="#4ba0d6" d="m871.99 136.38-.2 8.08" vector-effect="non-scaling-stroke"/><path stroke="#7db7e3" d="M902.69 243.16q-.08-.51-.88-.26-.44.14-.4-.32c.08-.97-.42-1.72-.4-2.55q.42-16.15.14-32.27-.05-3.01-2.35-2.76" vector-effect="non-scaling-stroke"/><path stroke="#328ac6" d="M874.28 157.14q-.18.84-1.35 1.13a.25.25 0 0 0-.12.42l.36.35q.39.39.44.94.86 9.15.1 18.16M871.82 225.53l.23 35" vector-effect="non-scaling-stroke"/><path stroke="#005f9e" d="M818.69 247.77q.09-.38-.28-.77-.19-.21.06-.35l1.34-.75a1.05 1.05 0 0 0 .54-.92l-.13-77.82q0-.5-.27-.91-.95-1.47-1.4-3.53" vector-effect="non-scaling-stroke"/></g><path fill="#0079c1" d="m871.99 136.38-.2 8.08q-19.52-6.59-39.24-.07-.05.02-.09-.02-.11-.13-.16-.2-.05-.08.06-.14 18.61-9.97 39.63-7.65Z"/><path fill="#96c6ea" d="M871.99 136.38c28.52 3.89 48.27 26.92 50.07 55.31q1.84 29.13-19.37 51.47-.08-.51-.88-.26-.44.14-.4-.32c.08-.97-.42-1.72-.4-2.55q.42-16.15.14-32.27-.05-3.01-2.35-2.76c9.42-24.03-4.44-50.45-27.01-60.54l.2-8.08Z"/><rect width="6" height="117.74" x="747" y="140.01" fill="#d9d9d9" rx=".68"/><path fill="#006cb0" d="M874.28 157.14q-.18.84-1.35 1.13a.25.25 0 0 0-.12.42l.36.35q.39.39.44.94.86 9.15.1 18.16-10.27-6.84-21.65-1.04c-11.47 5.86-14.35 19.02-9.49 30.33 5.33 12.39 15.2 19.62 29.25 18.1l.23 35q-30.33 6.16-53.36-12.76.09-.38-.28-.77-.19-.21.06-.35l1.34-.75a1.05 1.05 0 0 0 .54-.92l-.13-77.82q0-.5-.27-.91-.95-1.47-1.4-3.53c16.62-12.98 37.08-16.43 55.73-5.58Z"/><path fill="#0079c1" d="m1162.83 202.25 20.91-22.64a.34.34 0 0 1 .25-.11h21.71a.34.34 0 0 1 .24.58l-24.35 25.09a.34.34 0 0 0-.04.43l25.39 38.87a.34.34 0 0 1-.29.53h-20.82a.34.34 0 0 1-.28-.16l-16.84-25.99a.34.34 0 0 0-.53-.05l-5.84 6.14a.34.34 0 0 0-.09.24v19.48a.34.34 0 0 1-.34.34h-18.07a.34.34 0 0 1-.34-.34v-92.61a.34.34 0 0 1 .34-.34l18.07.06a.34.34 0 0 1 .34.34l-.01 49.91a.34.34 0 0 0 .59.23Z"/><path fill="#231f20" d="M942.1 234.31a.71.7 28.5 0 0-1.29.38l-.19 9.01q-.02.81-.82.8l-5.2-.01a.61.6-89.1 0 1-.6-.63c1.22-30.27.51-60.82.5-91.13q-.01-.73.72-.73h5.79a.76.75 90 0 1 .75.76l-.03 37.78a.3.3 0 0 0 .55.16c11.37-17.08 38.25-16.8 49.66-.02 6.4 9.41 7.69 22.83 4.05 33.57-5.87 17.34-23.63 25.82-40.95 19.91q-8.22-2.8-12.94-9.85Zm35.23-47.82c-14.87-7.9-35.58 2.66-35.59 19.75-.01 6.26-.7 14.09 1.25 19.45 4.61 12.69 19.89 17.45 31.81 12.91 20.12-7.67 21.21-42.2 2.53-52.11Z"/><rect width="7" height="92.5" x="1004.5" y="152" fill="#231f20" rx=".88"/><path fill="#0079c1" d="M1292 160.07v4.02c-4.73 13.62-25.19 6.83-19.56-6.29 3.82-8.89 17.75-7.59 19.56 2.27Z"/><path fill="#ea1b22" d="M360.31 231.09a.69.68 74.6 0 0-.59-.34h-45.18q-.51 0-.79-.43l-9.57-14.96a.4.39 73.6 0 1 .33-.61h44.2q.55 0 .26-.47l-22.94-37.05a.47.46-44.8 0 0-.79 0l-43.42 69.07a.95.95 0 0 1-.81.45h-19.26a.44.43 16.3 0 1-.37-.67q26-40.85 52.08-81.85c6.53-10.28 17.47-10.66 24.14-.2q26.2 41.11 52.3 82a.47.47 0 0 1-.4.72h-19.28a.93.93 0 0 1-.8-.46l-9.11-15.2ZM720.96 166.97a10.15 10.15 0 0 1-10.15 10.15 10.15 10.15 0 0 1-10.15-10.15 10.15 10.15 0 0 1 10.15-10.15 10.15 10.15 0 0 1 10.15 10.15Zm-2.54-.01a7.58 7.58 0 0 0-7.58-7.58 7.58 7.58 0 0 0-7.58 7.58 7.58 7.58 0 0 0 7.58 7.58 7.58 7.58 0 0 0 7.58-7.58ZM114.11 158.7c44.82 11.46 43.99 76.92-1.64 86.78q-5.57 1.2-19.92 1.23c-14.66.03-29.24-.02-43.9-.3-16.71-.31-31.54-12.32-37.73-26.44-10.87-24.75 2.53-54.23 28.96-61.16q5.79-1.51 18.49-1.55 17.93-.04 35.87 0 14.37.03 19.87 1.44Zm10.59 60.13c13.88-19.31.18-45.51-23.46-45.56q-21.28-.04-42.57-.02-9.96.01-14.55 1.48c-26.91 8.58-25.94 46.96.38 54.46q4.95 1.41 16.14 1.35 17.3-.09 34.61-.04c12.7.04 22.23-1.61 29.45-11.67Z"/><path fill="#ea1b22" d="M225.15 217.74q-1.49-.02-.35.94l32.62 27.45a.35.35 0 0 1-.22.62h-23.74a2.22 2.19-24.2 0 1-1.45-.54l-49.96-43.74a.41.41 0 0 1 .27-.72q22.16-.01 44.55.01 5.62 0 8.57-1.33c11.36-5.1 11.15-21.63-.66-26.06q-3.03-1.14-10.2-1.13-25.32.02-50.55.01a.53.52-89.5 0 0-.53.53v72.47q0 .5-.5.5h-16.36q-.61 0-.61-.61l-.04-88.37a.52.51 90 0 1 .51-.52q32.95-.01 66.08 0 12.81 0 17.66 1.56c30 9.64 26.31 53.13-4.43 58.5-3.25.57-7.19.48-10.66.43ZM391.22 230.53c-20.81-24.44-8.59-63.29 22.51-71.69q5.65-1.52 18.31-1.56 27.15-.08 54.24-.01a.38.37-73.5 0 1 .31.58l-9.55 14.95q-.28.43-.79.43-20.94.07-41.84-.01-10.82-.04-15.7 1.38c-27.25 7.94-27.31 46.51-.22 54.57q4.62 1.38 13.65 1.36 27.95-.05 55.79-.05a.3.3 0 0 1 .25.47l-9.96 15.33q-.27.41-.75.41-24.87.14-49.7.2-22.57.05-36.55-16.36ZM582.29 246.53a.44.43-73.6 0 1-.37.21q-37.9.05-75.91-.03c-6.74-.01-10.27-3.3-10.27-9.93q.01-39.52.01-79.02 0-.51.52-.51h16.49a.26.25-90 0 1 .25.26l-.02 72.49a.51.51 0 0 0 .51.51l78.41-.02a.42.42 0 0 1 .35.65l-9.97 15.39ZM607 194h81.74a.34.34 0 0 1 .29.53l-9.24 14.5q-.62.97-1.77.97h-70.76q-.84 0-.55.79 5.33 14.14 18.45 18.24 4.73 1.48 15.33 1.48 27.46 0 54.86-.04a.18.18 0 0 1 .15.27l-10.02 15.56q-.27.42-.77.42-25 .09-49.95.02-19.65-.05-32.69-12.47c-25.53-24.31-14.11-66.94 19.73-75.59q5.54-1.42 16.64-1.42 27.71-.02 55.11 0 .78 0 .35.65l-9.72 14.87q-.29.44-.82.45-23.98.08-47.84-.02-21.43-.08-28.85 20.33-.16.46.33.46Z"/><path fill="#63a8dc" d="M874.28 157.14c18.85 11.86 22.39 35.45 4.77 50.47a.24.23 88 0 1-.34-.32c6.92-9.67 4.2-22-5-29.15q.76-9.01-.1-18.16-.05-.55-.44-.94l-.36-.35a.25.25 0 0 1 .12-.42q1.17-.29 1.35-1.13Z"/><path fill="#ea1b22" d="m709.26 168.47-.02 3.47a1.18 1.06 48.3 0 1-2.23-.25l-.01-9.68a.67.67 0 0 1 .5-.65c5.11-1.42 9.68.26 6.32 6.41a1.17 1.17 0 0 0 .05 1.21l1.56 2.34a.58.58 0 0 1-.09.76c-2.17 1.93-4.1-2.51-4.75-3.9a.7.7 0 0 0-1.33.29Zm-.01-4.81v1.8a.53.53 0 0 0 .53.53h.61a2.12 1.25-.1 0 0 2.12-1.25v-.36a2.12 1.25-.1 0 0-2.12-1.25h-.61a.53.53 0 0 0-.53.53Z"/><path fill="#00518c" d="M818.55 162.72q.45 2.06 1.4 3.53.27.41.27.91l.13 77.82a1.05 1.05 0 0 1-.54.92l-1.34.75q-.25.14-.06.35.37.39.28.77c-26.57-22.96-28.72-63.08-.14-85.05Z"/><path fill="#231f20" d="M1109.28 245.96c-45.78-1.76-39.6-73.34 5.25-67.47 16.22 2.13 23.98 17.01 22.56 32.25q-.06.63-.69.62l-50.64-.13a.75.75 0 0 0-.75.74c-.22 27.64 24.97 32.76 45.8 24.73a.67.67 0 0 1 .87.4l1.3 3.64a1.33 1.33 0 0 1-.8 1.7q-11.06 3.98-22.9 3.52Zm-22.84-39.56 43.48-.3a.29.29 0 0 0 .29-.29v-.22a22.15 22 89.6 0 0-22.16-22h-.06a22.15 22 89.6 0 0-21.84 22.3v.22a.29.29 0 0 0 .29.29Z"/><path fill="#0079c1" d="M1247.5 239.02a.46.46 0 0 0-.79-.31c-13.26 14.24-43.32 8-41.14-15.1 1.92-20.35 26.84-21.08 41.67-16.22a.48.48 0 0 0 .63-.48c-.94-16.59-21.78-12.48-31.71-8.54q-.52.21-.69-.33l-4.34-13.37q-.17-.54.35-.77c18.62-8.09 53.2-9.69 54.13 19.53q.42 13.39.03 41.12-.01.45-.45.45h-16.94q-.75 0-.75-.75v-5.23Zm-22.31-18.58c-10.26 15.38 25.65 18.54 22.6-1.32q-.07-.46-.49-.63c-5.61-2.29-18.08-4.1-22.11 1.95Z"/><path fill="#231f20" d="M1017.94 182.94q-.01-1.65.1-2.74a.77.77 0 0 1 .77-.69l5.82-.01a.6.6 0 0 1 .6.6q.06 18.87.01 37.64c-.02 10.77 3.98 20.89 16.14 22.14 9.94 1.03 21.08-5.08 23.73-15.4q.64-2.47.64-8.52V180.5a.87.87 0 0 1 .85-.87l5.52-.18q.63-.02.63.6v44.74c0 5.93.62 12.71.75 19.09a.64.64 0 0 1-.66.65l-5.3-.13q-.83-.02-.85-.85l-.26-9.06a.5.49-27.2 0 0-.89-.28q-11.21 14.52-29.82 11.1c-14.31-2.63-17.64-17-17.68-29.54l-.1-32.83Z"/><rect width="18.76" height="65.5" x="1272.5" y="179.5" fill="#0079c1" rx=".59"/><path fill="#63a8dc" d="M902.69 243.16q-13.04 12.82-30.64 17.37l-.23-35q18.96-2.64 26.98-20.53 2.3-.25 2.35 2.76.28 16.12-.14 32.27c-.02.83.48 1.58.4 2.55q-.04.46.4.32.8-.25.88.26Z"/></svg>