<?xml version="1.0" encoding="UTF-8"?>
<svg version="1.1" xmlns="http://www.w3.org/2000/svg" width="1200" height="627">
<path d="M0 0 C0.85078125 0.64839844 1.7015625 1.29679687 2.578125 1.96484375 C30.8766951 23.88321476 48.02610491 57.67096041 53.17529297 92.78662109 C57.20918348 125.23580126 52.2977186 156.73611631 38 186 C37.14921875 187.74603516 37.14921875 187.74603516 36.28125 189.52734375 C29.40668276 202.90356539 20.40510991 214.2350592 10 225 C8.78183594 226.29550781 8.78183594 226.29550781 7.5390625 227.6171875 C-18.43428807 254.59921188 -55.82516603 270.38253318 -93.14477539 271.42138672 C-131.09852893 271.6561302 -167.60718426 257.48862276 -194.90625 231.125 C-221.10496191 205.05695498 -236.06511557 170.65885299 -236.4375 133.6875 C-236.39313391 122.06197221 -235.07097369 111.20388102 -232 100 C-231.81808105 99.32582031 -231.63616211 98.65164063 -231.44873047 97.95703125 C-222.21850003 64.89647395 -199.37731901 39.75229804 -170 23 C-159.71685387 17.21884113 -149.39203606 13.04613138 -138 10 C-137.1440625 9.76539063 -136.288125 9.53078125 -135.40625 9.2890625 C-108.61599714 2.95848905 -79.1324189 8.69527146 -55.82763672 22.83105469 C-38.12201442 34.15546286 -25.11588067 51.82571552 -20.46020508 72.38354492 C-17.185566 91.00121442 -20.72228349 109.20556802 -31 125 C-33.19788633 128.12576759 -35.53461705 131.08168657 -38 134 C-39.06541016 135.26650391 -39.06541016 135.26650391 -40.15234375 136.55859375 C-44.19621627 141.24597582 -44.19621627 141.24597582 -46 143 C-46.66 143 -47.32 143 -48 143 C-46.11789202 138.2465831 -44.12056919 133.54484086 -42.12109375 128.83984375 C-37.91794671 118.19284758 -38.56906972 104.09014794 -42.734375 93.57421875 C-44.7853532 89.40263038 -47.16589881 85.67935944 -50 82 C-50.69416016 81.06027344 -50.69416016 81.06027344 -51.40234375 80.1015625 C-57.88392697 71.87839044 -66.81783023 67.10258262 -77 65 C-93.06848445 63.40938235 -107.33573108 67.56408578 -120.09375 77.65625 C-129.97588593 86.84490271 -134.97179928 99.60883299 -135.47314453 112.92700195 C-135.69595738 133.23740613 -128.06844043 151.36693989 -114 166 C-102.59049779 176.95159577 -88.14774801 182.56708889 -72.3828125 183.12890625 C-50.62213546 182.35675319 -30.50369447 174.26252024 -15.4375 158.375 C1.74858011 138.49423834 7.76895304 113.79723189 6 88 C3.24150177 59.36781006 -13.33222006 29.68591305 -35 11 C-59.67488503 -8.91029725 -90.77404025 -15.35096139 -121.86669922 -12.76123047 C-133.77748599 -11.47956985 -145.41300244 -8.99166254 -157 -6 C-153.49151038 -10.19899023 -149.44306978 -11.85841181 -144.5 -13.875 C-143.66412354 -14.21942139 -142.82824707 -14.56384277 -141.96704102 -14.91870117 C-95.34114731 -33.67944152 -40.60487452 -32.21908522 0 0 Z " fill="#0D7ABF" transform="translate(262,304)"/>
<path d="M0 0 C14.52 0 29.04 0 44 0 C44.33 38.94 44.66 77.88 45 118 C47.31 115.36 49.62 112.72 52 110 C53.20631121 108.68104168 54.41984372 107.36854018 55.6484375 106.0703125 C56.25647217 105.42553955 56.86450684 104.7807666 57.4909668 104.11645508 C58.11269775 103.4592749 58.73442871 102.80209473 59.375 102.125 C64.22987802 96.97073882 69.03670494 91.78460356 73.75 86.5 C77.01492907 82.87230104 80.33686562 79.29770373 83.66479492 75.7277832 C84.14021729 75.21562256 84.61563965 74.70346191 85.10546875 74.17578125 C85.7915773 73.45486046 85.7915773 73.45486046 86.49154663 72.71937561 C88.031413 71.05018899 88.031413 71.05018899 89.16697693 69.18264771 C91.27790312 66.08474389 92.85605054 64.27167946 96.5823822 63.38670349 C99.80334536 63.18959777 102.95429072 63.21313057 106.1796875 63.31640625 C107.3475882 63.32631088 108.51548889 63.33621552 109.71878052 63.34642029 C113.43881263 63.38551842 117.155864 63.47334263 120.875 63.5625 C123.40099897 63.59761928 125.92704432 63.62955719 128.453125 63.65820312 C134.63642887 63.73526583 140.81800149 63.85231292 147 64 C145.65206382 66.78453294 144.34910055 68.92903587 142.2265625 71.1875 C141.65873047 71.79400391 141.09089844 72.40050781 140.50585938 73.02539062 C139.88517578 73.67701172 139.26449219 74.32863281 138.625 75 C137.97595703 75.68771484 137.32691406 76.37542969 136.65820312 77.08398438 C130.22679217 83.85230741 123.61684219 90.44268416 116.96728516 96.99609375 C112.68375993 101.2341135 108.58603247 105.53950876 104.66162109 110.11132812 C101.93331901 113.21243669 99.00384381 116.10255685 96.0625 119 C95.47404297 119.58394531 94.88558594 120.16789062 94.27929688 120.76953125 C92.85520207 122.18204805 91.4279475 123.5913781 90 125 C93.26563905 131.23789549 96.99486203 137.0960201 100.92553711 142.93041992 C104.14723793 147.71322993 107.31133335 152.52921888 110.4375 157.375 C111.12537598 158.44077271 111.12537598 158.44077271 111.82714844 159.52807617 C112.75762453 160.97050945 113.68780026 162.41313652 114.61767578 163.85595703 C116.86642425 167.34386043 119.1205858 170.82825695 121.375 174.3125 C121.82206299 175.0036792 122.26912598 175.6948584 122.72973633 176.40698242 C125.79494753 181.14392976 128.86829183 185.87553795 131.94506836 190.60498047 C134.12310197 193.95322049 136.29947189 197.30253874 138.47509766 200.65234375 C139.46651438 202.17867472 140.45835324 203.70473161 141.45068359 205.23046875 C142.74030165 207.2146376 144.02691773 209.20071475 145.3125 211.1875 C146.03050781 212.29480469 146.74851562 213.40210938 147.48828125 214.54296875 C149 217 149 217 149 218 C141.81694806 218.48504878 134.63814153 218.81565304 127.44238281 219.04370117 C125.00067532 219.1387928 122.56003735 219.26813879 120.12207031 219.43334961 C100.46988436 220.73090808 100.46988436 220.73090808 94.77905273 216.25204468 C90.91084759 211.77866434 88.40849603 206.70920467 86.04748535 201.32150269 C84.70163968 198.33875515 83.00594724 195.68048004 81.1875 192.96484375 C80.38940918 191.70438232 80.38940918 191.70438232 79.57519531 190.41845703 C74.51842624 182.45396737 69.4301007 174.50993017 64.25 166.625 C63.74855469 165.85148193 63.24710938 165.07796387 62.73046875 164.28100586 C61.54022357 162.48424125 60.27731456 160.73594763 59 159 C55.51827766 159 53.34157108 161.71482467 50.953125 164.01171875 C43.58768507 171.56548647 43.52492768 179.36633695 43.58984375 189.49414062 C43.6419203 191.60029319 43.69532166 193.70641338 43.75 195.8125 C43.76199616 197.96937751 43.76855076 200.12629248 43.76953125 202.28320312 C43.77356076 207.52760865 43.88903159 212.75247466 44 218 C29.48 218 14.96 218 0 218 C0 146.06 0 74.12 0 0 Z " fill="#0D7ABF" transform="translate(831,316)"/>
<path d="M0 0 C1.05113291 -0.00407553 2.10226582 -0.00815105 3.18525124 -0.01235008 C8.7474408 -0.03311264 14.3096064 -0.04745741 19.87182617 -0.05688477 C25.57265153 -0.06793976 31.27308565 -0.10235811 36.973773 -0.14205647 C41.39826617 -0.16836898 45.82266794 -0.17658942 50.24723244 -0.18016624 C52.34688782 -0.18499291 54.44654023 -0.19649264 56.54611778 -0.21520424 C71.89953838 -0.34355654 86.50901908 0.51664682 100.36328125 7.92578125 C101.02005859 8.26681885 101.67683594 8.60785645 102.35351562 8.95922852 C118.97487422 17.90965952 131.43776532 32.73794482 137.42578125 50.61328125 C143.14371265 71.5536167 142.02830943 93.1181402 131.6875 112.5234375 C129.14788738 116.73592145 126.21961051 120.4866788 123.05078125 124.23828125 C122.60347656 124.82996094 122.15617188 125.42164063 121.6953125 126.03125 C110.83649002 139.94710168 93.16011783 147.66694119 76.05078125 150.23828125 C67.99856292 150.93129027 59.90249832 150.77890302 51.828125 150.734375 C49.5103806 150.73453038 47.19263595 150.73602579 44.87489319 150.73878479 C40.04302327 150.74016098 35.21145299 150.72774104 30.37963867 150.70483398 C24.22487552 150.67643631 18.07060865 150.67920186 11.91580868 150.6919241 C7.13790235 150.69891963 2.36010824 150.6910482 -2.41778374 150.67866707 C-4.68569952 150.67419128 -6.95362751 150.67378137 -9.22154427 150.67773247 C-40.1334535 150.70639154 -40.1334535 150.70639154 -53.19921875 143.55078125 C-53.85978271 143.204104 -54.52034668 142.85742676 -55.20092773 142.50024414 C-61.18292136 139.27928243 -66.7045609 135.56313401 -71.94921875 131.23828125 C-72.89474609 130.46291016 -72.89474609 130.46291016 -73.859375 129.671875 C-87.35248695 117.40820378 -95.32882963 98.13191486 -96.26953125 80.23828125 C-96.94450291 59.10856505 -91.60740344 40.0463182 -77.07421875 24.17578125 C-55.37001392 1.60505874 -29.51129317 0.09714409 0 0 Z M-54.7578125 44.359375 C-63.03545748 55.23392821 -67.27985919 67.54931769 -65.94921875 81.23828125 C-63.1485408 94.71654391 -56.77275372 105.70008724 -45.671875 113.92578125 C-32.27559085 122.61056838 -18.94554956 122.82968561 -3.5390625 122.734375 C-1.4788864 122.73453033 0.58128998 122.73602484 2.64146423 122.73878479 C6.93892488 122.740162 11.23604904 122.72772384 15.53344727 122.70483398 C21.01264638 122.6764338 26.49128812 122.67920089 31.9705286 122.6919241 C36.2181821 122.69891334 40.46570914 122.69105535 44.71334648 122.67866707 C46.73254345 122.67418533 48.75175414 122.67378674 50.77095222 122.67773247 C69.05071091 122.69674088 82.75884486 120.93469808 96.80078125 108.17578125 C106.06720582 98.46017632 110.56781861 85.5887314 110.30078125 72.3203125 C109.26306823 59.52725673 103.49381899 47.87970289 94.05078125 39.23828125 C78.77371687 27.61688073 63.24679458 28.07779658 44.90234375 28.0703125 C43.03966243 28.06709278 41.17698135 28.06372819 39.31430054 28.06022644 C35.42274388 28.05426319 31.53120934 28.0523837 27.63964844 28.05297852 C22.6817424 28.0530801 17.72397967 28.0394188 12.76610756 28.02220631 C8.92252973 28.01102638 5.07898594 28.00906112 1.23539352 28.00958824 C-0.59122843 28.0084175 -2.41785153 28.00404733 -4.24445724 27.99625587 C-23.61926558 27.92132886 -40.7868273 29.2836002 -54.7578125 44.359375 Z " fill="#EC2028" transform="translate(117.94921875,53.76171875)"/>
<path d="M0 0 C2.09123944 -0.00961489 4.18145501 -0.04065854 6.27246094 -0.07226562 C24.64712342 -0.21717963 43.03764605 3.61938843 56.96777344 16.38867188 C69.78674041 29.59220786 73.80821971 47.3289277 73.73754883 65.21459961 C73.73769485 66.19097885 73.73784088 67.16735809 73.73799133 68.17332458 C73.73729791 71.38184882 73.7295323 74.5903141 73.72167969 77.79882812 C73.71981348 80.03084786 73.71839053 82.26286801 73.71739197 84.49488831 C73.71358276 90.35563294 73.70376613 96.2163526 73.69268799 102.0770874 C73.68243952 108.06310692 73.67788699 114.04913048 73.67285156 120.03515625 C73.66214239 131.770195 73.64455855 143.5052087 73.62402344 155.24023438 C59.43402344 155.24023438 45.24402344 155.24023438 30.62402344 155.24023438 C30.29402344 150.62023437 29.96402344 146.00023437 29.62402344 141.24023438 C28.38652344 142.43648437 27.14902344 143.63273438 25.87402344 144.86523438 C11.43140264 157.6353138 -5.32926633 159.15844166 -23.79638672 158.40429688 C-35.50280636 157.65976593 -48.0947762 152.71402079 -56.37597656 144.24023438 C-66.61743961 131.60231419 -69.27890504 119.31558609 -68.37597656 103.24023438 C-66.28051785 89.97413181 -60.72133294 79.90200581 -50.12988281 71.44726562 C-31.5297484 59.24582838 -4.79782158 58.40637362 16.37402344 62.61523438 C20.83034415 63.68087629 25.22267235 64.9684872 29.62402344 66.24023438 C29.27670988 57.76578353 27.92578152 51.54199245 21.81152344 45.42773438 C10.03430866 37.34533207 -5.77180519 37.59381178 -19.44238281 40.02929688 C-26.92870193 41.57578455 -34.16521508 43.71014263 -41.37597656 46.24023438 C-42.36597656 46.24023438 -43.35597656 46.24023438 -44.37597656 46.24023438 C-47.12179682 38.95784152 -49.67028635 31.60385219 -52.18847656 24.24023438 C-52.51468994 23.30800049 -52.84090332 22.3757666 -53.17700195 21.4152832 C-53.47598389 20.53251709 -53.77496582 19.64975098 -54.08300781 18.74023438 C-54.35604736 17.94617188 -54.62908691 17.15210938 -54.91040039 16.33398438 C-55.37597656 14.24023438 -55.37597656 14.24023438 -54.37597656 11.24023438 C-52.05445225 10.0932362 -49.86424972 9.1716723 -47.43847656 8.30273438 C-46.73279541 8.04403564 -46.02711426 7.78533691 -45.30004883 7.51879883 C-30.5893721 2.3284067 -15.5573622 0.04303558 0 0 Z M-21.68847656 97.80273438 C-25.19537504 102.86825439 -24.95080173 108.2920435 -24.37597656 114.24023438 C-22.76318321 119.76687657 -19.19503508 122.45243033 -14.37597656 125.29492188 C-6.45272808 129.03989479 3.76686988 128.13177665 11.93652344 125.67773438 C19.15100061 122.93257283 25.43973093 119.08907376 29.12402344 112.11523438 C31.64592552 106.11998534 31.75004745 100.66745904 31.62402344 94.24023438 C15.55221604 86.41330217 -8.37211609 83.04676736 -21.68847656 97.80273438 Z " fill="#0D7ABF" transform="translate(1043.3759765625,378.759765625)"/>
<path d="M0 0 C1.81201694 -0.00067608 3.62403378 -0.00164861 5.43605042 -0.00289917 C9.22064076 -0.00436526 13.00520736 -0.00225914 16.78979492 0.00244141 C21.57351269 0.00810177 26.35717435 0.00479149 31.14089012 -0.00101089 C68.98913075 -0.03973575 68.98913075 -0.03973575 87.12890625 1.1328125 C83.33873424 7.75686696 79.46216851 14.31037924 75.37890625 20.7578125 C75.00258057 21.36125488 74.62625488 21.96469727 74.23852539 22.58642578 C72.37533906 25.49949953 71.05217473 27.18396685 68.12890625 29.1328125 C65.25222215 29.33104338 62.470828 29.41296281 59.59350586 29.40405273 C58.72155579 29.40927948 57.84960571 29.41450623 56.95123291 29.41989136 C55.05568684 29.43013913 53.16011257 29.43591311 51.26453972 29.43777275 C48.25797795 29.44143459 45.25174661 29.4581594 42.24525452 29.47853088 C33.69619924 29.53393959 25.14709388 29.5645326 16.59790039 29.58911133 C11.36829168 29.60505267 6.13891416 29.63534833 0.90942574 29.67387581 C-1.07791105 29.68547649 -3.06528934 29.69145573 -5.05265999 29.69155693 C-21.87229695 29.6927233 -34.75184145 31.27590187 -47.55859375 43.2578125 C-51.39379861 47.25679835 -58.87109375 55.28457749 -58.87109375 61.1328125 C9.43890625 61.6278125 9.43890625 61.6278125 79.12890625 62.1328125 C77.68492864 65.74275653 76.44696028 68.43870367 74.4140625 71.63671875 C73.89263672 72.45978516 73.37121094 73.28285156 72.83398438 74.13085938 C72.29193359 74.97712891 71.74988281 75.82339844 71.19140625 76.6953125 C70.65322266 77.54544922 70.11503906 78.39558594 69.56054688 79.27148438 C68.0985738 81.56990075 66.63827968 83.86522518 65.12890625 86.1328125 C64.70700107 86.82581074 64.28509588 87.51880898 63.85040569 88.23280716 C62.12890625 90.1328125 62.12890625 90.1328125 59.87006092 90.64062119 C58.98053069 90.64430836 58.09100046 90.64799553 57.17451477 90.65179443 C56.15227814 90.66570724 55.1300415 90.67962006 54.076828 90.69395447 C52.95617447 90.6889241 51.83552094 90.68389374 50.6809082 90.67871094 C48.90997803 90.69421745 48.90997803 90.69421745 47.10327148 90.71003723 C43.86579537 90.73449683 40.62885467 90.74130115 37.39130425 90.74031734 C34.00794916 90.74344335 30.62476678 90.76905492 27.24150085 90.79229736 C20.83485459 90.83288516 14.42831018 90.8532045 8.02155513 90.86627126 C0.72769977 90.88213199 -6.56598203 90.92054358 -13.8597368 90.96086454 C-28.86346497 91.04330138 -43.86717547 91.09736974 -58.87109375 91.1328125 C-57.94341213 92.88005963 -57.00999166 94.62426043 -56.07421875 96.3671875 C-55.55504883 97.33881836 -55.03587891 98.31044922 -54.50097656 99.31152344 C-48.8427749 109.10573829 -39.36105494 116.90682375 -28.5327301 120.35096741 C-23.80229125 121.36102686 -19.19958769 121.55891291 -14.37475586 121.72827148 C-13.36242103 121.76763289 -12.35008619 121.8069943 -11.30707455 121.84754848 C-0.70431112 122.22838975 9.89180998 122.2599897 20.5 122.23046875 C22.52978988 122.22859587 24.55958023 122.2271761 26.58937073 122.22618103 C31.84489261 122.2224242 37.10038536 122.21265535 42.355896 122.20147705 C47.75353603 122.19111296 53.15118093 122.18665181 58.54882812 122.18164062 C69.0755334 122.17102443 79.60221737 122.15403401 90.12890625 122.1328125 C89.49506548 123.41208429 88.85988893 124.6906943 88.22415161 125.96902466 C87.87058153 126.68112154 87.51701145 127.39321842 87.15272713 128.126894 C85.94293989 130.49716663 84.60621134 132.75147251 83.18359375 135 C82.66410156 135.82242188 82.14460938 136.64484375 81.609375 137.4921875 C81.07957031 138.32234375 80.54976562 139.1525 80.00390625 140.0078125 C79.19759766 141.28785156 79.19759766 141.28785156 78.375 142.59375 C74.39456507 148.86715368 74.39456507 148.86715368 72.12890625 151.1328125 C69.06845636 151.33714148 66.09813839 151.41593199 63.03613281 151.4074707 C61.62102165 151.4151371 61.62102165 151.4151371 60.17732239 151.42295837 C57.0413283 151.43691626 53.90555283 151.43589118 50.76953125 151.43359375 C48.58632323 151.43748091 46.40311596 151.44181562 44.21990967 151.44657898 C39.6298173 151.45405711 35.03980178 151.45374104 30.44970703 151.44848633 C24.59938451 151.44272824 18.74938237 151.4595258 12.8991127 151.482831 C8.38116651 151.49765876 3.86329551 151.49842715 -0.65467072 151.49532127 C-2.80898924 151.49583124 -4.96331233 151.50100724 -7.11760712 151.51113319 C-31.72089413 151.61246615 -52.42584632 147.26906428 -70.74609375 129.6953125 C-85.05814653 114.57215618 -93.31171276 94.84487878 -93.0234375 73.9609375 C-91.98060949 54.60177143 -85.59105709 38.70933853 -72.87109375 24.1328125 C-72.35160156 23.51792969 -71.83210937 22.90304688 -71.296875 22.26953125 C-52.37933919 1.54124893 -26.10188257 -0.03479629 0 0 Z " fill="#EC2028" transform="translate(1086.87109375,52.8671875)"/>
<path d="M0 0 C22.39875 -0.061875 44.7975 -0.12375 67.875 -0.1875 C74.93632324 -0.21481201 81.99764648 -0.24212402 89.27294922 -0.27026367 C97.92407227 -0.28381348 97.92407227 -0.28381348 101.97952271 -0.28633118 C104.79998924 -0.28911577 107.62028479 -0.30031658 110.44070435 -0.31672668 C114.04789964 -0.33743372 117.65484934 -0.34344972 121.26209855 -0.33921683 C123.19770874 -0.34051522 125.13329232 -0.35653828 127.06883049 -0.37328625 C140.8310326 -0.32443118 152.09765389 3.92818719 162.34765625 13.26171875 C173.89371862 25.40828554 177.52631515 39.94614972 177.27734375 56.15234375 C176.78566397 68.79169411 170.46726384 80.53850265 161.3125 89.12109375 C148.48409744 99.54417083 134.09142672 102.54925976 118 103 C127.66757641 111.34789996 127.66757641 111.34789996 137.5 119.5 C141.72792841 122.93208306 145.87520938 126.44558797 150 130 C159.88799278 138.64633446 159.88799278 138.64633446 170.3046875 146.62109375 C170.86414063 147.07613281 171.42359375 147.53117188 172 148 C172 148.66 172 149.32 172 150 C165.81138945 150.27415468 159.62638818 150.47252703 153.43310547 150.60424805 C151.33189261 150.65920384 149.23109334 150.73400247 147.13134766 150.82983398 C127.79338763 151.68960539 127.79338763 151.68960539 121.3102417 146.18367004 C119.03506639 143.92253029 117.00909367 141.49779213 115 139 C113.73566829 137.82407393 112.45022858 136.66934507 111.125 135.5625 C110.50496094 135.02367187 109.88492188 134.48484375 109.24609375 133.9296875 C107.42897814 132.36854817 105.60820362 130.81200642 103.78515625 129.2578125 C102.58578591 128.23455265 101.38657183 127.21110963 100.1875 126.1875 C99.58139893 125.67026367 98.97529785 125.15302734 98.35083008 124.62011719 C94.60948459 121.4151062 90.9389307 118.14798497 87.3125 114.8125 C83.81740111 111.60354956 80.2571616 108.53934163 76.5625 105.5625 C72.56774944 102.34056036 68.75454617 98.99336035 65 95.5 C59.53080825 90.41324445 53.81666014 85.68614939 48 81 C45.59909946 79.05083685 43.28782711 77.0844647 41 75 C41 74.34 41 73.68 41 73 C42.64585083 72.99453156 42.64585083 72.99453156 44.32495117 72.98895264 C54.68280121 72.95195602 65.04035523 72.8941322 75.39797974 72.81609726 C80.72252608 72.77664631 86.04690763 72.74444604 91.37158203 72.72900391 C96.51353423 72.71382178 101.6550333 72.67934823 106.79678345 72.63169098 C108.75505629 72.61689329 110.71339384 72.60895991 112.67172241 72.60811615 C115.42226042 72.6057399 118.17155285 72.57860755 120.921875 72.54589844 C122.12705528 72.55344398 122.12705528 72.55344398 123.35658264 72.56114197 C129.86581547 72.44195938 135.06346622 70.53403591 140.0234375 66.25390625 C144.60752312 60.51717482 146.53878653 56.15254898 146.3828125 48.69921875 C145.54656066 42.80278998 142.75065806 37.84528822 138.6875 33.5625 C131.8182544 29.56875256 125.98829952 28.55498567 118.1875 28.56762695 C117.22505371 28.55735316 116.26260742 28.54707937 115.27099609 28.53649426 C112.18059872 28.50679801 109.09051986 28.49709435 106 28.48828125 C104.08202009 28.47280221 102.16405037 28.45600304 100.24609375 28.43786621 C93.16417478 28.38010247 86.08206645 28.34782345 79 28.3125 C55.24 28.1578125 55.24 28.1578125 31 28 C31 68.26 31 108.52 31 150 C20.77 150 10.54 150 0 150 C0 100.5 0 51 0 0 Z " fill="#EC2028" transform="translate(271,54)"/>
<path d="M0 0 C5.03491157 4.08525169 8.68357639 9.08950251 12.0625 14.5625 C12.52164795 15.28864502 12.9807959 16.01479004 13.45385742 16.76293945 C14.45007109 18.33935273 15.44254522 19.91813421 16.43164062 21.49902344 C18.62030595 24.98916783 20.83887807 28.45997881 23.05517578 31.93261719 C26.64934358 37.56704195 30.22874413 43.21086879 33.81152344 48.85253906 C40.11373361 58.77451517 46.42847883 68.6866877 52.828125 78.54614258 C57.07439489 85.09632159 61.26283016 91.68279237 65.44824219 98.27197266 C69.34494796 104.40489225 73.25703041 110.52770892 77.17895508 116.64453125 C82.47960911 124.91262676 87.77726663 133.18238459 93 141.5 C93.41540039 142.1585498 93.83080078 142.81709961 94.25878906 143.49560547 C97 147.88082349 97 147.88082349 97 149 C64.97456688 152.50473478 64.97456688 152.50473478 57.00390625 146.88916016 C52.59072553 141.70933073 49.9526147 135.78908884 47.83325195 129.36010742 C47.03133322 126.78044111 47.03133322 126.78044111 45 124 C42.52069701 123.73633941 40.2928252 123.6658012 37.81567383 123.72631836 C37.07560089 123.73218964 36.33552795 123.73806091 35.57302856 123.74411011 C33.96275989 123.75778054 32.35253552 123.77777122 30.74241066 123.80326653 C28.19030135 123.84008511 25.63919684 123.8526186 23.08683777 123.85731506 C15.82937932 123.87208434 8.57286595 123.90701311 1.31616211 124.0168457 C-3.12167687 124.08225746 -7.55745623 124.09876661 -11.99572182 124.08413887 C-13.68426788 124.08792058 -15.37287835 124.10993488 -17.06093407 124.1508007 C-30.27155108 124.4608777 -30.27155108 124.4608777 -34.53596497 120.85661316 C-36.34909679 118.30369542 -37.69118218 115.83833182 -39 113 C-39.91520811 111.50809547 -40.84579754 110.02535588 -41.80078125 108.55859375 C-43.0783533 106.47248148 -44.34660501 104.38103441 -45.61132812 102.28710938 C-47.7022047 98.54177166 -47.7022047 98.54177166 -51 96 C-51.94746094 97.56621094 -51.94746094 97.56621094 -52.9140625 99.1640625 C-58.78398776 108.83433808 -64.77057892 118.4220009 -70.87548828 127.94580078 C-71.70089111 129.23526611 -71.70089111 129.23526611 -72.54296875 130.55078125 C-73.1157959 131.41179443 -73.68862305 132.27280762 -74.27880859 133.15991211 C-76.10944223 136.03963632 -76.10944223 136.03963632 -77.53759766 139.51391602 C-81.64441221 148.13964151 -81.64441221 148.13964151 -85.92367554 149.7026062 C-91.58079277 150.79878212 -97.27156871 150.52376359 -103 150.3125 C-104.74604597 150.2954899 -106.49215978 150.28436615 -108.23828125 150.27929688 C-112.49599582 150.25419291 -116.74489337 150.1490177 -121 150 C-120.22740115 145.39406611 -118.46851185 142.33455256 -115.8125 138.5625 C-114.89226819 137.2189952 -113.97443967 135.87384217 -113.05859375 134.52734375 C-112.56343262 133.80015137 -112.06827148 133.07295898 -111.55810547 132.32373047 C-108.75307382 128.14035673 -106.06853733 123.88067492 -103.375 119.625 C-102.17198622 117.72779405 -100.96885853 115.83066033 -99.765625 113.93359375 C-99.15009766 112.96276855 -98.53457031 111.99194336 -97.90039062 110.99169922 C-94.65468747 105.88213518 -91.38978026 100.78488795 -88.125 95.6875 C-87.45774902 94.6454541 -86.79049805 93.6034082 -86.10302734 92.52978516 C-84.7461808 90.4109143 -83.38924699 88.29209934 -82.03222656 86.17333984 C-78.02298987 79.91288111 -74.01618013 73.6508687 -70.00927734 67.38891602 C-66.62769847 62.10452611 -63.24478329 56.82100008 -59.859375 51.5390625 C-58.48951018 49.40108854 -57.1197178 47.26306816 -55.75 45.125 C-55.08621338 44.08915771 -54.42242676 43.05331543 -53.73852539 41.98608398 C-50.12519741 36.34140708 -46.53462952 30.68347477 -42.97290039 25.00610352 C-41.0632881 21.96693839 -39.14057609 18.93628498 -37.21191406 15.90917969 C-36.13912715 14.21917291 -35.08022852 12.52036762 -34.0234375 10.8203125 C-30.01527523 4.65250115 -25.15651741 -0.41412766 -17.9296875 -2.63671875 C-11.50722389 -3.84580603 -5.80423827 -2.81245719 0 0 Z M-13 34 C-14.07577525 35.6116353 -15.10029524 37.25747356 -16.10546875 38.9140625 C-16.75265869 39.9747998 -17.39984863 41.03553711 -18.06665039 42.12841797 C-18.41229034 42.69832458 -18.7579303 43.2682312 -19.11404419 43.85540771 C-20.92495448 46.84069396 -22.74725837 49.81899378 -24.5703125 52.796875 C-24.94098343 53.40268402 -25.31165436 54.00849304 -25.69355774 54.63265991 C-29.77761101 61.29279121 -33.98176543 67.87541342 -38.2175293 74.43994141 C-42.3467737 80.86993598 -46.13812282 87.37963913 -50 94 C-25.25 94 -0.5 94 25 94 C23.43497023 90.08742557 21.91532723 87.02648945 19.7265625 83.4921875 C19.07228271 82.43193359 18.41800293 81.37167969 17.74389648 80.27929688 C17.03779853 79.14440624 16.33149537 78.00964327 15.625 76.875 C14.90090847 75.70651315 14.17703341 74.53789214 13.45336914 73.36914062 C11.30848836 69.90885133 9.15486991 66.45407753 7 63 C6.4013916 62.03868164 5.8027832 61.07736328 5.18603516 60.08691406 C-2.92075572 46.7113389 -2.92075572 46.7113389 -12 34 C-12.33 34 -12.66 34 -13 34 Z " fill="#EC2028" transform="translate(568,55)"/>
<path d="M0 0 C2.51204676 0.00560553 5.02409684 0.0098711 7.53614807 0.01286316 C13.4324895 0.0230792 19.32865513 0.04663163 25.2249251 0.07691163 C32.61020591 0.11399903 39.99550901 0.1299034 47.38085938 0.14648438 C60.52612788 0.17851588 73.67125615 0.22903128 86.81640625 0.29296875 C85.38502305 3.98437874 83.76155862 7.18140776 81.62890625 10.5234375 C81.01273438 11.49087891 80.3965625 12.45832031 79.76171875 13.45507812 C79.11976563 14.45345703 78.4778125 15.45183594 77.81640625 16.48046875 C77.17445313 17.49044922 76.5325 18.50042969 75.87109375 19.54101562 C71.08707531 27.02229969 71.08707531 27.02229969 68.81640625 29.29296875 C65.90206748 29.4846882 63.08181335 29.55197068 60.16674805 29.5324707 C59.27050217 29.53448486 58.37425629 29.53649902 57.45085144 29.53857422 C55.49853003 29.54212689 53.54619714 29.54134385 51.59387779 29.53679848 C48.49415739 29.53121131 45.39481214 29.54035758 42.29512024 29.55400085 C33.47952766 29.59113167 24.66405721 29.60973716 15.84838867 29.59838867 C10.45773062 29.59250093 5.06759381 29.61098543 -0.32295799 29.64427757 C-2.36922943 29.65218318 -4.41555841 29.65102099 -6.46181679 29.64025307 C-23.77382683 29.55316547 -36.14315079 31.76655451 -49.11328125 44.1328125 C-58.20297965 53.67114408 -61.73546063 65.94071162 -61.49609375 78.8515625 C-60.61155295 88.59256801 -57.08657403 96.6061208 -51.18359375 104.29296875 C-50.60609375 105.15921875 -50.02859375 106.02546875 -49.43359375 106.91796875 C-41.53787372 115.25233989 -30.38069172 120.74636117 -18.85044384 121.43163395 C-18.04387498 121.4380865 -17.23730612 121.44453905 -16.40629578 121.45118713 C-15.47386551 121.46097595 -14.54143524 121.47076477 -13.58074951 121.48085022 C-12.06484222 121.48948341 -12.06484222 121.48948341 -10.51831055 121.49829102 C-9.44468765 121.50819061 -8.37106476 121.51809021 -7.26490784 121.52828979 C-3.72089839 121.55984377 -0.17687554 121.58463819 3.3671875 121.609375 C5.82627203 121.62994979 8.28535307 121.6509464 10.74443054 121.67234802 C17.21344165 121.72751444 23.68248438 121.77694771 30.15155029 121.82519531 C36.75405692 121.87544995 43.35651768 121.93111534 49.95898438 121.98632812 C62.91141887 122.09384331 75.86389255 122.19548681 88.81640625 122.29296875 C87.6211186 125.99224266 86.47542113 129.17894579 84.3203125 132.421875 C83.84400391 133.14697266 83.36769531 133.87207031 82.87695312 134.61914062 C82.38259766 135.35712891 81.88824219 136.09511719 81.37890625 136.85546875 C80.40036775 138.33549215 79.42248574 139.81594984 78.4453125 141.296875 C78.0129126 141.94470947 77.5805127 142.59254395 77.13500977 143.26000977 C75.71100522 145.30507451 75.71100522 145.30507451 74.80839539 147.88157654 C72.81640625 150.29296875 72.81640625 150.29296875 71.00604343 150.75479984 C68.53371574 150.93354763 66.10466115 150.94508494 63.62597656 150.90820312 C62.68402939 150.91375214 61.74208221 150.91930115 60.77159119 150.92501831 C57.64539259 150.93686268 54.52062953 150.91246911 51.39453125 150.88671875 C49.2151496 150.88500718 47.03576589 150.8850738 44.85638428 150.88684082 C40.27629017 150.88518424 35.69668347 150.86644055 31.11669922 150.83496094 C25.28326361 150.79556426 19.45047506 150.79088104 13.61693192 150.79842377 C9.10748509 150.80151664 4.59818004 150.7892866 0.08876801 150.77229309 C-2.05912636 150.76531906 -4.20703681 150.76213167 -6.35494232 150.76298523 C-33.14239921 150.74683005 -53.60537031 145.77474774 -73.18359375 126.29296875 C-88.66683672 109.77377643 -92.82311485 90.63601644 -92.51953125 68.72265625 C-91.83148711 49.33800779 -82.41570029 32.97232182 -68.6875 19.69140625 C-48.68120376 1.08814897 -25.88964139 -0.1708441 0 0 Z " fill="#EC2028" transform="translate(740.18359375,53.70703125)"/>
<path d="M0 0 C5.61 0 11.22 0 17 0 C17.33 29.7 17.66 59.4 18 90 C21.3 86.04 24.6 82.08 28 78 C44.1341097 63.62700791 64.46734419 60.99049462 85.19873047 61.8046875 C102.85149775 63.03548877 118.05182799 71.46461146 130.125 84.125 C146.93555414 104.02597925 149.06866524 127.84614821 148 153 C146.3246708 172.3056392 137.10995812 190.8386105 123 204 C106.27802572 217.62690449 86.94093682 223.51194326 65.49267578 221.5546875 C46.89699256 219.48896323 31.33409638 212.25667572 19.5 197.5625 C18.33075654 196.04364686 17.16365402 194.52313967 16 193 C15.97494385 193.72179443 15.9498877 194.44358887 15.92407227 195.18725586 C15.80848698 198.437535 15.68559226 201.68749688 15.5625 204.9375 C15.52318359 206.07380859 15.48386719 207.21011719 15.44335938 208.38085938 C15.40146484 209.46044922 15.35957031 210.54003906 15.31640625 211.65234375 C15.27974854 212.65257568 15.24309082 213.65280762 15.20532227 214.68334961 C15 217 15 217 14 218 C9.05 218 4.1 218 -1 218 C-0.67 146.06 -0.34 74.12 0 0 Z M29 97 C26.71459262 100.2113914 24.79309535 103.4927506 23 107 C22.61070312 107.73992187 22.22140625 108.47984375 21.8203125 109.2421875 C16.79657489 119.54635004 16.67544626 130.51130321 16.73925781 141.75195312 C16.74998265 143.99636848 16.73930359 146.23998375 16.7265625 148.484375 C16.70756819 165.58055242 19.42469882 179.02918677 31.65625 191.75 C43.92084533 203.52401152 57.86460725 208.40480709 74.75146484 208.37084961 C90.12405466 207.93972441 102.57362415 201.88632093 113.6796875 191.4765625 C127.60087143 176.61792511 131.84604295 156.3411682 131.28515625 136.5859375 C130.3783049 118.30472501 122.91060326 100.8712275 109.625 88.2578125 C97.07781359 77.46573848 82.31038278 74.71032854 66.20214844 75.77685547 C51.32676505 77.28418367 38.43550903 85.74478566 29 97 Z " fill="#231F20" transform="translate(344,315)"/>
<path d="M0 0 C10.23 0 20.46 0 31 0 C31 40.26 31 80.52 31 122 C74.89 122 118.78 122 164 122 C160.38275877 128.63160892 156.92802875 134.89269252 152.6875 141.0625 C149.64094665 145.40947841 149.64094665 145.40947841 147 150 C129.96206651 150.07021028 112.92417844 150.12304688 95.88613319 150.15543652 C87.97433245 150.1708781 80.0626218 150.19191553 72.15087891 150.22631836 C65.25166364 150.25630398 58.35251366 150.27559468 51.45323503 150.28226548 C47.80312855 150.2861623 44.15320878 150.29526317 40.50316238 150.31719017 C36.41950595 150.34152099 32.33617017 150.34196414 28.25244141 150.34057617 C27.05409668 150.351362 25.85575195 150.36214783 24.62109375 150.3732605 C17.88805202 150.34856586 11.10924754 150.13838356 5 147 C-1.65182714 139.94979261 -0.2812407 127.637985 -0.22705078 118.6340332 C-0.22734283 117.3449556 -0.22763489 116.05587799 -0.22793579 114.72773743 C-0.22850444 111.22844304 -0.21683012 107.72928863 -0.20278788 104.23002648 C-0.19019828 100.55986781 -0.18910358 96.88970514 -0.18673706 93.2195282 C-0.18054629 86.28541753 -0.16416835 79.3513707 -0.14403808 72.41728801 C-0.12160384 64.51634582 -0.11066681 56.61540042 -0.10064721 48.71443427 C-0.0797997 32.47624636 -0.04315389 16.23814628 0 0 Z " fill="#EC2028" transform="translate(840,54)"/>
<path d="M0 0 C14.67273598 12.36765359 20.51562634 30.50000939 23.1484375 48.9296875 C23.1484375 54.8696875 23.1484375 60.8096875 23.1484375 66.9296875 C-17.1115625 66.9296875 -57.3715625 66.9296875 -98.8515625 66.9296875 C-98.5215625 67.9196875 -98.1915625 68.9096875 -97.8515625 69.9296875 C-97.66097657 71.7775424 -97.47326045 73.62579482 -97.30786133 75.47607422 C-95.83357083 91.22393938 -91.31051536 107.25058505 -78.8515625 117.9296875 C-78.22894531 118.48140625 -77.60632813 119.033125 -76.96484375 119.6015625 C-61.84804587 132.30292948 -42.46483448 134.08645594 -23.52001953 132.46582031 C-14.80250236 131.61578351 -6.75259527 129.73708032 1.57421875 127.05078125 C5.1484375 125.9296875 5.1484375 125.9296875 10.1484375 124.9296875 C12.1284375 131.3646875 12.1284375 131.3646875 14.1484375 137.9296875 C-6.45668693 149.94934342 -37.45676006 150.85807658 -60.20703125 145.90234375 C-80.4545341 140.49866936 -95.80571077 129.2095479 -106.47265625 111.19140625 C-112.08961874 100.8399467 -115.37981617 88.72334583 -115.8515625 76.9296875 C-115.89152344 75.97191406 -115.93148437 75.01414062 -115.97265625 74.02734375 C-116.43768039 51.45999569 -110.70538605 26.83406562 -94.8515625 9.9296875 C-94.08585938 9.11113281 -93.32015625 8.29257812 -92.53125 7.44921875 C-82.75360349 -2.19708624 -70.34523729 -8.44533718 -56.8515625 -11.0703125 C-55.49224609 -11.34294922 -55.49224609 -11.34294922 -54.10546875 -11.62109375 C-35.06801497 -14.24931366 -15.79211388 -11.46550734 0 0 Z M-81.5390625 17.3671875 C-89.76245015 27.05218264 -96.8515625 41.05910794 -96.8515625 53.9296875 C-63.1915625 53.9296875 -29.5315625 53.9296875 5.1484375 53.9296875 C5.1484375 39.24123761 2.08847033 25.76998427 -7.953125 14.58984375 C-19.52930603 3.6067886 -32.49560362 1.30386437 -47.859375 1.62109375 C-61.08339753 2.22173254 -72.32147529 7.9920347 -81.5390625 17.3671875 Z " fill="#231F20" transform="translate(793.8515625,389.0703125)"/>
<path d="M0 0 C14.85 0 29.7 0 45 0 C45 50.82 45 101.64 45 154 C30.15 154 15.3 154 0 154 C0 103.18 0 52.36 0 0 Z " fill="#0D7ABF" transform="translate(1132,380)"/>
<path d="M0 0 C5.94 0 11.88 0 18 0 C17.99476318 2.59246582 17.98952637 5.18493164 17.98413086 7.85595703 C17.96748136 16.46928557 17.95648355 25.08261485 17.94818783 33.69595528 C17.94299304 38.91270939 17.93595799 44.12944686 17.92456055 49.34619141 C17.91360972 54.39069658 17.9076976 59.43518585 17.90512276 64.479702 C17.90329031 66.3939832 17.89971254 68.30826365 17.89426994 70.22253799 C17.27970867 104.12254021 17.27970867 104.12254021 33 133 C44.14215584 141.76882668 57.370949 142.23874456 71 141 C84.34395629 138.44385253 95.36931069 130.63147087 103.56640625 119.9609375 C109.66475731 110.82251293 111.13784448 101.00485406 111.20532227 90.25268555 C111.21522186 89.27659836 111.22512146 88.30051117 111.23532104 87.29484558 C111.26685387 84.07549446 111.29166101 80.8561286 111.31640625 77.63671875 C111.33698287 75.40183636 111.35797953 73.16695779 111.37937927 70.93208313 C111.4345268 65.05491237 111.48396836 59.17770691 111.53222656 53.30047607 C111.58249503 47.30119749 111.63815319 41.30196919 111.69335938 35.30273438 C111.80085143 23.53519922 111.90231627 11.76762038 112 0 C117.61 0 123.22 0 129 0 C129.0154612 2.18604858 129.0154612 2.18604858 129.03123474 4.41625977 C129.12992507 18.29836597 129.23268454 32.18043772 129.33933926 46.06248474 C129.39404322 53.19561451 129.44738402 60.32874916 129.49731445 67.46191406 C129.55519305 75.7038101 129.61662518 83.94567252 129.68359375 92.1875 C129.68900665 92.85366585 129.69441955 93.5198317 129.69999647 94.20618439 C129.86430894 114.14973092 130.1713672 134.07214378 131 154 C125.39 154 119.78 154 114 154 C113.93941406 152.60265625 113.87882813 151.2053125 113.81640625 149.765625 C113.73198297 147.92707358 113.64733586 146.08853243 113.5625 144.25 C113.52318359 143.32960938 113.48386719 142.40921875 113.44335938 141.4609375 C113.40146484 140.57148437 113.35957031 139.68203125 113.31640625 138.765625 C113.27974854 137.94868164 113.24309082 137.13173828 113.20532227 136.29003906 C113.00865725 134.0965577 112.59699406 132.11603587 112 130 C111.39865234 130.72703125 111.39865234 130.72703125 110.78515625 131.46875 C98.3430325 146.13973492 84.13379893 154.26999147 65 157 C48.74077212 158.09957084 32.47048954 155.65892865 19.5390625 144.96484375 C5.35775208 131.60802812 0.71048859 113.3845128 -0.11029053 94.45660019 C-0.27484113 87.71120744 -0.23016812 80.96547461 -0.1953125 74.21875 C-0.1915731 72.06685519 -0.18873052 69.91495866 -0.18673706 67.76306152 C-0.17917354 62.15394219 -0.15958934 56.54492973 -0.1373291 50.93585205 C-0.11671203 45.19032231 -0.10770174 39.44477497 -0.09765625 33.69921875 C-0.07633515 22.4660918 -0.04121414 11.23307159 0 0 Z " fill="#231F20" transform="translate(538,380)"/>
<path d="M0 0 C5.61 0 11.22 0 17 0 C17 71.94 17 143.88 17 218 C11.39 218 5.78 218 0 218 C0 146.06 0 74.12 0 0 Z " fill="#231F20" transform="translate(507,315)"/>
<path d="M0 0 C5.14666686 4.40223826 8.58308949 9.21387087 9.3359375 16.05078125 C9.44105869 24.82840089 8.19275991 29.86819306 2.875 36.75 C-3.14337594 41.46003335 -9.82929181 43.759753 -17.48828125 43.375 C-25.36239839 42.19939309 -30.57179717 39.20765871 -35.625 33.09765625 C-39.61145897 27.01604128 -39.71164384 21.08040581 -39 14 C-37.30958013 7.33954325 -33.85385064 2.59527835 -28 -1 C-18.40998346 -5.55353303 -9.31676581 -4.97726031 0 0 Z " fill="#0D7ABF" transform="translate(1169,319)"/>
</svg>
