<svg version="1.2" xmlns="http://www.w3.org/2000/svg" viewBox="0 0 1576 537" width="1576" height="537">
	<title>logo-1-svg</title>
	<style>
		.s0 { fill: #da1a42 } 
		.s1 { fill: #000000 } 
	</style>
	<path id="Layer" fill-rule="evenodd" class="s0" d="m507.6 166.2l-8.3 2.7c-3.2 1.1-6.8-0.6-7.9-3.8l-2.7-8.3c-1.1-3.3 0.6-6.8 3.9-7.9l8.3-2.7c3.2-1.1 6.7 0.6 7.8 3.9l2.7 8.2c1.1 3.3-0.6 6.8-3.8 7.9zm16.3 33.9c0.6 2-0.7 4-2.7 4.6l-6.6 1.7c-2 0.5-4.1-0.7-4.6-2.7l-1.8-6.6c-0.5-2.1 0.7-4.1 2.7-4.6l6.7-1.8c2-0.5 4 0.7 4.6 2.7l1.7 6.6zm-30.5-20l2.2 7.5c0.8 2.6-0.6 5.4-3.3 6.2l-7.4 2.2c-2.7 0.9-5.4-0.6-6.3-3.2l-2.2-7.5c-0.8-2.6 0.7-5.4 3.3-6.2l7.5-2.2c2.6-0.9 5.4 0.6 6.2 3.2zm-172.7-5.3c1.1 3.1 0.5 6.5-1.4 8.9-1.4 1.7-4.1 1.5-5.5-0.2-0.7-1.1-3.6-4.4-3.6-4.4-23.3-24.5-58-38.3-107.2-38.3-81.1 0-144.1 52.5-198.6 123.1l-0.3 0.4c-0.3 0.4-0.8 0.6-1.3 0.6h-1.5c-0.7 0-1.3-0.6-1.3-1.3l0.1-3.2c4.6-147 126.5-263.2 273.9-260.2 79.7 1.5 150.7 37.6 198.8 93.8 5.3 6.1 9.4 11.4 13.8 18.1 0.8 1.1 1.7 2.7 2.6 4.2l1.1 2.1c0.8 1.6 0.1 3.7-1.7 4.3l-7 2.7c-4.7 1.7-10-0.6-11.8-5.3 0 0-1.6-4.7-2.9-8.6-0.9-2.7-3.9-4.1-6.5-3-2.4 1-5.3 2.2-7.7 3.1-2.6 1-3.9 3.8-2.8 6.4 1.4 3.6 3.2 8.1 3.2 8.1 1.7 4.6-0.6 9.9-5.3 11.7l-10.4 3.9c-4.7 1.7-9.9-0.6-11.7-5.3 0 0-1.7-4.6-3-8.6-0.8-2.7-3.8-4.1-6.4-3-2.5 1-5.4 2.2-7.8 3.1-2.5 0.9-3.8 3.8-2.8 6.4 1.5 3.6 3.2 8.1 3.2 8.1 1.8 4.6-0.6 9.9-5.2 11.6l-10.4 3.9c-4.7 1.8-10-0.5-11.8-5.2 0 0-1.6-4.7-2.9-8.6-0.9-2.8-3.9-4.1-6.5-3-2.4 1-5.3 2.1-7.7 3-2.6 1-3.9 3.9-2.8 6.4 1.4 3.6 3.2 8.1 3.2 8.1 1.7 4.7-0.6 9.9-5.3 11.7l-10.4 3.9c-4.7 1.7-9.9-0.6-11.7-5.3 0 0-1.7-4.7-3-8.6-0.8-2.7-3.9-4.1-6.5-3-2.4 1-5.3 2.2-7.7 3.1-2.5 0.9-3.8 3.8-2.8 6.3 1.5 3.7 3.2 8.2 3.2 8.2zm114.5-23.7l3.2 9.1c1.5 3.8-0.5 8.1-4.4 9.5l-9.1 3.2c-3.8 1.4-8.1-0.6-9.5-4.4l-3.2-9.1c-1.4-3.9 0.6-8.2 4.4-9.6l9.1-3.1c3.9-1.4 8.2 0.5 9.5 4.4zm42.8 58.6l1.8 6.6c0.5 2-0.7 4.1-2.7 4.6l-6.6 1.8c-2 0.5-4.1-0.7-4.6-2.7l-1.8-6.7c-0.5-2 0.7-4 2.8-4.6l6.6-1.7c2-0.6 4.1 0.7 4.6 2.7zm-28.8-13.3l2.2 7.5c0.8 2.6-0.6 5.4-3.3 6.2l-7.4 2.2c-2.6 0.8-5.4-0.7-6.2-3.3l-2.3-7.4c-0.8-2.7 0.7-5.5 3.3-6.3l7.5-2.2c2.6-0.8 5.4 0.7 6.2 3.3zm-29.9 2.3l-8.3 2.7c-3.2 1.1-6.7-0.6-7.8-3.8l-2.7-8.3c-1.1-3.2 0.6-6.8 3.8-7.9l8.3-2.7c3.2-1.1 6.8 0.7 7.9 3.9l2.7 8.3c1.1 3.2-0.6 6.7-3.9 7.8zm-28.2-31.4l3.2 9.1c1.4 3.9-0.6 8.2-4.5 9.5l-9.1 3.2c-3.8 1.5-8.1-0.5-9.5-4.4l-3.2-9.1c-1.4-3.8 0.6-8.1 4.5-9.5l9.1-3.2c3.8-1.4 8.1 0.6 9.5 4.4zm42.8 58.6l1.7 6.7c0.6 2-0.7 4-2.7 4.6l-6.6 1.7c-2 0.6-4.1-0.7-4.6-2.7l-1.7-6.6c-0.6-2 0.7-4.1 2.7-4.6l6.6-1.8c2-0.5 4.1 0.7 4.6 2.7zm-28.8-13.2l2.3 7.5c0.8 2.6-0.7 5.4-3.3 6.2l-7.5 2.2c-2.6 0.8-5.4-0.7-6.2-3.3l-2.2-7.4c-0.9-2.7 0.6-5.4 3.2-6.3l7.5-2.2c2.6-0.8 5.4 0.6 6.2 3.3zm-29.8 2.3l-8.3 2.7c-3.3 1.1-6.8-0.7-7.9-3.9l-2.7-8.3c-1.1-3.2 0.6-6.7 3.9-7.8l8.2-2.7c3.3-1.1 6.8 0.6 7.9 3.8l2.7 8.3c1.1 3.2-0.6 6.8-3.8 7.9zm-29.5-12.8l-9.1 3.2c-3.9 1.4-8.1-0.6-9.5-4.5l-3.2-9.1c-1.5-3.8 0.5-8.1 4.4-9.5l9.1-3.2c3.9-1.4 8.1 0.6 9.5 4.5l3.2 9.1c1.4 3.8-0.6 8.1-4.4 9.5zm44 39.9l1.8 6.7c0.5 2-0.7 4-2.7 4.5l-6.7 1.8c-2 0.5-4-0.7-4.6-2.7l-1.7-6.6c-0.5-2 0.7-4.1 2.7-4.6l6.7-1.8c2-0.5 4 0.7 4.5 2.7zm-28.8-13.2l2.3 7.4c0.8 2.7-0.7 5.5-3.3 6.3l-7.5 2.2c-2.6 0.8-5.4-0.7-6.2-3.3l-2.2-7.5c-0.8-2.6 0.7-5.4 3.3-6.2l7.4-2.2c2.7-0.9 5.5 0.6 6.3 3.2zm108.9-98.3c3.8-1.4 8.1 0.6 9.5 4.4l3.2 9.1c1.4 3.9-0.6 8.1-4.4 9.5l-9.1 3.2c-3.9 1.4-8.1-0.5-9.5-4.4l-3.2-9.1c-1.5-3.8 0.5-8.1 4.4-9.5l9.1-3.2zm-6.4 51.8l-8.2 2.7c-3.3 1.2-6.8-0.6-7.9-3.8l-2.7-8.3c-1.1-3.2 0.6-6.7 3.8-7.8l8.3-2.8c3.3-1.1 6.8 0.7 7.9 3.9l2.7 8.3c1.1 3.2-0.6 6.7-3.9 7.8zm-43.4-79c1 2.6 2.2 5.7 2.9 8.1 0.8 2.4 3.4 3.5 5.7 2.6 2.2-0.9 5-1.9 7.2-2.7 2.3-0.9 3.5-3.5 2.5-5.7-0.9-2.2-2.2-5.3-3.1-7.9-0.9-2.4-3.6-3.7-6-2.7-2 0.8-4.3 1.6-6.4 2.4-2.4 0.9-3.7 3.6-2.7 6zm-44.2 16.2c1 2.6 2.1 5.7 2.9 8 0.8 2.4 3.3 3.6 5.7 2.7 2.2-0.9 5-2 7.2-2.8 2.3-0.8 3.5-3.4 2.5-5.7-0.9-2.1-2.2-5.2-3.1-7.8-0.9-2.5-3.6-3.7-6-2.7-2 0.7-4.3 1.6-6.4 2.3-2.4 0.9-3.7 3.6-2.7 6.1zm-44.2 16.2c1 2.5 2.1 5.7 2.9 8 0.8 2.4 3.3 3.6 5.7 2.7 2.2-0.9 5-2 7.2-2.8 2.3-0.9 3.5-3.5 2.5-5.7-1-2.1-2.2-5.3-3.1-7.9-0.9-2.4-3.6-3.6-6-2.7-2 0.8-4.4 1.7-6.4 2.4-2.4 0.9-3.7 3.6-2.8 6zm-307.3 234.6l8.3-2.7c3.2-1.1 6.8 0.6 7.9 3.9l2.7 8.3c1.1 3.2-0.6 6.7-3.9 7.8l-8.3 2.7c-3.2 1.1-6.7-0.6-7.8-3.8l-2.7-8.3c-1.1-3.2 0.6-6.8 3.8-7.9zm-16.3-33.9c-0.6-2 0.7-4 2.7-4.5l6.6-1.8c2-0.5 4.1 0.7 4.6 2.7l1.8 6.7c0.5 2-0.7 4-2.7 4.6l-6.7 1.7c-2 0.6-4-0.7-4.6-2.7l-1.7-6.6zm30.5 20l-2.2-7.4c-0.8-2.7 0.6-5.4 3.3-6.3l7.4-2.2c2.7-0.8 5.4 0.6 6.3 3.3l2.2 7.4c0.8 2.6-0.7 5.4-3.3 6.2l-7.5 2.3c-2.6 0.8-5.4-0.7-6.2-3.3zm172.7 5.3c-1.1-3.1-0.5-6.5 1.4-8.9 1.4-1.7 4.1-1.5 5.5 0.3 0.7 1 3.6 4.3 3.6 4.3 23.3 24.5 58 38.4 107.2 38.4 81.1 0 144.1-52.5 198.6-123.2l0.3-0.3c0.3-0.4 0.8-0.7 1.3-0.7h1.5c0.7 0 1.3 0.6 1.3 1.4l-0.1 3.2c-4.6 146.8-126.6 263-273.9 260.1-79.8-1.6-150.7-37.7-198.9-93.9-5.2-6.1-9.3-11.4-13.8-18.1-0.7-1.1-1.7-2.6-2.5-4.2l-1.1-2.1c-0.9-1.6-0.1-3.7 1.6-4.3l7.1-2.7c4.7-1.7 9.9 0.6 11.7 5.3 0 0 1.7 4.7 3 8.6 0.8 2.7 3.8 4.1 6.4 3 2.5-1 5.4-2.2 7.8-3.1 2.6-1 3.8-3.8 2.8-6.3-1.5-3.7-3.2-8.2-3.2-8.2-1.8-4.6 0.6-9.9 5.2-11.7l10.5-3.9c4.6-1.7 9.9 0.6 11.7 5.3 0 0 1.6 4.6 2.9 8.6 0.9 2.7 3.9 4.1 6.5 3 2.4-1 5.3-2.2 7.8-3.1 2.5-0.9 3.8-3.8 2.7-6.4-1.4-3.6-3.2-8.1-3.2-8.1-1.7-4.6 0.6-9.9 5.3-11.6l10.4-3.9c4.7-1.8 9.9 0.5 11.7 5.2 0 0 1.7 4.7 3 8.7 0.8 2.7 3.8 4 6.5 2.9 2.4-1 5.3-2.1 7.7-3 2.6-1 3.8-3.9 2.8-6.4-1.5-3.6-3.2-8.1-3.2-8.1-1.8-4.7 0.6-9.9 5.2-11.7l10.5-3.9c4.6-1.7 9.9 0.6 11.7 5.3 0 0 1.6 4.7 2.9 8.6 0.9 2.7 3.9 4.1 6.5 3 2.4-1 5.3-2.2 7.8-3.1 2.5-0.9 3.8-3.8 2.7-6.3-1.4-3.7-3.2-8.2-3.2-8.2zm-114.5 23.7l-3.2-9.1c-1.4-3.8 0.6-8.1 4.4-9.5l9.1-3.2c3.9-1.4 8.2 0.6 9.6 4.5l3.2 9c1.4 3.9-0.6 8.2-4.5 9.6l-9.1 3.2c-3.8 1.3-8.1-0.6-9.5-4.5zm-42.8-58.6l-1.7-6.6c-0.6-2 0.6-4.1 2.7-4.6l6.6-1.8c2-0.4 4.1 0.7 4.6 2.8l1.7 6.6c0.5 2-0.7 4-2.7 4.6l-6.6 1.7c-2 0.6-4.1-0.7-4.6-2.7zm28.8 13.3l-2.3-7.4c-0.8-2.7 0.7-5.5 3.3-6.3l7.5-2.2c2.6-0.8 5.4 0.7 6.2 3.3l2.2 7.4c0.8 2.7-0.6 5.5-3.3 6.3l-7.4 2.2c-2.6 0.8-5.4-0.7-6.2-3.3zm29.8-2.3l8.3-2.7c3.3-1.1 6.8 0.6 7.9 3.8l2.7 8.3c1.1 3.2-0.6 6.8-3.9 7.9l-8.2 2.7c-3.3 1.1-6.8-0.6-7.9-3.9l-2.7-8.3c-1.1-3.2 0.6-6.7 3.8-7.8zm28.3 31.4l-3.2-9.1c-1.5-3.9 0.6-8.1 4.4-9.5l9.1-3.2c3.9-1.5 8.1 0.5 9.5 4.4l3.2 9.1c1.5 3.8-0.6 8.1-4.4 9.5l-9.1 3.2c-3.9 1.4-8.1-0.6-9.5-4.4zm-42.8-58.6l-1.8-6.7c-0.5-2 0.7-4 2.7-4.6l6.7-1.7c2-0.6 4 0.7 4.6 2.7l1.7 6.6c0.5 2-0.7 4.1-2.7 4.6l-6.7 1.8c-2 0.5-4-0.7-4.6-2.7zm28.9 13.2l-2.3-7.5c-0.8-2.6 0.7-5.4 3.3-6.2l7.4-2.2c2.7-0.8 5.5 0.7 6.3 3.3l2.2 7.4c0.8 2.7-0.7 5.4-3.3 6.3l-7.4 2.2c-2.7 0.8-5.5-0.6-6.3-3.3zm29.9-2.3l8.3-2.7c3.2-1.1 6.7 0.7 7.9 3.9l2.7 8.3c1.1 3.2-0.7 6.7-3.9 7.8l-8.3 2.7c-3.2 1.2-6.7-0.6-7.8-3.8l-2.7-8.3c-1.2-3.2 0.6-6.7 3.8-7.9zm29.5 12.8l9.1-3.2c3.8-1.4 8.1 0.6 9.5 4.5l3.2 9.1c1.4 3.8-0.6 8.1-4.4 9.5l-9.1 3.2c-3.9 1.4-8.2-0.6-9.6-4.5l-3.1-9.1c-1.5-3.8 0.5-8.1 4.4-9.5zm-44-39.9l-1.8-6.7c-0.5-2 0.7-4 2.7-4.5l6.6-1.8c2-0.5 4.1 0.7 4.6 2.7l1.7 6.6c0.6 2-0.6 4.1-2.7 4.6l-6.6 1.8c-2 0.5-4.1-0.7-4.6-2.7zm28.8 13.2l-2.2-7.4c-0.8-2.7 0.6-5.4 3.3-6.3l7.4-2.2c2.6-0.8 5.4 0.7 6.2 3.3l2.3 7.5c0.8 2.6-0.7 5.4-3.3 6.2l-7.5 2.2c-2.6 0.9-5.4-0.6-6.2-3.2zm-108.9 98.3c-3.9 1.4-8.1-0.6-9.5-4.4l-3.2-9.1c-1.5-3.9 0.5-8.1 4.4-9.5l9.1-3.2c3.8-1.4 8.1 0.5 9.5 4.4l3.2 9.1c1.4 3.8-0.6 8.1-4.4 9.5l-9.1 3.2zm6.3-51.8l8.3-2.7c3.2-1.1 6.8 0.6 7.9 3.8l2.7 8.3c1.1 3.2-0.6 6.7-3.9 7.9l-8.3 2.7c-3.2 1.1-6.7-0.7-7.8-3.9l-2.7-8.3c-1.1-3.2 0.6-6.7 3.8-7.8zm43.4 79c-0.9-2.6-2.1-5.7-2.8-8.1-0.8-2.3-3.4-3.5-5.7-2.6-2.3 0.9-5 1.9-7.3 2.8-2.3 0.8-3.4 3.4-2.4 5.6 0.9 2.2 2.1 5.3 3.1 7.9 0.9 2.4 3.5 3.7 6 2.7 2-0.8 4.3-1.6 6.3-2.4 2.5-0.9 3.7-3.6 2.8-6zm44.1-16.2c-0.9-2.5-2.1-5.7-2.8-8-0.8-2.4-3.4-3.6-5.7-2.7-2.3 0.9-5 2-7.3 2.8-2.3 0.8-3.4 3.4-2.4 5.7 0.9 2.1 2.1 5.2 3.1 7.8 0.9 2.5 3.5 3.7 6 2.8 2-0.8 4.3-1.7 6.4-2.4 2.4-0.9 3.6-3.6 2.7-6zm44.2-16.3c-1-2.5-2.2-5.7-2.9-8-0.8-2.4-3.4-3.6-5.7-2.7-2.3 0.9-5 2-7.3 2.8-2.3 0.9-3.4 3.5-2.4 5.7 0.9 2.1 2.1 5.3 3.1 7.9 0.9 2.4 3.6 3.6 6 2.7 2-0.8 4.3-1.7 6.4-2.4 2.4-0.9 3.7-3.6 2.7-6z"/>
	<path id="Layer" fill-rule="evenodd" class="s1" d="m642.8 47.6h74.1c63.2 0 100.2 44.8 100.2 97.5 0 52.6-36.7 97.5-100.2 97.5h-74.1zm45.5 157.1h24.4c38.8 0 57.6-28.7 57.6-59.6 0-30.9-18.8-59.6-57.6-59.6h-24.4zm171.3-108.1c-14.6 0-26.5-11.7-26.5-26.1 0-14.4 11.9-26 26.5-26 14.7 0 26.6 11.6 26.6 26 0 14.4-11.9 26.1-26.6 26.1zm-21.4 11.7h42.6v134.3h-42.6zm213.2 0v125.6c-0.2 25.9-9.5 45.1-26.1 56.6-12.3 8.6-28.9 11.9-48.3 11.9-19.3 0-35.6-3-48.8-10.8-13.7-8.4-23.5-22.9-24.1-37.3h43.8c1.9 10.5 11.2 17 28.6 17 19.9 0 32-8.7 32-32.7v-17.8c-6.7 13.4-24.7 21.7-42.4 21.7-40.1 0-64.3-28.9-64.3-68.5 0-39.6 25.8-69.4 64.9-69.4 18.5 0 35.1 9 41.8 22.9v-19.2zm-41 66.3c0-19.5-14.4-35.1-32.2-35.1-17.9 0-32.3 15.6-32.3 35.1 0 19.4 14.4 35.1 32.3 35.1 17.8 0 32.2-15.7 32.2-35.1zm88.8-78c-14.6 0-26.5-11.7-26.5-26.1 0-14.4 11.9-26 26.5-26 14.7 0 26.6 11.6 26.6 26 0 14.4-11.9 26.1-26.6 26.1zm-21.5 11.7h42.7v134.2h-42.7zm160.3 100.3v34c-6.2 1.1-16.2 2.2-28.6 2.2-20.2 0-48-4.4-48-49.3v-53.5h-21.3v-33.7h21.3v-39.8h42.9v39.8h30.6v33.7h-30.6v44.6c0 19.8 8.2 22.9 18.9 22.9 4.7 0 10.9-0.3 14.8-0.9zm12.7-33.1c0-40.1 24.9-70.8 64.2-70.8 19.7 0 35.1 9.2 42.4 22.9v-19.2h42.7v134.2h-42.7v-18.9c-7.3 13.3-24.1 22.6-42.9 22.6-40.5 0-63.7-30.4-63.7-70.8zm108.3 0.1c0-19.5-14.4-35.2-32.3-35.2-17.8 0-32.2 15.7-32.2 35.2 0 19.5 14.4 35.3 32.2 35.3 17.9 0 32.3-15.8 32.3-35.3zm67.3-128h43v195h-43zm-731.3 442.9v-154.9h-53.9v-40.1h153.2v40.1h-54.1v154.9zm73.2-134.3h43.5v73.6c0 18.4 6.2 28.4 22.4 28.4 18.3 0 26.2-11.7 26.2-29.8v-72.2h42.6v134.3h-42.6v-19.2c-7.6 14.2-21.7 22.8-42.1 22.8-32.6 0-50-20-50-54.8zm160.8 0h43v28.1c4.7-20.1 20.7-30.3 37.3-30.3 5 0 7.9 0.2 11.2 1.1v39.5c-5-0.5-7.5-0.8-12.9-0.8-23.3 0-35.6 15.1-35.6 44.9v51.8h-43zm258.2 67.2c0 42-26.1 70.7-63.4 70.7-19.9 0-36.2-10-43.2-22.5v18.9h-42.7v-195h42.7v79.9c7.3-12.8 24.1-22.9 44.4-22.9 37 0 62.3 28.4 62.3 70.8zm-43.8 0.1c0-19.5-14.5-35.2-32.3-35.2-17.8 0-32.2 15.7-32.2 35.2 0 19.5 14.4 35.3 32.2 35.3 17.8 0 32.3-15.8 32.3-35.3zm85.4-79c-14.7 0-26.5-11.6-26.5-26 0-14.4 11.8-26.1 26.5-26.1 14.7 0 26.5 11.7 26.5 26.1 0 14.4-11.8 26-26.5 26zm-21.5 11.7h42.7v134.3h-42.7zm69.3 134.3v-134.3h43v19.5c7.9-15 23.3-23.1 43.8-23.1 32.8 0 49.4 18.4 49.4 54.9v83h-43.2v-69.1c0-22.6-6.5-32.9-23.9-32.9-17.4 0-26.1 11.2-26.1 31.8v70.2zm198.2-55.5c0.8 17.6 12.6 27 31.7 27 13.2 0 21.6-3.6 25.3-11.9h42c-4.2 26.4-31.4 44-67.3 44-46 0-74.4-25.9-74.4-70.8 0-44.8 28.9-70.7 73-70.7 44.1 0 70.7 25.9 70.7 63.7 0 7-0.3 11.2-1.1 18.7zm58.7-26.4c-0.3-17.9-10.4-27.3-28.6-27.3-18.3 0-29.8 10.8-30.1 27.3z"/>
</svg>