<svg xmlns="http://www.w3.org/2000/svg" xmlns:xlink="http://www.w3.org/1999/xlink" viewBox="0 0 600 600"><defs><linearGradient id="a" x1="575.59" y1="176.5" x2="24.69" y2="425.84" gradientUnits="userSpaceOnUse"><stop offset="0" stop-color="aqua"/><stop offset="1" stop-color="#0071bc"/></linearGradient><linearGradient id="b" x1="379.52" y1="264.01" x2="220.48" y2="335.99" xlink:href="#a"/></defs><path d="M24.46,298.22C21,86.48,78.27,22.8,299.55,23.83S576.38,74.33,575.68,300,531.26,573.31,299.55,576.08,27.93,523.85,24.46,298.22Z" style="fill:url(#a)"/><path d="M310.09,275.26h74.52l79.91-86.12a5.06,5.06,0,0,0-3.71-8.49H263.5a5.07,5.07,0,0,0-3.71,1.62l-124.31,134a5.06,5.06,0,0,0,3.71,8.49h76.2l94.7-102.07Z" style="fill:#fff"/><path d="M289.91,377.33V324.74H215.39l-79.91,86.12a5.06,5.06,0,0,0,3.71,8.49H336.5a5.07,5.07,0,0,0,3.71-1.62l124.31-134a5.06,5.06,0,0,0-3.71-8.49h-76.2Z" style="fill:#fff"/><polygon points="289.91 377.33 384.61 275.26 310.09 275.26 310.09 222.67 215.39 324.74 289.91 324.74 289.91 377.33" style="fill:url(#b)"/></svg>