<svg xmlns="http://www.w3.org/2000/svg" viewBox="0 0 1140.02 215.36"><path d="M380.43,114.71C369.06,98.29,339,103.38,333.07,92.07c-2.88-16,32.74-18.09,29.09-.6h30.2C402,44.92,331.59,45,309.75,71.18c-18.46,21.27-13.91,46.56,16.15,52.07,8.05,2.83,27.21,2.58,26.11,13.85-4.79,15.46-38.74,12.83-33.79-6.59h-30c-11,42.1,38.3,48.31,67.36,38.08C377,162,393.68,134.86,380.43,114.71Z" style="fill:#00192a"/><path d="M507.79,55.09H475.9l-15.41,72.48A23.83,23.83,0,0,1,448,144c-12,6.87-29.43-1.08-25.07-16.41l15.4-72.48H406.4l-16,75.24c-7,27.35,15.1,44.8,41.44,43.58,27.55.47,54.46-15.72,60-43.58Z" style="fill:#00192a"/><path d="M571.39,132.37c21.33-8.62,35.45-36.24,28.11-57.93C589.81,44.78,538,57.27,514.85,54.77l-25,117.45h31.88l7.41-34.87C542.31,137.4,559.82,138.32,571.39,132.37ZM534.45,112.5l6.87-32.34c5.39.21,16.06-.89,20.44,1.92,8.47,4.25,6.38,16.47,1.29,22.79C556.85,113.62,544.07,112.63,534.45,112.5Z" style="fill:#00192a"/><path d="M632.93,55.09,569.37,172.22H604L615.38,150h38.21l2,22.18h34.59L676.4,55.09Zm-5.56,71,20.09-39h.92l3.49,39.05Z" style="fill:#00192a"/><path d="M787.41,114.71C776,98.29,746,103.38,740,92.07c-2.87-16,32.75-18.09,29.1-.6h30.19c9.61-46.55-60.76-46.48-82.6-20.29-18.46,21.27-13.91,46.56,16.15,52.07,8,2.83,27.21,2.58,26.11,13.85-4.79,15.46-38.75,12.83-33.79-6.59h-30c-11,42.1,38.3,48.31,67.36,38.08C783.93,162,800.66,134.86,787.41,114.71Z" style="fill:#00192a"/><path d="M900,146.72c12.77-15.54,21-47.56,14.05-66.12-10-30-49-32.78-74.15-20.36-29.82,13-48.4,55.86-38.89,86.36,8.56,26.41,40.57,32,64.66,24.19l6.66,10.31h28.22L887.3,159.51A73,73,0,0,0,900,146.72Zm-61.93-4.3c-11.79-10.63-4.94-34.33,1.71-46.63,6.72-13,25.3-19.58,37.21-11,12.62,12.23,4.42,38.68-4.92,51.2l-4.22-7.24H843.09l9.43,17.38C847.1,146.51,841.39,145.25,838.09,142.42Z" style="fill:#00192a"/><path d="M961.51,55.09,898,172.22h34.59L944,150h38.22l2,22.18h34.59L1005,55.09Zm-5.56,71L976,87H977l3.48,39.05Z" style="fill:#00192a"/><path d="M1137.73,81.91c-10.5-36-62-25.82-90.7-27.21l-25,117.44c20.89-.87,59.28,3.54,77.7-7C1129,152.26,1146.56,111.75,1137.73,81.91Zm-31.61,31.51c-5.39,28.17-20.79,33.23-46.42,31.65l13.46-63.31C1097.84,80.54,1112.89,84,1106.12,113.42Z" style="fill:#00192a"/><path d="M188.23,86.43H134.59l9.18-43.21H90.12L71.9,128.93h53.64l-9.19,43.21H170Z" style="fill:#06f"/><path d="M206.46,0H45.62L0,214.64H160.71l9-42.5H116.35l9.19-43.21H71.9L90.12,43.22h53.65l-9.18,43.21h53.64L170,172.14h53.66L260.26,0Z" style="fill:#06f"/><path d="M170,172.22l18.23-85.79H134.59l9.18-43.21H90.12L71.9,128.93h53.64l-9.19,43.21H170" style="fill:#fff"/><polygon points="169.84 172.14 223.86 172.14 214.67 215.36 160.65 215.36 169.84 172.14" style="fill:none"/></svg>