<svg xmlns="http://www.w3.org/2000/svg" viewBox="0 0 1368.47 297.76"><path d="M512.92,86.82A33.51,33.51,0,0,0,502,77.87a67.39,67.39,0,0,0-17.51-6.13l-10.36-2.33a51.34,51.34,0,0,1-7.67-2.2,18.68,18.68,0,0,1-5-2.75A7.13,7.13,0,0,1,459,61a7.58,7.58,0,0,1,0-4.3,11,11,0,0,1,2.84-5.17,14.86,14.86,0,0,1,6-3.58,28.46,28.46,0,0,1,9.36-1.33q8.73,0,12.25,3.62t2.67,10.08h34.38q2.7-13-1.6-22.71T510,22.56q-10.56-5.37-26.59-5.37a77.29,77.29,0,0,0-28.95,5.3,60.37,60.37,0,0,0-22.07,14.77A45.2,45.2,0,0,0,421,59.33q-3.36,15.51,4.85,24.46t25,12.76l12.58,2.84a57.17,57.17,0,0,1,11,3.46c2.62,1.23,4.41,2.61,5.35,4.14a7.18,7.18,0,0,1,.84,5.33,11.79,11.79,0,0,1-3.29,5.75,17.1,17.1,0,0,1-6.72,3.94,30.86,30.86,0,0,1-9.93,1.42,26.44,26.44,0,0,1-11.34-2.13,12.48,12.48,0,0,1-6.33-6.27q-1.83-4.12-.86-10.21H408q-3.48,16.62,1.35,27.24t16.56,15.74q11.75,5.1,29,5.1,16.81,0,29.8-4.71A53.47,53.47,0,0,0,506,134.42a46.35,46.35,0,0,0,11.23-22.1,39.22,39.22,0,0,0,.54-14A25.26,25.26,0,0,0,512.92,86.82Z" style="fill:#06f"/><path d="M656,19H620l-17.36,81.69a26.92,26.92,0,0,1-14.14,18.48A25.26,25.26,0,0,1,577,121.88a18.82,18.82,0,0,1-10.37-2.71,14.27,14.27,0,0,1-5.93-7.53,20,20,0,0,1-.39-11L577.62,19H541.69l-18,84.79q-3.21,15.12,1.59,26.14t16.38,17q11.6,6,28.72,6a79.21,79.21,0,0,0,31.13-6,63.66,63.66,0,0,0,23.68-17,57.54,57.54,0,0,0,12.76-26.14Z" style="fill:#06f"/><path d="M727.63,106.44a56.19,56.19,0,0,0,32.58-40.65q3-14.09-.91-24.62a31.08,31.08,0,0,0-13.71-16.35Q735.78,19,721,19H663.91L635.78,151.35h35.93l8.35-39.29H700A66.81,66.81,0,0,0,727.63,106.44ZM686,84.14l7.74-36.44h12.67a21.89,21.89,0,0,1,10.37,2.16,11.69,11.69,0,0,1,5.59,6.2,17.07,17.07,0,0,1,.36,9.73,23.14,23.14,0,0,1-4.5,9.76A21.77,21.77,0,0,1,710,81.91a27.23,27.23,0,0,1-11.3,2.23Z" style="fill:#06f"/><path d="M797,19,725.17,151.35H764L777,126h43.64l2.26,25.33h38.78L846.1,19Zm-6.18,80.14,22.47-43.69h1l3.9,43.69Z" style="fill:#06f"/><path d="M971.55,86.82a33.45,33.45,0,0,0-10.9-8.95,67.17,67.17,0,0,0-17.5-6.13l-10.36-2.33a51,51,0,0,1-7.67-2.2,18.68,18.68,0,0,1-5-2.75A7.13,7.13,0,0,1,917.61,61a7.58,7.58,0,0,1,0-4.3,11,11,0,0,1,2.84-5.17,14.86,14.86,0,0,1,6-3.58,28.46,28.46,0,0,1,9.36-1.33q8.71,0,12.25,3.62t2.67,10.08h34.38q2.7-13-1.6-22.71T968.66,22.56q-10.54-5.37-26.58-5.37a77.29,77.29,0,0,0-29,5.3,60.28,60.28,0,0,0-22.07,14.77,45.2,45.2,0,0,0-11.44,22.07q-3.37,15.51,4.85,24.46t25,12.76L922,99.39a57.07,57.07,0,0,1,11,3.46c2.62,1.23,4.41,2.61,5.35,4.14a7.18,7.18,0,0,1,.84,5.33,11.79,11.79,0,0,1-3.29,5.75,17.1,17.1,0,0,1-6.72,3.94,30.9,30.9,0,0,1-9.93,1.42,26.44,26.44,0,0,1-11.34-2.13,12.48,12.48,0,0,1-6.33-6.27q-1.83-4.12-.86-10.21H866.58q-3.47,16.62,1.36,27.24T884.5,147.8q11.73,5.1,29,5.1,16.8,0,29.8-4.71a53.47,53.47,0,0,0,21.37-13.77,46.35,46.35,0,0,0,11.23-22.1,39.22,39.22,0,0,0,.54-14A25.36,25.36,0,0,0,971.55,86.82Z" style="fill:#06f"/><path d="M1098,122.43q11.82-15.15,16.51-37.25t-.67-37.26q-5.38-15.15-18.33-22.94t-30.91-7.79a77.79,77.79,0,0,0-62.34,30.73q-11.79,15.17-16.48,37.26t.67,37.12q5.34,15.17,18.25,23t31,7.85a78.34,78.34,0,0,0,23.61-3.59l7.51,11.61h31.8l-14.95-24.33A82.22,82.22,0,0,0,1098,122.43Zm-69.78-4.78q-5.21-4.23-6.61-12.41t1.13-20.06a65.88,65.88,0,0,1,7.41-20.07A35,35,0,0,1,1042,52.7a30.21,30.21,0,0,1,15.93-4.23q8.91,0,14.12,4.23t6.61,12.41q1.39,8.17-1.13,20.07a65.91,65.91,0,0,1-7.4,20.06,41.8,41.8,0,0,1-3.62,5.16l-4.76-8.16h-27.92l10.63,19.58c-.7,0-1.42.06-2.14.06Q1033.39,121.88,1028.18,117.65Z" style="fill:#06f"/><path d="M1167.26,19l-71.81,132.35h38.77l13-25.33h43.65l2.26,25.33h38.77L1216.38,19Zm-6.18,80.14,22.48-43.69h1l3.9,43.69Z" style="fill:#06f"/><path d="M1365.84,49.67a40.69,40.69,0,0,0-18.17-22.75Q1334.46,19,1314,19h-50.41L1235.5,151.35h50.92a83.68,83.68,0,0,0,36.65-7.91,75.24,75.24,0,0,0,27.71-22.75q11.23-14.84,15.63-35.51T1365.84,49.67Zm-35.62,35.51Q1327.28,99,1322,106.76a29.23,29.23,0,0,1-12.92,10.92,45,45,0,0,1-17.45,3.17h-13.7l15.17-71.35h12.66q10.35,0,16.81,3.17t8.54,10.92Q1333.16,71.35,1330.22,85.18Z" style="fill:#06f"/><polygon points="1322.36 294.69 361.05 294.69 382.91 193.01 1344.22 193.01 1322.36 294.69" style="fill:#00192a"/><path d="M470.58,231.75a8,8,0,0,0-2.5-7.32q-3-2.72-8.49-2.71a18.46,18.46,0,0,0-7,1.31,15,15,0,0,0-5.35,3.65,11.08,11.08,0,0,0-2.77,5.28,6.85,6.85,0,0,0,.13,3.82,6.57,6.57,0,0,0,1.94,2.81,13.34,13.34,0,0,0,3.12,2,25.65,25.65,0,0,0,3.65,1.4l5.45,1.67a33.71,33.71,0,0,1,4.88,1.86,16.59,16.59,0,0,1,4.22,2.83,9.8,9.8,0,0,1,2.64,4.17,11.34,11.34,0,0,1,.07,5.91,17.48,17.48,0,0,1-4,7.93,21.19,21.19,0,0,1-7.74,5.58A26.54,26.54,0,0,1,448.13,274a20.92,20.92,0,0,1-9.36-1.86,11.6,11.6,0,0,1-5.41-5.18,12.66,12.66,0,0,1-1-7.66h5.16a8.16,8.16,0,0,0,1,5.51,8.75,8.75,0,0,0,4.16,3.43,16.55,16.55,0,0,0,6.48,1.17,20.44,20.44,0,0,0,7.62-1.39,16.13,16.13,0,0,0,5.88-3.87,11.74,11.74,0,0,0,3.07-5.8,6.61,6.61,0,0,0-.45-4.69,8.26,8.26,0,0,0-3.37-3.18,28.59,28.59,0,0,0-5.52-2.29l-6.18-1.94q-6.07-1.94-8.92-5.35t-1.73-8.71a16.44,16.44,0,0,1,4-7.81,21.63,21.63,0,0,1,7.58-5.28,24.3,24.3,0,0,1,9.56-1.89,18.45,18.45,0,0,1,8.69,1.88,11.68,11.68,0,0,1,5.18,5.18,11.91,11.91,0,0,1,.89,7.49Z" style="fill:#fff"/><path d="M571.78,222.5l1-4.52h39.94l-1,4.52H594.26l-10.74,50.55h-5l10.74-50.55Z" style="fill:#fff"/><path d="M745.49,218h5l-7.75,36.47a23.42,23.42,0,0,1-4.77,10,25.37,25.37,0,0,1-8.81,7A25.75,25.75,0,0,1,717.75,274a19.49,19.49,0,0,1-10.35-2.55,13.77,13.77,0,0,1-5.86-7,17.42,17.42,0,0,1-.5-10L708.79,218h5l-7.68,36.12a14.15,14.15,0,0,0,.3,7.81,10.32,10.32,0,0,0,4.38,5.39,14.74,14.74,0,0,0,7.94,2,19.64,19.64,0,0,0,8.78-2,18.91,18.91,0,0,0,10.28-13.2Z" style="fill:#fff"/><path d="M854.4,273.05H838.26L850,218h17.1q7.88,0,12.79,3.28a16,16,0,0,1,6.59,9.41q1.68,6.14-.14,14.71a39.89,39.89,0,0,1-6.21,14.86,29.51,29.51,0,0,1-10.9,9.51A32.3,32.3,0,0,1,854.4,273.05Zm-10.15-4.51h10.81a26.61,26.61,0,0,0,12.48-2.8,23.79,23.79,0,0,0,8.88-8,34.74,34.74,0,0,0,5-12.37,28.13,28.13,0,0,0,.26-12.26,12.86,12.86,0,0,0-5.21-7.88q-4-2.75-10.67-2.74H854Z" style="fill:#fff"/><path d="M994.14,218l-11.71,55.07h-5L989.11,218Z" style="fill:#fff"/><path d="M1132.88,245.52a40.73,40.73,0,0,1-6.25,15,32.2,32.2,0,0,1-10.52,9.84,25.89,25.89,0,0,1-13.07,3.49,18.67,18.67,0,0,1-11.59-3.49,17.57,17.57,0,0,1-6.33-9.84q-1.69-6.36.13-15a40.87,40.87,0,0,1,6.24-15,32,32,0,0,1,10.52-9.84,26,26,0,0,1,13.06-3.48,18.75,18.75,0,0,1,11.59,3.48,17.63,17.63,0,0,1,6.34,9.84Q1134.71,236.91,1132.88,245.52Zm-4.9,0q1.57-7.4.23-12.68a14.08,14.08,0,0,0-5-8.08,14.58,14.58,0,0,0-9.11-2.8,20.31,20.31,0,0,0-10.28,2.8,26,26,0,0,0-8.47,8.06,35.13,35.13,0,0,0-5.19,12.7q-1.57,7.39-.22,12.66a14.15,14.15,0,0,0,5,8.08,14.5,14.5,0,0,0,9.11,2.81,20.45,20.45,0,0,0,10.31-2.79,25.89,25.89,0,0,0,8.48-8.08A35,35,0,0,0,1128,245.52Z" style="fill:#fff"/><path d="M1262.68,231.75a8,8,0,0,0-2.5-7.32q-3-2.72-8.49-2.71a18.46,18.46,0,0,0-7,1.31,14.92,14.92,0,0,0-5.35,3.65,11.1,11.1,0,0,0-2.78,5.28,7,7,0,0,0,.13,3.82,6.68,6.68,0,0,0,1.95,2.81,13.34,13.34,0,0,0,3.12,2,25.53,25.53,0,0,0,3.64,1.4l5.46,1.67a33.16,33.16,0,0,1,4.87,1.86,16.47,16.47,0,0,1,4.23,2.83,9.8,9.8,0,0,1,2.64,4.17,11.45,11.45,0,0,1,.07,5.91,17.58,17.58,0,0,1-4,7.93,21.14,21.14,0,0,1-7.75,5.58,26.46,26.46,0,0,1-10.68,2.05,21,21,0,0,1-9.37-1.86,11.62,11.62,0,0,1-5.4-5.18,12.66,12.66,0,0,1-1-7.66h5.17a8.16,8.16,0,0,0,1,5.51,8.75,8.75,0,0,0,4.16,3.43,16.51,16.51,0,0,0,6.48,1.17,20.44,20.44,0,0,0,7.62-1.39,16.13,16.13,0,0,0,5.88-3.87,11.82,11.82,0,0,0,3.07-5.8,6.61,6.61,0,0,0-.45-4.69,8.32,8.32,0,0,0-3.37-3.18,28.43,28.43,0,0,0-5.53-2.29l-6.17-1.94q-6.08-1.94-8.92-5.35t-1.73-8.71a16.44,16.44,0,0,1,4-7.81,21.63,21.63,0,0,1,7.58-5.28,24.3,24.3,0,0,1,9.56-1.89,18.45,18.45,0,0,1,8.69,1.88,11.66,11.66,0,0,1,5.17,5.18,11.85,11.85,0,0,1,.9,7.49Z" style="fill:#fff"/><polygon points="261.3 119.1 186.85 119.1 199.51 59.55 125.07 59.55 112.42 119.1 99.76 178.66 174.2 178.66 161.54 238.21 235.98 238.21 248.64 178.66 261.3 119.1" style="fill:#06f"/><polygon points="286.61 0 212.17 0 137.73 0 63.29 0 50.63 59.55 37.98 119.1 25.32 178.66 12.66 238.21 0 297.76 74.44 297.76 148.88 297.76 223.32 297.76 235.98 238.21 161.54 238.21 174.2 178.66 99.76 178.66 112.42 119.1 125.07 59.55 199.51 59.55 186.85 119.1 261.3 119.1 248.64 178.66 235.98 238.21 310.42 238.21 323.08 178.66 335.74 119.1 348.39 59.55 361.05 0 286.61 0" style="fill:#06f"/><polyline points="235.98 238.21 248.64 178.66 261.3 119.1 186.85 119.1 199.51 59.55 125.07 59.55 112.42 119.1 99.76 178.66 174.2 178.66 161.54 238.21 235.98 238.21" style="fill:#fff"/><polygon points="235.98 238.21 310.42 238.21 297.76 297.76 223.32 297.76 235.98 238.21" style="fill:none"/></svg>