<?xml version="1.0" encoding="utf-8"?>
<!-- Generator: Adobe Illustrator 26.0.3, SVG Export Plug-In . SVG Version: 6.00 Build 0)  -->
<svg version="1.0" id="katman_1" xmlns="http://www.w3.org/2000/svg" xmlns:xlink="http://www.w3.org/1999/xlink" x="0px" y="0px"
	 viewBox="0 0 600 450" style="enable-background:new 0 0 600 450;" xml:space="preserve">
<style type="text/css">
	.st0{fill:#173D6C;}
</style>
<g>
	<path class="st0" d="M370.7,254h-8.4v2.5h24.9V254h-6.5v-43.2c-1.9,2.2-5.3,2.2-8.7,2.2h-8.4v2.5h7.2V254z"/>
	<path class="st0" d="M214.6,254h-8.4v2.5h24.9V254h-6.5v-43.2c-1.9,2.2-5.3,2.2-8.7,2.2h-8.1v2.5h6.5L214.6,254z"/>
	<path class="st0" d="M399.4,254h-8.1v2.5h25.2V254h-7.2v-38.3H427V254h-6.5v2.5h24.6V254h-7.8v-43.2c-2.2,2.2-5.6,2.2-9,2.2h-18.7
		v-14.3c0-9.6,3.4-17.4,14.6-17.4c4.4,0,7.5,1.9,7.5,3.7c0,1.2-0.9,1.6-1.9,2.2c-1.6,0.6-2.5,2.2-2.5,4c0,2.8,2.5,4.7,5,4.7
		c3.4,0,5.9-2.8,5.9-6.5c0-4.7-4.7-10.6-14.6-10.6c-17.4,0-23.6,14-23.6,27.4v6.8h-9v2.5h9V254"/>
	<path class="st0" d="M137.4,224.7c10.6,2.2,15.6,8.7,15.6,15.9c0,8.1-6.5,14.6-16.5,14.6s-19.9-8.1-21.5-24.9h-2.8v26.8h2.8
		c0.3-1.9,0.9-3.1,3.1-3.1c4,0,8.4,4,18.4,4c14.9,0,23-9,23-23c0-10.9-5.3-19-19.6-22.4l-5.6-1.2c-12.8-2.8-16.5-8.7-16.5-14.6
		c0-8.1,6.2-13.7,14-13.7c11.8,0,19,9.6,20.5,21.5h3.1v-22.1h-2.8c-0.3,1.2-0.9,2.8-3.1,2.8c-3.7,0-6.5-5.3-17.7-5.3
		s-19.9,8.1-19.9,20.2c0,13.1,6.5,19.6,19.9,23L137.4,224.7z"/>
	<path class="st0" d="M337.1,248.4c0,7.2,5,10,11.5,10c7.8,0,10.6-4.4,11.8-7.2l-1.9-1.2c-1.2,2.2-3.4,5-6.8,5
		c-2.8,0-4.7-1.2-4.7-5.6v-33.6h11.5v-2.5h-11.5v-13.1h-2.2c-1.9,10.3-6.5,13.1-16.2,13.1v2.5h8.4V248.4z"/>
	<path class="st0" d="M305.7,254h7.5v-32c0-5-2.8-7.2-6.2-7.2c-6.5,0-11.2,6.2-13.4,9.3v30.2h7.5v2.2h-25.2V254h7.8v-38.3h-7.8v-2.5
		h8.1c5,0,7.5,0,9-2.2v8.7h0.3c2.2-2.5,7.2-8.7,15.9-8.7c9.3,0,14,5.9,14,13.4v29.9h7.8v2.2H306L305.7,254z"/>
	<path class="st0" d="M200.6,242.2c-0.9,5.6-5.6,12.4-13.4,12.4c-7.5,0-11.2-4.4-11.2-14.3v-10c0-9.6,3.4-16.5,11.5-16.5
		c4.7,0,7.5,2.5,7.5,4.4c0,0.9-0.6,1.6-1.2,2.2c-0.9,0.9-1.2,1.9-1.2,3.1c0,2.5,2.2,4.4,4.7,4.4h0.3c2.8,0,5.3-2.2,5.3-5.9
		c0-5.3-6.2-10.9-15.9-10.9c-12.1,0-21.8,9.3-21.8,23.6c0,12.8,6.5,23.3,20.8,23.3c9.6,0,15.9-7.8,17.1-16.2h-2.5"/>
	<path class="st0" d="M479.9,242.2c-0.9,5.6-5.6,12.4-13.4,12.4c-7.5,0-11.2-4.4-11.2-14.3v-10c0-9.6,3.4-16.5,11.5-16.5
		c4.7,0,7.5,2.5,7.5,4.4c0,0.9-0.6,1.6-1.2,2.2c-0.6,0.9-1.2,1.9-1.2,3.1c0,2.2,1.9,4.4,4.7,4.4s5.3-2.2,5.3-5.9
		c0-5.3-6.2-10.9-15.9-10.9c-12.1,0-21.8,9.3-21.8,23.6c0,12.8,6.5,23.3,20.8,23.3c9.6,0,15.9-7.8,17.1-16.2L479.9,242.2z"/>
	<path class="st0" d="M269.3,241.9c-1.2,6.2-5.9,12.8-13.1,12.8c-7.2,0-11.2-4.7-11.2-13.4V231h26.8c0.6,0,0.9-0.3,0.9-0.6V230
		c0-0.6,0-0.9,0-1.6c0-6.5-5.9-17.1-19-17.1c-11.5,0-19.6,11.2-19.6,23.3c0,14.6,8.7,23.3,20.2,23.3c9,0,15.9-6.5,17.7-16.2H269.3z
		 M263.4,227.5c0,0.3-0.3,0.6-0.6,0.6H246v-3.4c0-6.8,3.4-11.2,8.7-11.2c5.3,0,8.7,4,8.7,11.2L263.4,227.5z"/>
	<path class="st0" d="M177.2,134.8h2.8c10,0,15.2,5.6,15.2,12.8c0,10-6.8,13.4-14.9,13.4h-3.1L177.2,134.8z M167.3,193.3h-6.8v2.5
		h27.4c9.3,0,20.5-5.3,20.5-17.7c0-10-8.7-15.2-17.4-15.6v-0.6c7.5-0.6,14.6-5.3,14.6-15.2c0-8.4-7.2-14.3-20.2-14.3h-24.9v2.2h6.8
		L167.3,193.3z M177.2,163.2h4.7c10,0,15.6,6.5,15.6,14.9c0,9-5.3,15.6-14.6,15.6h-5.6V163.2z"/>
	<path class="st0" d="M212.4,176.8c0,11.2,7.8,20.5,19.3,20.5S251,188,251,176.8s-7.8-20.5-19.3-20.5S212.4,165.3,212.4,176.8z
		 M241,179c0,7.8-0.9,15.6-9.6,15.6s-9.6-7.8-9.6-15.6v-4.7c0-7.8,0.6-15.6,9.6-15.6s9.6,7.8,9.6,15.6V179z"/>
	<path class="st0" d="M310.7,176.8c0,11.2,7.8,20.5,19.3,20.5c11.2,0,19.3-9.3,19.3-20.5s-7.8-20.5-19.3-20.5
		S310.7,165.6,310.7,176.8z M339,179c0,7.8-0.9,15.6-9.6,15.6c-8.7,0-9.6-7.8-9.6-15.6v-4.7c0-7.8,0.6-15.6,9.6-15.6
		c9,0,9.6,7.8,9.6,15.6V179z"/>
	<path class="st0" d="M376,193.3h5.3v-27.1c0-4.7-2.8-6.2-5.9-6.2c-4,0-8.4,4-10.3,8.1v25.2h6.5v2.5h-23v-2.5h7.2v-33h-7.2v-2.5h6.8
		c4,0,7.5,0,9-1.9v7.2h0.3c3.4-4.4,8.4-7.5,14-7.5c8.7,0,11.8,6.2,11.8,11.5v26.1h5.3v2.5H376L376,193.3z"/>
	<path class="st0" d="M269,180.3c5.3,0.6,7.5,3.7,7.5,7.2c0,4.7-3.7,7.2-8.1,7.2c-8.1,0-11.2-7.2-11.5-11.8h-2.2l0.3,14h1.9
		c0.3-1.6,0.6-1.9,1.6-1.9c1.9,0,4,2.5,10,2.5c8.7,0,13.7-5.3,13.7-13.4c0-5.9-3.4-10.9-10.6-12.1l-4.4-0.6
		c-5.9-0.9-7.8-2.8-7.8-6.2c0-3.4,2.8-6.2,7.8-6.2c5.6,0,8.7,3.4,10,9h1.9l-0.3-11.2h-1.9c0,0.9-0.6,1.6-1.2,1.6
		c-1.6,0-3.7-2.2-8.7-2.2c-6.8,0-11.8,4.7-11.8,11.5c0,8.4,5.6,11.5,11.5,12.4L269,180.3z"/>
	<path class="st0" d="M309.5,189.9c-0.9,1.6-2.8,3.7-5.6,3.7c-2.5,0-4.7-0.9-4.7-4.7v-28.6h10.3v-2.5h-10.3v-13.1h-1.9
		c-1.6,9-6.5,13.1-14,13.1v2.5h6.5V189c0,6.2,4.4,8.7,10.6,8.7c5.6,0,8.7-2.8,10.3-5.3L309.5,189.9z"/>
	<path class="st0" d="M95.1,300l-4.7,10h-3.7c4-7.8,8.4-15.9,12.1-23.6h4c2.8,7.8,5.6,15.9,8.7,23.6h-3.7c-0.9-3.4-2.2-6.5-3.4-10
		H95.1z M103.8,297.9l-3.1-9l-4.7,9H103.8z"/>
	<path class="st0" d="M126.5,306.6c-1.2,2.5-4,4-6.8,4c-4.4,0-7.5-2.8-7.5-8.1c0-5.3,3.4-10.3,10.6-10.3c1.2,0,2.5,0,3.7,0.3
		c0-2.2,0-3.7,0-5.9h3.1c-0.6,7.8-0.6,15.9-0.9,23.6h-3.1L126.5,306.6z M122.8,294.1c-5.6,0-7.5,4.7-7.5,7.8c0,3.1,1.9,5.9,5.3,5.9
		c3.1,0,5-2.5,5.6-5.3c0.6-2.8,0.3-5.6,0.6-8.4C125.6,294.4,124.4,294.1,122.8,294.1z"/>
	<path class="st0" d="M150.5,292.6c-2.8,5.9-5.3,11.5-7.8,17.7h-3.4l-6.2-17.7h3.4l5,14.9l6.2-14.9H150.5z"/>
	<path class="st0" d="M162.6,310c0.3-2.8,0.6-6.8,0.6-10.3c-2.2,2.2-10,1.9-10,5.9c0,2.2,2.2,2.8,4,2.8c1.2,0,2.5-0.3,3.7-0.6
		l-0.6,2.2c-1.2,0.3-2.2,0.3-3.4,0.3c-2.5,0-6.5-0.6-6.5-4.7c0-7.5,12.8-4.7,12.8-9.3c0-2.2-2.5-2.5-4-2.5c-2.2,0-4.4,0.6-6.5,1.2
		l0.3-2.2c2.2-0.6,4.4-0.9,6.5-0.9c5.9,0,6.8,2.2,6.8,4.7s-0.6,9.6-0.6,13.4L162.6,310z"/>
	<path class="st0" d="M174.4,295.7c1.6-2.8,4-3.7,7.2-3.7c3.7,0,6.5,1.2,6.5,5.6c0,1.2-0.6,9.6-0.6,12.4h-3.1
		c0-2.2,0.6-8.4,0.6-11.5c0-3.1-1.9-4.4-4.7-4.4c-2.8,0-5.3,1.9-5.9,4.7c-0.6,3.1-0.6,9-0.6,10.9h-3.1c0.3-5.9,0.9-11.8,0.9-17.7
		h3.1L174.4,295.7z"/>
	<path class="st0" d="M205.2,295.1c-1.6-0.6-3.4-0.9-5-0.9c-4,0-5.9,3.4-5.9,7.5c0,4,2.2,6.5,6.2,6.5c1.6,0,2.8-0.3,4-0.6l-0.3,2.5
		c-1.6,0.3-3.1,0.6-4.7,0.6c-5.6,0-8.7-3.1-8.7-8.7c0-5.6,2.8-9.6,9-9.6c1.6,0,3.4,0.3,4.7,0.6L205.2,295.1z"/>
	<path class="st0" d="M212.4,292.6c-0.3,5.9-0.6,11.8-0.6,17.7h-3.4c0.6-5.9,0.6-11.8,0.6-17.7H212.4z M209,288.8v-2.5h3.4v2.5H209z
		"/>
	<path class="st0" d="M220.2,295.7c1.6-2.8,4-3.7,7.2-3.7c3.7,0,6.5,1.2,6.5,5.6c0,1.2-0.6,9.6-0.6,12.4h-3.1
		c0-2.2,0.6-8.4,0.6-11.5c0-3.1-1.9-4.4-4.7-4.4s-5.3,1.9-5.9,4.7c-0.6,3.1-0.6,9-0.6,10.9h-3.1c0.3-5.9,0.9-11.8,0.9-17.7h3.1
		L220.2,295.7z"/>
	<path class="st0" d="M238.5,315c2.2,0.6,4.4,1.2,6.8,1.2c3.1,0,4.7-0.6,5.6-3.4c0.6-1.9,0.6-4.7,0.6-6.5c-1.2,2.8-3.7,4-6.8,4
		c-4.7,0-7.5-2.8-7.5-7.8c0-4.4,1.9-10.6,11.5-10.6c2.2,0,4.4,0.3,6.5,0.6c-0.3,4-0.6,5-0.9,18.4c0,4.4-1.9,7.5-8.4,7.5
		c-2.5,0-4.7-0.3-7.2-0.9L238.5,315z M248.2,294.1c-7.8,0-8.4,6.8-8.4,7.8c0,3.4,1.9,5.9,5.6,5.9c2.8,0,5-1.9,5.6-4.4
		c0.6-2.2,0.6-6.5,0.6-9C250.7,294.4,249.4,294.1,248.2,294.1z"/>
	<path class="st0" d="M269.9,307.2c1.6,0.6,3.4,0.9,5,1.2c1.6,0,3.4-0.3,3.4-2.2c0-3.4-7.5-5.3-7.5-9.6c0-2.5,1.9-4.4,5.9-4.4
		c1.6,0,2.8,0.3,4.4,0.6v2.5c-1.2-0.6-2.8-0.6-4-0.6c-1.6,0-3.4,0.3-3.4,1.9c0,3.4,7.5,5.3,7.5,9.6c0,3.4-3.4,4.4-6.2,4.4
		c-1.9,0-3.4-0.3-5.3-0.6L269.9,307.2z"/>
	<path class="st0" d="M298.6,295.1c-1.6-0.6-3.4-0.9-5-0.9c-4,0-5.9,3.4-5.9,7.5c0,4,2.2,6.5,6.2,6.5c1.6,0,2.8-0.3,4-0.6l-0.3,2.5
		c-1.6,0.3-3.1,0.6-4.7,0.6c-5.6,0-8.7-3.1-8.7-8.7c0-5.6,2.8-9.6,9-9.6c1.6,0,3.4,0.3,4.7,0.6L298.6,295.1z"/>
	<path class="st0" d="M305.4,292.6c-0.3,5.9-0.6,11.8-0.6,17.7h-3.4c0.6-5.9,0.6-11.8,0.6-17.7H305.4z M302.3,288.8v-2.5h3.4v2.5
		H302.3z"/>
	<path class="st0" d="M311.9,301v0.9c0,4,2.5,6.2,6.5,6.2c1.9,0,3.7-0.6,5.3-0.9l-0.6,2.5c-1.9,0.6-3.4,0.6-5.3,0.6
		c-7.5,0-9-4.4-9-8.7c0-5.3,3.1-9.6,8.7-9.6c4.7,0,7.5,2.5,7.5,7.2v1.6L311.9,301z M322.5,299.1c0-2.8-1.2-5-4.7-5
		c-3.4,0-5.3,1.9-5.9,5H322.5z"/>
	<path class="st0" d="M332.2,295.7c1.6-2.8,4-3.7,7.2-3.7c3.7,0,6.5,1.2,6.5,5.6c0,1.2-0.6,9.6-0.6,12.4h-3.1
		c0-2.2,0.6-8.4,0.6-11.5c0-3.1-1.9-4.4-4.7-4.4c-2.8,0-5.3,1.9-5.9,4.7c-0.6,3.1-0.6,9-0.6,10.9h-3.1c0.3-5.9,0.9-11.8,0.9-17.7
		h3.1L332.2,295.7z"/>
	<path class="st0" d="M363,295.1c-1.6-0.6-3.4-0.9-5-0.9c-4,0-5.9,3.4-5.9,7.5c0,4,2.2,6.5,6.2,6.5c1.6,0,2.8-0.3,4-0.6L362,310
		c-1.6,0.3-3.1,0.6-4.7,0.6c-5.6,0-8.7-3.1-8.7-8.7c0-5.6,2.8-9.6,9-9.6c1.6,0,3.4,0.3,4.7,0.6L363,295.1z"/>
	<path class="st0" d="M367.9,301v0.9c0,4,2.5,6.2,6.5,6.2c1.9,0,3.7-0.6,5.3-0.9l-0.6,2.5c-1.9,0.6-3.4,0.6-5.3,0.6
		c-7.5,0-9-4.4-9-8.7c0-5.3,3.1-9.6,8.7-9.6c4.7,0,7.5,2.5,7.5,7.2v1.6L367.9,301z M378.5,299.1c0-2.8-1.2-5-4.7-5
		c-3.1,0-5.3,1.9-5.9,5H378.5z"/>
	<path class="st0" d="M395.3,294.7v-2.2h2.2c0-4,0.3-6.8,5.3-6.8c1.2,0,2.2,0.3,3.4,0.3v2.2c-0.9-0.3-2.2-0.6-3.4-0.6
		c-2.8,0-2.8,2.2-2.8,4.7h4.7l-0.3,2.2h-4.7c0,6.5-0.3,10-0.3,15.6h-3.1c0.3-5,0.6-10.3,0.6-15.6L395.3,294.7z"/>
	<path class="st0" d="M423.6,300.7c0,4.7-2.2,9.6-9.3,9.6c-5.3,0-8.7-3.4-8.7-8.7c0-5.9,3.4-9.6,9.3-9.6
		C420.2,291.9,423.6,295.4,423.6,300.7z M408.4,301.9c0,3.7,1.9,6.5,5.9,6.5c4.7,0,6.2-3.4,6.2-7.5s-1.9-6.2-5.9-6.2
		C410.2,294.1,408.4,297.5,408.4,301.9z"/>
	<path class="st0" d="M429.8,295.4c0.9-2.2,3.1-3.4,5.3-3.1c0.6,0,0.9,0,1.2,0.3v2.5c-0.6-0.3-1.2-0.3-1.9-0.3c-2.8,0-4.4,2.2-4.7,5
		c-0.3,3.4-0.6,7.2-0.3,10.6h-3.1c0.3-5,0.6-10.3,0.6-17.7h3.1L429.8,295.4z"/>
	<path class="st0" d="M455,286.3c-0.6,7.8-0.6,15.9-0.9,23.6H451c0.6-7.8,0.9-15.9,0.9-23.6H455z"/>
	<path class="st0" d="M462.8,292.6c-0.3,5.9-0.6,11.8-0.6,17.7h-3.4c0.6-5.9,0.6-11.8,0.6-17.7H462.8z M459.7,288.8v-2.5h3.4v2.5
		H459.7z"/>
	<path class="st0" d="M466.2,294.7v-2.2h2.2c0-4,0.3-6.8,5.3-6.8c1.2,0,2.2,0.3,3.4,0.3l0.3,2.2c-0.9-0.3-2.2-0.6-3.4-0.6
		c-2.8,0-2.8,2.2-2.8,4.7h4.7v2.2h-4.7c0,6.5-0.3,10-0.3,15.6h-3.1c0.3-5,0.6-10.3,0.6-15.6L466.2,294.7z"/>
	<path class="st0" d="M480.2,301v0.9c0,4,2.5,6.2,6.5,6.2c1.9,0,3.7-0.6,5.3-0.9l-0.6,2.5c-1.9,0.6-3.4,0.6-5.3,0.6
		c-7.5,0-9-4.4-9-8.7c0-5.3,3.1-9.6,8.7-9.6c4.7,0,7.5,2.5,7.5,7.2v1.6L480.2,301z M490.8,299.1c0-2.8-1.2-5-4.7-5
		c-3.1,0-5.3,1.9-5.9,5H490.8z"/>
	<path class="st0" d="M498.3,294.4c0-2.5,0.3-5,0.3-7.5c-0.9,0-1.9,0-2.8,0v-1.2h6.8v1.2c-0.9,0-1.9,0-2.8,0c0,2.5-0.3,5-0.3,7.5
		H498.3z M512.3,294.4c0-2.2,0-4.7,0-7.2c-0.9,2.2-1.9,4.7-2.8,7.2h-1.9c-0.6-2.2-1.2-4.7-1.9-7.2c-0.3,2.2-0.3,4.7-0.6,7.2h-1.6
		c0.3-2.8,0.3-5.6,0.6-8.4h2.5c0.6,2.2,1.2,4.7,1.9,6.8c0.9-2.2,1.9-4.7,2.8-6.8h2.2v8.4H512.3z"/>
</g>
</svg>
