<svg enable-background="new 0 0 137.5 59.9" viewBox="0 0 137.5 59.9" width="137" height="60" xmlns="http://www.w3.org/2000/svg"><g fill="#003c71"><path d="m91.3 39.2h-2.7v.8h8v-.8h-2.1v-13.9c-.6.7-1.7.7-2.8.7h-2.7v.8h2.3z"/><path d="m41.1 39.2h-2.7v.8h8v-.8h-2.1v-13.9c-.6.7-1.7.7-2.8.7h-2.6v.8h2.1z"/><path d="m100.5 39.2h-2.6v.8h8.1v-.8h-2.3v-12.3h5.7v12.3h-2.1v.8h7.9v-.8h-2.5v-13.9c-.7.7-1.8.7-2.9.7h-6v-4.6c0-3.1 1.1-5.6 4.7-5.6 1.4 0 2.4.6 2.4 1.2 0 .4-.3.5-.6.7-.5.2-.8.7-.8 1.3 0 .9.8 1.5 1.6 1.5 1.1 0 1.9-.9 1.9-2.1 0-1.5-1.5-3.4-4.7-3.4-5.6 0-7.6 4.5-7.6 8.8v2.2h-2.9v.8h2.9v12.4"/><path d="m16.3 29.8c3.4.7 5 2.8 5 5.1 0 2.6-2.1 4.7-5.3 4.7s-6.4-2.6-6.9-8h-.9v8.6h.9c.1-.6.3-1 1-1 1.3 0 2.7 1.3 5.9 1.3 4.8 0 7.4-2.9 7.4-7.4 0-3.5-1.7-6.1-6.3-7.2l-1.8-.4c-4.1-.9-5.3-2.8-5.3-4.7 0-2.6 2-4.4 4.5-4.4 3.8 0 6.1 3.1 6.6 6.9h1v-7.1h-.9c-.1.4-.3.9-1 .9-1.2 0-2.1-1.7-5.7-1.7s-6.4 2.6-6.4 6.5c0 4.2 2.1 6.3 6.4 7.4z"/><path d="m80.5 37.4c0 2.3 1.6 3.2 3.7 3.2 2.5 0 3.4-1.4 3.8-2.3l-.6-.4c-.4.7-1.1 1.6-2.2 1.6-.9 0-1.5-.4-1.5-1.8v-10.8h3.7v-.8h-3.7v-4.2h-.7c-.6 3.3-2.1 4.2-5.2 4.2v.8h2.7z"/><path d="m70.4 39.2h2.4v-10.3c0-1.6-.9-2.3-2-2.3-2.1 0-3.6 2-4.3 3v9.7h2.4v.7h-8.1v-.8h2.5v-12.3h-2.5v-.8h2.6c1.6 0 2.4 0 2.9-.7v2.8h.1c.7-.8 2.3-2.8 5.1-2.8 3 0 4.5 1.9 4.5 4.3v9.6h2.5v.7h-8z"/><path d="m36.6 35.4c-.3 1.8-1.8 4-4.3 4-2.4 0-3.6-1.4-3.6-4.6v-3.2c0-3.1 1.1-5.3 3.7-5.3 1.5 0 2.4.8 2.4 1.4 0 .3-.2.5-.4.7-.3.3-.4.6-.4 1 0 .8.7 1.4 1.5 1.4h.1c.9 0 1.7-.7 1.7-1.9 0-1.7-2-3.5-5.1-3.5-3.9 0-7 3-7 7.6 0 4.1 2.1 7.5 6.7 7.5 3.1 0 5.1-2.5 5.5-5.2h-.8"/><path d="m126.4 35.4c-.3 1.8-1.8 4-4.3 4-2.4 0-3.6-1.4-3.6-4.6v-3.2c0-3.1 1.1-5.3 3.7-5.3 1.5 0 2.4.8 2.4 1.4 0 .3-.2.5-.4.7-.2.3-.4.6-.4 1 0 .7.6 1.4 1.5 1.4s1.7-.7 1.7-1.9c0-1.7-2-3.5-5.1-3.5-3.9 0-7 3-7 7.6 0 4.1 2.1 7.5 6.7 7.5 3.1 0 5.1-2.5 5.5-5.2z"/><path d="m58.7 35.3c-.4 2-1.9 4.1-4.2 4.1s-3.6-1.5-3.6-4.3v-3.3h8.6c.2 0 .3-.1.3-.2v-.1c0-.2 0-.3 0-.5 0-2.1-1.9-5.5-6.1-5.5-3.7 0-6.3 3.6-6.3 7.5 0 4.7 2.8 7.5 6.5 7.5 2.9 0 5.1-2.1 5.7-5.2zm-1.9-4.6c0 .1-.1.2-.2.2h-5.4v-1.1c0-2.2 1.1-3.6 2.8-3.6s2.8 1.3 2.8 3.6z"/><path d="m29.1.9h.9c3.2 0 4.9 1.8 4.9 4.1 0 3.2-2.2 4.3-4.8 4.3h-1zm-3.2 18.8h-2.2v.8h8.8c3 0 6.6-1.7 6.6-5.7 0-3.2-2.8-4.9-5.6-5v-.2c2.4-.2 4.7-1.7 4.7-4.9 0-2.7-2.3-4.6-6.5-4.6h-8v.7h2.2zm3.2-9.7h1.5c3.2 0 5 2.1 5 4.8 0 2.9-1.7 5-4.7 5h-1.8z"/><path d="m40.4 14.4c0 3.6 2.5 6.6 6.2 6.6s6.2-3 6.2-6.6-2.5-6.6-6.2-6.6-6.2 2.9-6.2 6.6zm9.2.7c0 2.5-.3 5-3.1 5s-3.1-2.5-3.1-5v-1.5c0-2.5.2-5 3.1-5s3.1 2.5 3.1 5z"/><path d="m72 14.4c0 3.6 2.5 6.6 6.2 6.6 3.6 0 6.2-3 6.2-6.6s-2.5-6.6-6.2-6.6-6.2 3-6.2 6.6zm9.1.7c0 2.5-.3 5-3.1 5s-3.1-2.5-3.1-5v-1.5c0-2.5.2-5 3.1-5s3.1 2.5 3.1 5z"/><path d="m93 19.7h1.7v-8.7c0-1.5-.9-2-1.9-2-1.3 0-2.7 1.3-3.3 2.6v8.1h2.1v.8h-7.4v-.8h2.3v-10.6h-2.3v-.8h2.2c1.3 0 2.4 0 2.9-.6v2.3h.1c1.1-1.4 2.7-2.4 4.5-2.4 2.8 0 3.8 2 3.8 3.7v8.4h1.7v.8h-6.4z"/><path d="m58.6 15.5c1.7.2 2.4 1.2 2.4 2.3 0 1.5-1.2 2.3-2.6 2.3-2.6 0-3.6-2.3-3.7-3.8h-.7l.1 4.5h.6c.1-.5.2-.6.5-.6.6 0 1.3.8 3.2.8 2.8 0 4.4-1.7 4.4-4.3 0-1.9-1.1-3.5-3.4-3.9l-1.4-.2c-1.9-.3-2.5-.9-2.5-2s.9-2 2.5-2c1.8 0 2.8 1.1 3.2 2.9h.6l-.1-3.6h-.6c0 .3-.2.5-.4.5-.5 0-1.2-.7-2.8-.7-2.2 0-3.8 1.5-3.8 3.7 0 2.7 1.8 3.7 3.7 4z"/><path d="m71.6 18.6c-.3.5-.9 1.2-1.8 1.2-.8 0-1.5-.3-1.5-1.5v-9.2h3.3v-.8h-3.3v-4.2h-.6c-.5 2.9-2.1 4.2-4.5 4.2v.8h2.1v9.2c0 2 1.4 2.8 3.4 2.8 1.8 0 2.8-.9 3.3-1.7z"/><path d="m2.7 54-1.5 3.2h-1.2c1.3-2.5 2.7-5.1 3.9-7.6h1.3c.9 2.5 1.8 5.1 2.8 7.6h-1.2c-.3-1.1-.7-2.1-1.1-3.2zm2.8-.7-1-2.9-1.5 2.9z"/><path d="m12.8 56.1c-.4.8-1.3 1.3-2.2 1.3-1.4 0-2.4-.9-2.4-2.6s1.1-3.3 3.4-3.3c.4 0 .8 0 1.2.1 0-.7 0-1.2 0-1.9h1c-.2 2.5-.2 5.1-.3 7.6h-1zm-1.2-4c-1.8 0-2.4 1.5-2.4 2.5s.6 1.9 1.7 1.9c1 0 1.6-.8 1.8-1.7s.1-1.8.2-2.7c-.4.1-.8 0-1.3 0z"/><path d="m20.5 51.6c-.9 1.9-1.7 3.7-2.5 5.7h-1.1l-2-5.7h1.1l1.6 4.8 2-4.8z"/><path d="m24.4 57.2c.1-.9.2-2.2.2-3.3-.7.7-3.2.6-3.2 1.9 0 .7.7.9 1.3.9.4 0 .8-.1 1.2-.2l-.2.7c-.4.1-.7.1-1.1.1-.8 0-2.1-.2-2.1-1.5 0-2.4 4.1-1.5 4.1-3 0-.7-.8-.8-1.3-.8-.7 0-1.4.2-2.1.4l.1-.7c.7-.2 1.4-.3 2.1-.3 1.9 0 2.2.7 2.2 1.5s-.2 3.1-.2 4.3z"/><path d="m28.2 52.6c.5-.9 1.3-1.2 2.3-1.2 1.2 0 2.1.4 2.1 1.8 0 .4-.2 3.1-.2 4h-1c0-.7.2-2.7.2-3.7s-.6-1.4-1.5-1.4-1.7.6-1.9 1.5c-.2 1-.2 2.9-.2 3.5h-1c.1-1.9.3-3.8.3-5.7h1z"/><path d="m38.1 52.4c-.5-.2-1.1-.3-1.6-.3-1.3 0-1.9 1.1-1.9 2.4s.7 2.1 2 2.1c.5 0 .9-.1 1.3-.2l-.1.8c-.5.1-1 .2-1.5.2-1.8 0-2.8-1-2.8-2.8s.9-3.1 2.9-3.1c.5 0 1.1.1 1.5.2z"/><path d="m40.4 51.6c-.1 1.9-.2 3.8-.2 5.7h-1.1c.2-1.9.2-3.8.2-5.7zm-1.1-1.2v-.8h1.1v.8z"/><path d="m42.9 52.6c.5-.9 1.3-1.2 2.3-1.2 1.2 0 2.1.4 2.1 1.8 0 .4-.2 3.1-.2 4h-1c0-.7.2-2.7.2-3.7s-.6-1.4-1.5-1.4-1.7.6-1.9 1.5c-.2 1-.2 2.9-.2 3.5h-1c.1-1.9.3-3.8.3-5.7h1z"/><path d="m48.8 58.8c.7.2 1.4.4 2.2.4 1 0 1.5-.2 1.8-1.1.2-.6.2-1.5.2-2.1-.4.9-1.2 1.3-2.2 1.3-1.5 0-2.4-.9-2.4-2.5 0-1.4.6-3.4 3.7-3.4.7 0 1.4.1 2.1.2-.1 1.3-.2 1.6-.3 5.9 0 1.4-.6 2.4-2.7 2.4-.8 0-1.5-.1-2.3-.3zm3.1-6.7c-2.5 0-2.7 2.2-2.7 2.5 0 1.1.6 1.9 1.8 1.9.9 0 1.6-.6 1.8-1.4.2-.7.2-2.1.2-2.9-.3 0-.7-.1-1.1-.1z"/><path d="m58.9 56.3c.5.2 1.1.3 1.6.4.5 0 1.1-.1 1.1-.7 0-1.1-2.4-1.7-2.4-3.1 0-.8.6-1.4 1.9-1.4.5 0 .9.1 1.4.2v.8c-.4-.2-.9-.2-1.3-.2-.5 0-1.1.1-1.1.6 0 1.1 2.4 1.7 2.4 3.1 0 1.1-1.1 1.4-2 1.4-.6 0-1.1-.1-1.7-.2z"/><path d="m68.1 52.4c-.5-.2-1.1-.3-1.6-.3-1.3 0-1.9 1.1-1.9 2.4s.7 2.1 2 2.1c.5 0 .9-.1 1.3-.2l-.1.8c-.5.1-1 .2-1.5.2-1.8 0-2.8-1-2.8-2.8s.9-3.1 2.9-3.1c.5 0 1.1.1 1.5.2z"/><path d="m70.3 51.6c-.1 1.9-.2 3.8-.2 5.7h-1.1c.2-1.9.2-3.8.2-5.7zm-1-1.2v-.8h1.1v.8z"/><path d="m72.4 54.3v.3c0 1.3.8 2 2.1 2 .6 0 1.2-.2 1.7-.3l-.2.8c-.6.2-1.1.2-1.7.2-2.4 0-2.9-1.4-2.9-2.8 0-1.7 1-3.1 2.8-3.1 1.5 0 2.4.8 2.4 2.3v.5zm3.4-.6c0-.9-.4-1.6-1.5-1.6s-1.7.6-1.9 1.6z"/><path d="m78.9 52.6c.5-.9 1.3-1.2 2.3-1.2 1.2 0 2.1.4 2.1 1.8 0 .4-.2 3.1-.2 4h-1c0-.7.2-2.7.2-3.7s-.6-1.4-1.5-1.4-1.7.6-1.9 1.5c-.2 1-.2 2.9-.2 3.5h-1c.1-1.9.3-3.8.3-5.7h1z"/><path d="m88.8 52.4c-.5-.2-1.1-.3-1.6-.3-1.3 0-1.9 1.1-1.9 2.4s.7 2.1 2 2.1c.5 0 .9-.1 1.3-.2l-.1.8c-.5.1-1 .2-1.5.2-1.8 0-2.8-1-2.8-2.8s.9-3.1 2.9-3.1c.5 0 1.1.1 1.5.2z"/><path d="m90.4 54.3v.3c0 1.3.8 2 2.1 2 .6 0 1.2-.2 1.7-.3l-.2.8c-.6.2-1.1.2-1.7.2-2.4 0-2.9-1.4-2.9-2.8 0-1.7 1-3.1 2.8-3.1 1.5 0 2.4.8 2.4 2.3v.5zm3.4-.6c0-.9-.4-1.6-1.5-1.6-1 0-1.7.6-1.9 1.6z"/><path d="m99.2 52.3v-.7h.7c0-1.3.1-2.2 1.7-2.2.4 0 .7.1 1.1.1v.7c-.3-.1-.7-.2-1.1-.2-.9 0-.9.7-.9 1.5h1.5l-.1.7h-1.5c0 2.1-.1 3.2-.1 5h-1c.1-1.6.2-3.3.2-5z"/><path d="m108.3 54.2c0 1.5-.7 3.1-3 3.1-1.7 0-2.8-1.1-2.8-2.8 0-1.9 1.1-3.1 3-3.1 1.7 0 2.8 1.1 2.8 2.8zm-4.9.4c0 1.2.6 2.1 1.9 2.1 1.5 0 2-1.1 2-2.4s-.6-2-1.9-2c-1.4-.2-2 .9-2 2.3z"/><path d="m110.3 52.5c.3-.7 1-1.1 1.7-1 .2 0 .3 0 .4.1v.8c-.2-.1-.4-.1-.6-.1-.9 0-1.4.7-1.5 1.6-.1 1.1-.2 2.3-.1 3.4h-1c.1-1.6.2-3.3.2-5.7h1z"/><path d="m118.4 49.6c-.2 2.5-.2 5.1-.3 7.6h-1c.2-2.5.3-5.1.3-7.6z"/><path d="m120.9 51.6c-.1 1.9-.2 3.8-.2 5.7h-1.1c.2-1.9.2-3.8.2-5.7zm-1-1.2v-.8h1.1v.8z"/><path d="m122 52.3v-.7h.7c0-1.3.1-2.2 1.7-2.2.4 0 .7.1 1.1.1l.1.7c-.3-.1-.7-.2-1.1-.2-.9 0-.9.7-.9 1.5h1.5v.7h-1.5c0 2.1-.1 3.2-.1 5h-1c.1-1.6.2-3.3.2-5z"/><path d="m126.5 54.3v.3c0 1.3.8 2 2.1 2 .6 0 1.2-.2 1.7-.3l-.2.8c-.6.2-1.1.2-1.7.2-2.4 0-2.9-1.4-2.9-2.8 0-1.7 1-3.1 2.8-3.1 1.5 0 2.4.8 2.4 2.3v.5zm3.4-.6c0-.9-.4-1.6-1.5-1.6-1 0-1.7.6-1.9 1.6z"/><path d="m132.3 52.2c0-.8.1-1.6.1-2.4-.3 0-.6 0-.9 0v-.4h2.2v.4c-.3 0-.6 0-.9 0 0 .8-.1 1.6-.1 2.4zm4.5 0c0-.7 0-1.5 0-2.3-.3.7-.6 1.5-.9 2.3h-.6c-.2-.7-.4-1.5-.6-2.3-.1.7-.1 1.5-.2 2.3h-.5c.1-.9.1-1.8.2-2.7h.8c.2.7.4 1.5.6 2.2.3-.7.6-1.5.9-2.2h.7v2.7z"/></g></svg>