<?xml version="1.0" encoding="UTF-8"?>
<svg version="1.1" viewBox="0 0 1109 364.4" xmlns="http://www.w3.org/2000/svg" xmlns:cc="http://creativecommons.org/ns#" xmlns:dc="http://purl.org/dc/elements/1.1/" xmlns:rdf="http://www.w3.org/1999/02/22-rdf-syntax-ns#">
<title>David Production</title>
<desc>A Japanese animation studio founded in 2007</desc>
 <metadata>
  <rdf:RDF>
   <cc:Work rdf:about="">
    <dc:format>image/svg+xml</dc:format>
    <dc:type rdf:resource="http://purl.org/dc/dcmitype/StillImage"/>
    <dc:title/>
   </cc:Work>
  </rdf:RDF>
 </metadata>
 <g transform="translate(46.94 682.1)">
  <g transform="matrix(.9954 0 0 .994 -5.933 51.38)">
   <path d="m327.8-372.4c-0.3065-0.3066-0.5574-25.34-0.5574-55.62v-55.07h20v6.433l3-1.507c12.21-6.132 24.48-6.199 36.6-0.1997 27.13 13.43 31.49 49.23 8.338 68.47-12.55 10.43-28.62 12.68-42.92 6.02l-4.984-2.321-0.4315 33.9-9.243 0.224c-5.083 0.1232-9.493-0.0268-9.8-0.3333zm50.49-49.34c12.74-7.899 15.96-23.5 7.148-33.79-10.58-12.01-28.96-9.674-36.27 4.615-2.593 5.073-2.704 13.54-0.2423 18.46 5.708 11.4 18.43 16.04 29.36 10.72zm38.55-19.75v-41.6h19.2v2.893c0 3.371 0.4234 3.374 8.4 0.057 2.64-1.098 7.061-2.247 9.825-2.555l5.025-0.5587-0.2253 9.806c-0.2093 9.109-0.3391 9.823-1.825 10.04-9.934 1.419-14.75 4.575-18.92 12.4-1.83 3.431-1.883 4.115-2.121 27.32l-0.2438 23.8h-19.11v-41.6zm83.2 41.08c-11.03-2.221-22.2-9.63-27.87-18.49-3.782-5.91-6.529-15.34-6.529-22.41 0-21 15.11-38.13 36.27-41.11 19.87-2.804 40.73 11.63 45.26 31.33 1.063 4.616 1.066 14.57 0 19.18-3.025 13.13-14.77 25.94-27.15 29.63-5.49 1.635-16.19 2.641-19.98 1.878zm16.09-21.24c13.71-6.591 15.07-25.6 6.174-35.17-7.472-6.529-17.21-7.931-24.84-4.477-9.924 4.543-15.18 17.2-11.3 27.19 4.794 12.35 17.57 17.66 29.97 12.46zm73.91 21.18c-6.39-0.8928-16.47-5.686-21.2-10.08-9.25-8.594-13.73-18.68-13.73-30.94 0-16.67 8.886-30.4 24.36-37.64 10.02-4.687 21.13-4.826 31.88-0.399 2.797 1.152 5.445 2.172 5.885 2.266 0.5253 0.1129 0.8706-17.89 1.006-52.43l0.2057-52.6h19.19v182.4h-19.2v-2.667c0-1.467-0.2238-2.891-0.4974-3.164-0.2736-0.2736-2.296 0.4142-4.495 1.528-6.646 3.368-15.68 4.807-23.41 3.727zm13.69-20.33c4.166-1.067 10.32-6.846 12.58-11.82 3.62-7.955 1.648-18.12-4.708-24.26-9.309-8.167-24.08-7.618-31.42 0.5494-3.897 4.438-5.167 7.565-5.565 13.7-0.4124 6.355 0.9771 10.61 5.033 15.41 5.982 7.078 13.59 9.107 24.08 6.421zm78.71 20.35c-4.901-0.8121-12.66-3.803-16.53-6.374-8.537-5.667-15.64-15.7-17.83-25.2-0.4414-1.914-0.8114-14.19-0.8221-27.28l-0.02-23.8h19.2l0.059 22.2c0.066 24.53 0.067 24.54 2.345 29.01 4.158 8.15 10.89 12.23 20.07 12.18 6.508-0.0396 12.02-2.576 16.19-7.448 5.005-5.847 5.333-7.895 5.333-33.28v-22.66h19.2l-0.019 23.8c-0.011 13.41-0.3794 25.36-0.844 27.38-2.472 10.73-11.48 22.15-21.45 27.18-7.674 3.874-17.35 5.544-24.89 4.295zm90.4 0.0355c-7.543-0.9622-17.44-5.879-23.09-11.47-6.81-6.742-10.34-13.68-12.14-23.82-1.624-9.162 0.8704-20.53 6.207-28.28 4.467-6.487 9.919-11.22 16.62-14.42 16.14-7.713 32.35-5.291 46.68 6.974 1.581 1.353 1.488 1.497-5.183 8.094l-6.792 6.716-4.498-2.986c-3.984-2.645-5.194-3.026-10.59-3.338-7.498-0.434-12.92 1.578-17.29 6.42-4.274 4.73-5.889 8.898-5.91 15.25-0.057 17.53 19.74 27.76 34.32 17.73l3.848-2.647 13.59 13.17-2.156 2.156c-1.186 1.186-2.532 2.156-2.992 2.156-0.4595 0-1.318 0.582-1.909 1.293-1.123 1.354-7.142 4.31-11.92 5.856-3.184 1.03-12.63 1.669-16.8 1.137zm56.61-31.29-0.2092-31.8-13.2-0.4647v-19.07l13.2-0.4647 0.438-27.65 18.76 0.4504 0.4378 27.6h12.76v19.2h-12.8v64h-19.18zm42.59-9.8v-41.6h19.2v83.2h-19.2zm62.4 41.12c-9.846-1.767-17.21-5.468-23.7-11.91-16.23-16.11-16.34-41.86-0.2514-57.99 20.54-20.6 53.81-15.02 66.62 11.18 5.63 9.9 3.964 26.96 0.61 34.21-3.605 7.003-8.346 13.18-14.91 17.82-5.476 3.768-13.04 6.285-20.13 6.696-3.432 0.1992-7.14 0.2007-8.24 3e-3zm13.08-20.52c4.755-1.388 10.53-7.064 12.47-12.26 4.015-10.73 0.2546-21.65-9.414-27.34-7.848-3.765-17.49-2.806-23.04 1.001-5.998 4.127-9.201 9.918-9.345 16.9-0.144 6.966 1.468 11.62 5.471 15.8 6.808 7.105 13.81 8.836 23.86 5.901zm40.53-3.198c0.01-26.67 0.2931-28.84 4.859-37.41 3.953-7.416 10.72-13.75 19.01-17.81 10.18-5.804 26.52-3.961 33.75-0.4353 11.15 5.45 17.6 12.19 22.26 23.24 3.088 9.638 2.265 20.64 2.364 30.82l0.2501 25.8h-19.19l-0.2528-24.2c-0.1066-10.2 0.5792-20.66-2.361-28.45-1.634-4.33-6.026-7.555-11.67-9.751-12.59-3.973-22.2 0.4694-27.59 10.57-1.777 3.328-1.84 4.176-2.076 27.63l-0.2432 24.2h-19.11l0.01-24.2zm-632.5-77.68c-13.74-5.2-23.46-16.08-26.96-30.17-1.62-6.524-1.636-11.64-0.0555-18.35 3.428-14.55 14.8-26.18 29.77-30.46 9.29-2.657 18.58-1.776 28.01 2.656 1.887 0.8868 3.57 1.473 3.741 1.302 0.1704-0.1704 0.4266-7.687 0.5692-16.7l0.2593-16.39 19.6-0.4492v110.4h-9.6c-9.419 0-9.6-0.034-9.612-1.8-0.0243-3.577-0.907-3.714-7.188-1.118-5.277 2.181-7.06 2.505-14.8 2.691-7.602 0.1823-9.472-0.0434-13.74-1.658zm23.21-19.72c15.76-7.936 15.98-30.26 0.3847-38.81-6.863-3.333-14.73-3.139-20.52 0-7.673 4.207-11.34 10.55-11.34 19.62 0 6.086 1.292 9.603 5.257 14.32 5.937 7.056 17.58 9.22 26.22 4.871zm73.82 20.34c-4.686-1.496-12.76-6.291-16.89-10.03-3.008-2.724-7.122-8.643-9.111-13.11-4.968-11.16-4.371-24.88 1.591-36.57 2.3-4.508 10.73-13.1 15.59-15.87 11.41-6.528 25.56-7.28 36.81-1.955 2.32 1.098 4.601 1.996 5.068 1.996s0.8495-1.26 0.8495-2.8v-2.8h19.2v82.4h-19.2v-2.8c0-1.54-0.2754-2.8-0.6119-2.8s-2.947 1.147-5.8 2.549c-4.775 2.346-5.92 2.568-14.39 2.792-6.691 0.1766-10.26-0.0971-13.1-1.004zm31.52-30.25c2.353-4.779 2.56-5.784 2.209-10.68-0.6131-8.541-4.665-14.77-12.23-18.8-4.501-2.399-13.78-2.443-18.8-0.0892-4.341 2.035-8.319 5.86-10.66 10.25-2.631 4.938-2.408 14.59 0.4656 20.15 2.208 4.272 8.181 9.426 12.39 10.69 11.45 2.717 21.82-2.083 26.62-11.52zm65.63 26.54c-1.071-2.762-2.958-7.281-4.195-10.04s-2.249-5.376-2.249-5.811c0-0.435-0.3556-1.416-0.7902-2.18-0.874-1.536-12.01-28.69-12.01-29.29 0-0.2053-2.7-6.864-6-14.8-3.3-7.933-6-14.63-6-14.89s4.388-0.364 9.752-0.2405l9.752 0.2246 1.891 4.8c1.04 2.64 2.374 5.88 2.966 7.2s2.223 5.28 3.627 8.8 3.729 9.1 5.167 12.4c1.438 3.3 4.016 9.686 5.73 14.19s3.508 8.194 3.987 8.2c1.004 0.0115 1.661-1.313 6.34-12.79 1.883-4.62 6.008-14.7 9.167-22.4s6.333-15.53 7.055-17.4l1.312-3.4h19.63l-1.643 4.2c-0.9035 2.31-3.071 7.62-4.818 11.8-1.746 4.18-3.656 8.86-4.244 10.4-0.5884 1.54-2.18 5.5-3.538 8.8-1.358 3.3-4.277 10.5-6.487 16-2.21 5.5-5.942 14.68-8.293 20.4l-4.274 10.4-19.89 0.4449zm129.7 3.735c-5.857-1.659-14.26-6.945-18.82-11.84-2.111-2.265-5.081-6.638-6.601-9.718-11.51-23.33 0.5504-50.36 25.9-58.02 8.045-2.431 17.53-1.998 24.94 1.141 2.86 1.21 5.83 2.395 6.6 2.633 1.303 0.4028 1.4-0.7412 1.4-16.49v-16.92l19.6 0.4492 0.411 110h-20.01v-2.886c0-2.01-0.3034-2.752-1-2.445-10.04 4.423-11.52 4.798-19.8 5.039-5.704 0.1658-9.753-0.1391-12.62-0.9499zm21.07-20.26c7.992-3.781 12.34-10.74 12.34-19.74 0.1412-6.33-2.237-14.43-6.856-18.09-7.238-5.745-18.69-4.831-24.74-1.536-10.46 6.298-14.11 15.64-11.17 26.57 3.87 12.78 17.95 18.71 30.43 12.8z" style="fill:#4d4d4d;stroke-width:.8"/>
   <path d="m89.58-373c-7.93-0.5924-20.08-3.871-26.8-7.233-10.67-5.337-15.99-9.988-49.08-42.88-38.59-38.37-41.86-42.29-47.51-56.89-3.96-10.24-4.913-15.82-4.919-28.8-7e-3 -14.77 1.891-22.89 8.327-35.63 6.907-13.68 22.65-28.69 36.38-34.68 1.76-0.7678 3.92-1.737 4.8-2.154 8.89-4.211 28-6.373 39.02-4.412 2.983 0.5306 5.593 0.7954 5.8 0.5884s0.3883-9.946 0.4028-21.64l0.0264-21.27 9.374-9.652c38.79-39.95 41.34-42.73 43.23-47.39 5.177-12.72 10.23-20.48 19.23-29.53 8.391-8.44 20.35-15.38 33.72-19.55 12.67-1.902 26.88-4.061 40.99-0.0583 8.236 2.374 18.55 7.208 24.32 11.4 2.583 1.877 20.28 18.93 39.33 37.9 36.18 36.02 40.34 40.83 45.11 52.08 3.186 7.524 3.919 9.913 5.847 19.07 0.5701 2.708 0.5719 19.68 2e-3 23.91-0.3774 2.806-1.48 7.235-3.639 14.62-1.449 4.954-6.584 14.67-10.72 20.28-10.62 14.41-26.87 25.19-44.83 29.76-7.868 2.001-21.64 2.569-30.2 1.247l-4.6-0.7101v42.33l-7 7.544c-3.85 4.149-12.6 13.3-19.44 20.34-25.33 26.06-24.71 25.34-27.49 32.23-11.5 28.51-39.17 48.21-69.03 49.15-4.312 0.1345-9.1 0.1505-10.64 0.0354z" style="fill:#d40055;stroke-width:.8"/>
   <path d="m28.9-442.7c-6.231-0.9716-13.64-3.344-19.22-6.154-10.18-5.409-16.81-11.26-22.98-18.97-9.8-12.21-14.46-27.64-13.52-44.77 0.9357-17 7.663-31.2 20.67-43.62 18.06-17.25 44.87-22.63 68.54-13.75 2.542 0.9539 4.75 1.607 4.905 1.451 0.1559-0.1559 0.4823-12.64 0.7254-27.73l0.4419-27.45 35.67-36.58 0.5267 19.13c0.2897 10.52 0.3923 47.22 0.228 81.56-0.2928 61.19-0.3296 62.54-1.851 68.05-6.531 23.64-24.34 41.22-48.15 47.55-5.954 1.583-19.73 2.269-25.98 1.294z" style="fill:#fff;stop-color:#000000;stroke-width:.5918"/>
   <path d="m117.1-521.4c-0.2517-6.94-0.658-40.23-0.9029-73.97-0.5583-76.93-0.3476-79.74 7.081-94.55 6.397-11.29 11.87-19.32 22.13-25.74 12.87-8.126 20.31-10.16 37.62-10.27 18.08-1.21 33.4 6.758 45.1 17.96 8.833 8.597 13.71 16.41 17.25 27.63 9.831 31.19-4.875 64.95-34.49 79.17-11.48 5.512-25.36 7.816-37.18 6.172-5.969-0.8298-16.97-3.886-18.53-5.146-1.068-0.8641-1.721 12.57-1.758 36.16l-0.0289 18.41-35.83 36.78z" style="fill:#fff;stop-color:#000000;stroke-width:.5918"/>
   <ellipse cx="38.3" cy="-509.5" rx="26.98" ry="27.53" style="fill:#d40055;stop-color:#000000;stroke-width:.82"/>
   <ellipse cx="184" cy="-661.4" rx="26.98" ry="27.53" style="fill:#d40055;stop-color:#000000;stroke-width:.82"/>
   <ellipse cx="628.4" cy="-606" rx="18.04" ry="17.72" style="fill:#d40055;stop-color:#000000;stroke-width:.538"/>
   <ellipse cx="881.7" cy="-497.9" rx="11.76" ry="12" style="fill:#4d4d4d;stop-color:#000000;stroke-width:.3575"/>
  </g>
 </g>
</svg>
