<?xml version="1.0" encoding="utf-8"?>
<!-- Generator: Adobe Illustrator 27.8.0, SVG Export Plug-In . SVG Version: 6.00 Build 0)  -->
<svg version="1.0" id="katman_1" xmlns="http://www.w3.org/2000/svg" xmlns:xlink="http://www.w3.org/1999/xlink" x="0px" y="0px"
	 viewBox="0 0 243.78 159" style="enable-background:new 0 0 243.78 159;" xml:space="preserve">
<style type="text/css">
	.st0{clip-path:url(#SVGID_00000158005479079899494780000018380235859104117925_);}
	.st1{fill:#FF461F;}
	.st2{fill:#10044A;}
	.st3{fill:#B4FF0C;}
	.st4{fill:#FFFFFF;}
</style>
<g>
	<defs>
		<rect id="SVGID_1_" x="24.89" y="48.5" width="194" height="62"/>
	</defs>
	<clipPath id="SVGID_00000106835890551033975420000014737168435176782751_">
		<use xlink:href="#SVGID_1_"  style="overflow:visible;"/>
	</clipPath>
	<g style="clip-path:url(#SVGID_00000106835890551033975420000014737168435176782751_);">
		<path class="st1" d="M99.25,100.6c0,2.08-1.59,3.09-3.49,3.35c-1.25,0.17-2.48,0.02-3.38-0.56l0.94-1.98
			c0.82,0.52,1.75,0.69,2.46,0.59c0.83-0.12,1.2-0.51,1.2-0.94c0-0.53-0.44-0.66-1.57-0.89c-1.38-0.28-2.85-0.71-2.85-2.58
			c0-1.83,1.36-2.97,3.24-3.24c1.26-0.17,2.4-0.01,3.25,0.57l-1.18,1.93c-0.63-0.43-1.35-0.68-2.05-0.58c-0.56,0.08-1,0.38-1,0.88
			c0,0.47,0.35,0.66,1.46,0.91C97.83,98.43,99.26,98.71,99.25,100.6L99.25,100.6z M164.59,94.15l-2.47,0.35
			c-0.44-1-1.11-1.96-2.01-2.74l-0.85,0.12v3.02l-2.13,0.3v-9.36l3.62-0.51c2.38-0.34,3.32,0.84,3.32,2.61
			c0,1.29-0.6,2.31-1.68,2.94C163.43,91.85,164.1,92.99,164.59,94.15z M161.81,88.36c0-0.71-0.43-1.18-1.41-1.04l-1.13,0.16v2.48
			l1.1-0.16C161.3,89.68,161.81,89.15,161.81,88.36L161.81,88.36z M183.95,82.08l3.39,8.88l-2.27,0.32l-0.55-1.61l-3.24,0.46
			l-0.55,1.77l-2.28,0.32l3.4-9.84L183.95,82.08L183.95,82.08z M183.95,87.9l-1.03-3.02h-0.02l-1.02,3.31L183.95,87.9L183.95,87.9z
			 M174.09,85.44c1.03-0.14,1.83,0.23,2.29,0.73l1.4-1.87c-0.96-0.91-2.29-1.16-3.63-0.98c-3.1,0.44-4.83,2.75-4.83,5.5
			c0,3.04,2.03,4.5,4.79,4.11c1.57-0.22,2.82-0.86,3.64-1.72l-1.22-1.63c-0.68,0.69-1.37,1.1-2.31,1.23
			c-1.67,0.23-2.59-0.85-2.59-2.31C171.62,86.79,172.76,85.62,174.09,85.44L174.09,85.44z M165.67,84.65V94l2.23-0.31v-9.36
			L165.67,84.65z M217.47,81.97v-0.04c0.62-0.49,1.13-1.25,1.13-2.24c0-1.57-1.23-2.3-3.1-2.04c-1.18,0.17-2.23,0.65-2.94,1.26
			l1.1,1.57c0.44-0.43,0.99-0.77,1.64-0.86c0.76-0.11,1.23,0.2,1.23,0.78c0,0.51-0.33,0.95-1.05,1.05l-0.82,0.11v1.69l0.76-0.11
			c0.82-0.11,1.24,0.29,1.24,0.91s-0.44,1.04-1.26,1.17c-0.77,0.12-1.28,0.07-2.11-0.13v1.92c0.65,0.17,1.41,0.22,2.35,0.09
			c2.01-0.28,3.26-1.4,3.26-3.09C218.89,82.91,218.32,82.25,217.47,81.97L217.47,81.97z M208.99,85.94l-0.01-0.04l1.42-1.66
			c1.16-1.37,1.5-2.52,1.5-3.41c0-1.63-1.17-2.51-3.06-2.24c-1.33,0.19-2.35,0.79-3.09,1.42l1.01,1.62
			c0.44-0.44,1.09-0.88,1.78-0.97c0.82-0.11,1.14,0.32,1.16,0.82c0.02,0.71-0.43,1.38-1.09,2.18l-2.73,3.28l0.02,1.42l6.07-0.85
			v-1.98L208.99,85.94L208.99,85.94z M194.03,88.04L194.02,88l1.42-1.66c1.16-1.37,1.51-2.52,1.51-3.41c0-1.63-1.17-2.51-3.06-2.24
			c-1.33,0.19-2.35,0.79-3.09,1.42l1.01,1.62c0.44-0.44,1.09-0.88,1.78-0.97c0.82-0.11,1.14,0.32,1.16,0.82
			c0.02,0.71-0.43,1.38-1.09,2.18l-2.73,3.28l0.02,1.42l6.07-0.85v-1.98L194.03,88.04L194.03,88.04z M205.24,83.82
			c0,2.89-1.32,4.92-3.64,5.25c-2.29,0.32-3.66-1.26-3.66-4.23c0-2.85,1.33-4.92,3.66-5.24C203.87,79.29,205.24,80.86,205.24,83.82z
			 M203.02,84.13c0-1.62-0.48-2.62-1.42-2.49c-0.87,0.12-1.42,1.07-1.42,2.89c0,1.61,0.48,2.63,1.42,2.5
			C202.45,86.91,203.02,85.97,203.02,84.13z M109.55,97.21c0,2.86-1.99,5.08-4.76,5.46c-2.82,0.4-4.77-1.3-4.78-4.13
			c0-2.82,1.96-5.09,4.77-5.48C107.55,92.68,109.54,94.33,109.55,97.21L109.55,97.21z M107.27,97.53c0-1.56-1.04-2.61-2.48-2.41
			c-1.46,0.2-2.49,1.57-2.49,3.1c0,1.53,1.03,2.61,2.49,2.4C106.22,100.42,107.27,99.08,107.27,97.53L107.27,97.53z M116.24,91.59
			v5.46c0,1.36-0.72,2.07-1.67,2.2c-1.07,0.15-1.63-0.56-1.63-1.74v-5.46l-2.19,0.31v5.58c0,2.64,1.56,3.67,3.82,3.35
			c2.46-0.34,3.85-1.94,3.85-4.43v-5.58L116.24,91.59L116.24,91.59z M133.24,89.2v3.87l-3.26,0.46v-3.87l-2.2,0.31v9.36l2.2-0.31
			v-3.53l3.26-0.46v3.53l2.19-0.31v-9.36L133.24,89.2z M119.57,91.12v1.96l2.41-0.34v7.39l2.22-0.31v-7.39l2.43-0.34v-1.96
			L119.57,91.12z M155.89,87.98v-1.96l-6.41,0.9v9.36l2.13-0.3v-3.33l3.86-0.54v-1.95l-3.86,0.54v-2.11L155.89,87.98z M145.05,87.54
			l3.39,8.88l-2.27,0.32l-0.55-1.61l-3.24,0.46l-0.55,1.77l-2.28,0.32l3.4-9.84L145.05,87.54L145.05,87.54z M145.05,93.37
			l-1.03-3.02H144l-1.02,3.31L145.05,93.37L145.05,93.37z"/>
		<path class="st2" d="M100.1,71.98c1.33-0.19,2.46-0.77,3.34-1.81l-1.26-1.45c-0.54,0.7-1.18,1.13-1.96,1.24
			c-1.1,0.16-1.75-0.49-1.75-1.84c0-1.65,0.98-3.51,2.53-3.73c0.8-0.11,1.34,0.26,1.72,0.92l1.59-1.66
			c-0.83-1.31-2.21-1.41-3.21-1.26c-2.93,0.41-4.81,3.18-4.81,6.18C96.31,71.22,97.86,72.3,100.1,71.98L100.1,71.98z M101.99,80.4
			l2.32,8.56l2.84-0.4l4.32-13.98l-3.48,0.49l-2.31,8.65h-0.06l-2.1-8.02l-3.22,0.46l-2.15,8.65h-0.04l-2.29-8.02l-3.48,0.49
			l4.28,12.77l2.86-0.4l2.44-9.24h0.04L101.99,80.4z M108.19,70.83c1.33-0.19,2.46-0.77,3.34-1.81l-1.26-1.45
			c-0.54,0.7-1.18,1.13-1.95,1.24c-1.1,0.16-1.75-0.49-1.75-1.84c0-1.65,0.98-3.51,2.53-3.73c0.8-0.11,1.34,0.26,1.72,0.92
			l1.59-1.66c-0.83-1.31-2.21-1.41-3.21-1.26c-2.93,0.41-4.81,3.18-4.81,6.18C104.4,70.07,105.96,71.15,108.19,70.83L108.19,70.83z
			 M95.59,63.27l-2.08,0.29l-1.12,9.38l2.08-0.29L95.59,63.27z M171.04,52.66l-2.04,0.29l-0.4,3.57l1.54-0.22L171.04,52.66z
			 M189.12,57.93l0.03,1.42l6.42-0.9v-1.97l-3.26,0.46l-0.01-0.04l1.43-1.66c1.19-1.38,1.54-2.52,1.54-3.41
			c0-1.62-1.2-2.5-3.15-2.23c-0.87,0.12-1.61,0.47-2.23,0.83v2.22c0.43-0.38,1.22-0.89,1.93-0.99c0.85-0.12,1.18,0.32,1.19,0.81
			c0.03,0.71-0.41,1.37-1.09,2.18L189.12,57.93L189.12,57.93z M183.81,52.8v7.3l2.25-0.32v-7.3l2.47-0.35v-1.94l-7.18,1.01v1.94
			L183.81,52.8z M120.15,69.04l1.68-6.38h0.02l1.6,5.91l1.96-0.28l2.98-9.66l-2.4,0.34l-1.59,5.97h-0.04l-1.45-5.54l-2.23,0.31
			l-1.48,5.97h-0.02l-1.58-5.54l-2.4,0.34l2.96,8.82L120.15,69.04L120.15,69.04z M175.09,59.51c-0.71,0.1-1.66-0.07-2.49-0.57
			l-0.95,1.96c0.91,0.58,2.16,0.73,3.43,0.55c1.93-0.27,3.55-1.27,3.55-3.32c0-1.86-1.45-2.13-3.03-2.49
			c-1.13-0.25-1.48-0.43-1.48-0.89c0-0.49,0.45-0.79,1.02-0.87c0.71-0.1,1.45,0.15,2.08,0.56l1.2-1.91
			c-0.87-0.57-2.03-0.73-3.3-0.55c-1.91,0.27-3.29,1.4-3.29,3.21c0,1.85,1.48,2.26,2.89,2.53c1.14,0.22,1.59,0.35,1.59,0.87
			C176.31,59.01,175.94,59.4,175.09,59.51L175.09,59.51z M197.5,57.33c-0.8-0.7-1.23-1.93-1.23-3.56c0-2.9,1.43-4.9,3.74-5.22
			c1.01-0.14,1.84,0.07,2.47,0.61c0.8,0.7,1.23,1.93,1.23,3.55c0,2.95-1.39,4.91-3.72,5.24C198.97,58.08,198.13,57.87,197.5,57.33
			L197.5,57.33z M198.49,53.44c0,1.12,0.23,1.92,0.67,2.3c0.23,0.2,0.51,0.28,0.83,0.23c0.97-0.14,1.5-1.18,1.5-2.95
			c0-1.12-0.23-1.91-0.67-2.29c-0.23-0.2-0.51-0.28-0.84-0.23C199.02,50.64,198.49,51.68,198.49,53.44L198.49,53.44z M141.78,60.9
			h0.04l1.91,3.12l1.42-0.2l1.91-3.65h0.02v5.08l2.2-0.31v-9.23l-2.24,0.31l-2.59,5.27h-0.02l-2.61-4.53l-2.23,0.31v9.24l2.18-0.31
			V60.9z M128.61,63.23c0-2.79,1.99-5.03,4.85-5.43c2.81-0.4,4.84,1.23,4.84,4.07c0,2.82-2.03,5.02-4.84,5.42
			C130.59,67.68,128.61,66.02,128.61,63.23z M130.92,62.9c0,1.51,1.04,2.57,2.53,2.36c1.46-0.2,2.52-1.54,2.52-3.07
			c0-1.54-1.06-2.57-2.52-2.37C131.98,60.03,130.92,61.39,130.92,62.9L130.92,62.9z M143.27,70.1l-3.28,0.46v13.38l9.49-1.33v-2.8
			l-6.2,0.87V70.1L143.27,70.1z M157.71,63.76v-1.94l-4.6,0.65v-1.72l4.01-0.56v-1.87l-4.01,0.56V57.1l4.41-0.62v-1.94l-6.58,0.92
			v9.24L157.71,63.76z M175.01,79.19c2.31-0.32,4.15-1.24,5.36-2.49l-1.81-2.33c-1,0.99-2.02,1.59-3.4,1.78
			c-2.46,0.35-3.82-1.19-3.82-3.29c0-2.45,1.67-4.11,3.63-4.39c1.52-0.22,2.69,0.32,3.38,1.03l2.05-2.68
			c-1.4-1.29-3.38-1.66-5.34-1.38c-4.57,0.64-7.1,3.96-7.1,7.9C167.96,77.69,170.96,79.75,175.01,79.19L175.01,79.19z M193.34,71.05
			v-7.99l-3.21,0.45v7.8c0,1.94-1.06,2.95-2.46,3.15c-1.57,0.22-2.4-0.79-2.4-2.47v-7.8l-3.23,0.46v7.99c0,3.76,2.29,5.24,5.63,4.77
			C191.28,76.9,193.34,74.62,193.34,71.05L193.34,71.05z M167.37,53.17l-2.19,0.31v5.7l-0.02,0.02l-3.86-5.17l-2.12,0.3v9.24
			l2.17-0.31v-5.57h0.02l3.82,5.03l2.17-0.31V53.17z M205.64,65.96c0,2.98-2.02,4.73-5.11,5.16l-1.81,0.25v4.32l-3.13,0.44V62.76
			l5.19-0.73C204.14,61.56,205.63,63.29,205.64,65.96L205.64,65.96z M202.32,66.35c0-1.01-0.65-1.68-2.09-1.48l-1.5,0.21v3.54
			l1.44-0.2C201.59,68.23,202.32,67.46,202.32,66.35z M118.87,87.09c-4.15,0.58-7.03-1.84-7.03-5.87c0-4.03,2.88-7.28,7.03-7.87
			c4.07-0.57,7.01,1.78,7.01,5.89C125.88,83.33,122.94,86.51,118.87,87.09L118.87,87.09z M122.52,79.71c0-2.22-1.54-3.72-3.65-3.42
			c-2.15,0.3-3.67,2.27-3.67,4.46s1.52,3.72,3.67,3.42C120.98,83.87,122.52,81.94,122.52,79.71L122.52,79.71z M156.08,81.68
			l-4.78,0.67V68.98l4.73-0.67c4.32-0.61,7.09,1.75,7.09,5.71C163.12,77.96,160.5,81.06,156.08,81.68L156.08,81.68z M159.75,74.49
			c0-2.24-1.55-3.68-3.65-3.39l-1.67,0.23v7.76l1.44-0.2C158.22,78.57,159.75,76.66,159.75,74.49z M138.56,84.14l-3.63,0.51
			c-0.65-1.44-1.63-2.8-2.96-3.9l-1.25,0.17v4.32l-3.13,0.44V72.31l5.32-0.75c3.49-0.49,4.88,1.18,4.88,3.7
			c0,1.84-0.88,3.31-2.48,4.21C136.85,80.86,137.82,82.47,138.56,84.14L138.56,84.14z M134.47,75.88c0-1.01-0.64-1.68-2.07-1.48
			l-1.67,0.23v3.54l1.62-0.23C133.72,77.76,134.47,76.99,134.47,75.88L134.47,75.88z"/>
		<path class="st1" d="M24.89,90.6l9.86,5.66l5.26-3.57V86.4L24.89,90.6z"/>
		<path class="st3" d="M76.59,75.43l6.19-3.31l-15.16-7.01l-6.02,9.75l-0.64,3.37c0.02,0.04,0.05,0.08,0.08,0.13
			c0.14,0.23,0.26,0.48,0.37,0.74c0.43-1.15,1.09-2.22,1.96-3.15c1.78-1.9,4.28-2.98,6.86-2.98C72.69,72.97,74.92,73.91,76.59,75.43
			L76.59,75.43z"/>
		<path class="st1" d="M55.28,67.37l-0.56-6.17c0.7,0.49,1.65,0.8,2.85,0.98l0.07,5.13C57.22,67.37,56.19,67.44,55.28,67.37z"/>
		<path class="st1" d="M51.65,65.78c-0.14-0.27-0.13-0.58,0.2-0.92c0.34-0.34,1.1-0.56,1.65-0.68c0.33-0.07,0.57-0.11,0.57-0.11
			l0.4,3.16c-0.26-0.05-1.03-0.23-1.76-0.58C52.58,66.57,51.9,66.26,51.65,65.78L51.65,65.78z"/>
		<path class="st1" d="M52.57,75.18l1.75-0.06c2.5-0.07,5.19,0.71,6.65,3.11l3.14-16.54c0,0-1.25-1.98-4.83-2.51
			c-4.06-0.6-4.44,0.46-4.42,0.66c0.08,0.74,3.24,1.41,4.55,1.52L57.74,75l-0.08-6.61c-2.79,0.32-6.14-0.46-6.51-1.75L52.57,75.18
			L52.57,75.18z"/>
		<path class="st3" d="M45.35,61.75l-12.93,10.5l7,3.39l13.16-0.46L45.35,61.75z"/>
		<path class="st1" d="M40.01,94.21l-10.41,8.05l17.78,1.22l5.13-6.12l-12.5,1.76V94.21z"/>
		<path class="st3" d="M56.03,96.86l-3.52,0.5l-3.99,13.14l25.33-3.57l-8.35-9.84l-9.46,0.97V96.86z"/>
		<path class="st1" d="M67.08,96.93l6.23,6.7l12.52-5.85l-5.45-3l-0.32,0.82L67.08,96.93z"/>
		<path class="st2" d="M80.07,95.59l0.32-0.81l6.71-17.01l-7.63,2.55c-0.44-1.92-1.47-3.61-2.88-4.89
			c-1.68-1.53-3.91-2.46-6.35-2.46c-2.58,0-5.08,1.09-6.86,2.98c-0.87,0.92-1.53,1.99-1.96,3.15c-0.11-0.26-0.24-0.51-0.37-0.74
			c-1.44-2.5-4.19-3.31-6.73-3.24l-1.75,0.06l-13.16,0.46l-11.68,0.41l6.44,9.74l5.84-0.83v14.15l12.5-1.76l3.52-0.5v1.2l9.47-0.97
			l1.59-0.16L80.07,95.59L80.07,95.59z"/>
		<path class="st4" d="M70.24,74.77c4.25,0,7.67,3.42,7.67,7.64c0,4.22-3.42,7.64-7.64,7.64c-2.1,0-3.99-0.85-5.37-2.22l8.75-2.92
			l0.74-1.96l-10.45,3.73c-0.12-0.17-0.23-0.36-0.34-0.55l11.76-4.92l0.73-2.07l-13.04,5.76c-0.07-0.19-0.13-0.39-0.18-0.59
			l9.67-5.15l0.89-2.31l-10.79,6.03c-0.29-4.58,3.37-8.14,7.59-8.14V74.77z M78.8,93.92l5.21-13.22l-4.32,1.44
			c0.14,4.95-3.6,9.22-8.59,9.66c-3.45,0.31-6.64-1.31-8.51-3.95l-4.76,1.59v1.51l-4.19,0.59l5.42-7.18
			c2.28-3.06,0.7-7.63-4.67-7.44L31,77.74l4.05,6.12l6.76-0.95v14.16l4.98-0.69V82.19l8.02-1.13c1.15-0.16,1.53,0.8,0.94,1.58
			l-7.15,9.41v4.07l9.22-1.31v1.28L78.8,93.92z"/>
	</g>
</g>
</svg>
