<?xml version="1.0" encoding="utf-8"?>
<!-- Generator: Adobe Illustrator 26.0.3, SVG Export Plug-In . SVG Version: 6.00 Build 0)  -->
<svg version="1.0" id="Layer_1" xmlns="http://www.w3.org/2000/svg" xmlns:xlink="http://www.w3.org/1999/xlink" x="0px" y="0px"
	 viewBox="0 0 582.9 440" style="enable-background:new 0 0 582.9 440;" xml:space="preserve">
<style type="text/css">
	.st0{fill:#17AB47;}
	.st1{fill:#211E1E;}
</style>
<g id="layer1">
	<g id="g1441">
		<path id="path638" class="st0" d="M470.7,229.1l-6.3-2.7c-1.9-0.8-3.1-2.1-3.1-4.2c0-2.7,2.4-4.9,6-4.9c5.6,0,7.2,3.9,7.2,7
			l11.6-2.2c-0.3-5.7-4-14.8-18.4-14.8c-11.4,0-18.9,7.6-18.9,16.4c0,6,3,10.6,10.5,13.9l5.5,2.5c2.9,1.3,3.7,3,3.7,4.8
			c0,2.5-1.9,4.9-6.1,4.9c-4.2,0.2-7.7-3.1-7.8-7.2c0-0.2,0-0.4,0-0.5c0-0.3,0-0.6,0.1-0.9l-11.4,2.1c0,5.4,2.9,16.6,19.3,16.6
			c12.8,0,19.1-8.6,19.1-16.2C481.6,237.6,478.3,232.5,470.7,229.1"/>
		<path id="path640" class="st0" d="M446.4,145.6l-24.1,112.7h13.3L460.2,143L446.4,145.6z"/>
		<path id="path642" class="st0" d="M425.9,149.4l-23.2,108.8H416l23.9-111.5L425.9,149.4z"/>
		<path id="path644" class="st0" d="M407.1,208.8l-8.3,39.4c-0.7,3-1.1,6-1.1,9v1.1h-12.8c-0.1-0.7-0.1-1.4-0.1-2.1
			c0-0.8,0-1.5,0.1-3c-2.6,4.1-7.8,6.3-12.4,6.3c-10.5,0-16.2-6.9-16.2-16.2c0-2.5,0.4-4.9,1-7.3l5.3-24.6l13.8-2.6l-5.8,26.8
			c-0.4,1.6-0.6,3.1-0.7,4.7c0,4.4,2.3,7.4,7.4,7.4c5.5,0,8.9-4.5,10.1-10.2l5.7-26.2L407.1,208.8z"/>
		<path id="path646" class="st0" d="M334.7,207.7c-5.6,0-10.5,2.1-13.3,5.1l9.7-45.7l-13.5,2.5l-8.1,37.8l-10.9,50.8h13l1.5-6.9
			c1.7,4,7.1,8.1,14.9,8.1c14.9,0,25.9-13,25.9-31C354,217,347.4,207.7,334.7,207.7 M326.7,247.6c-5.8,0-10.1-4.3-10.1-11.4
			c0-9.4,5.8-16.8,13.4-16.8c6.1,0,10.4,3.7,10.4,11.1C340.5,241.8,333.1,247.6,326.7,247.6"/>
		<path id="path648" class="st0" d="M303.7,208.9l-13.5,2.5l-0.7,3.1c-0.5-1-1.2-1.9-2-2.6c-2.2-2.1-6-4.2-12.4-4.2
			c-14.3,0-25.2,12.8-25.2,29.6c0,12.2,7.1,22,19.3,22c5.3,0.1,10.3-2.5,13.3-6.9c-0.1,1.2-0.2,2.7-0.2,3.7c0,0.8,0,1.5,0.1,2.3
			h12.4c-0.1-0.6-0.1-1.3-0.1-1.9c0-3,0.3-6,0.9-8.9L303.7,208.9z M272.9,247.6c-5.9,0-9.7-4.1-9.7-11c0-8,4.5-17.1,13.1-17.1
			c5.9,0,9.4,4,9.4,10.6C285.7,241.1,279.7,247.6,272.9,247.6"/>
		<path id="path650" class="st0" d="M239.9,210.9l-2.7,0.5l-10,46.9h13.2l10.6-49.5L239.9,210.9z M248.8,182.6c-4.9,0-9,4-9,8.9
			c-0.1,3.9,3,7.2,7,7.3c0.1,0,0.2,0,0.4,0c5,0,9.1-4,9.2-9c0.1-3.9-3.1-7.2-7-7.2C249.1,182.6,249,182.6,248.8,182.6"/>
		<path id="path652" class="st0" d="M237.2,184.8l-14,2.6l-5.6,26.7c-1.6-2.8-5.7-6.4-14.1-6.4c-14.3,0-25.2,12.8-25.2,29.6
			c0,12.2,7.1,21.9,19.3,22c5.3,0.1,10.3-2.5,13.2-6.9c-0.1,1.1-0.2,2.5-0.2,3.5c0,0.8,0,1.7,0.1,2.5h12.2c-0.1-0.7-0.1-1.4-0.1-2.1
			c0.1-2.9,0.5-5.9,1.1-8.7L237.2,184.8z M201.2,247.6c-5.9,0-9.7-4.1-9.7-11c0-8,4.5-17.1,13.1-17.1c5.9,0,9.4,4,9.4,10.6
			C214.1,241.1,208.1,247.6,201.2,247.6"/>
		<path id="path654" class="st0" d="M160.8,207.5c-5.1,0-10.6,1.8-13.9,6.4c0.2-1.6,0.3-3.3,0.3-4.9l-13.2,2.5
			c0.2,1.6-0.4,4-0.8,5.9l-8.6,41h13.2l6.2-28.6c1.2-5.5,4.7-10.3,10.4-10.3c4.9,0,7.5,2.9,7.5,7.3c0,1-0.1,2-0.3,2.9l-6.1,28.6H169
			l6.4-29.9c0.4-1.7,0.6-3.5,0.6-5.2C176,214.1,170.6,207.5,160.8,207.5"/>
		<path id="path656" class="st0" d="M119.3,190.2l-14.4,68.1H119l15-70.8L119.3,190.2z"/>
		<path id="path658" class="st1" d="M113.8,296.4l2.5-11.7h-11.3l-2.5,11.7h-5.5l6-28.2h5.5l-2.4,11.4h11.3l2.4-11.4h5.5l-6,28.2
			H113.8z"/>
		<path id="path660" class="st1" d="M142.7,267.5c7.5,0,12.5,5.1,12.5,12.6c0,10.7-7.5,16.8-15.1,16.8c-7.5,0-12.5-5.1-12.5-12.6
			C127.4,273.6,134.9,267.5,142.7,267.5 M142.3,272.7c-5.2,0-9.2,5-9.2,11.2c0,4.8,2.8,7.7,7.1,7.7c5,0,9.2-4.6,9.2-11.2
			C149.4,275.7,146.7,272.7,142.3,272.7"/>
		<path id="path662" class="st1" d="M184.4,268.1l-4.1,19.3c-1.3,6.2-5.7,9.5-11.2,9.5c-6,0-9.9-3.5-9.9-9c0-0.9,0.1-1.8,0.3-2.8
			l3.6-17h5.4l-3.6,17.2c-0.1,0.6-0.2,1.2-0.2,1.8c0,2.6,1.4,4.4,4.8,4.4c2.9,0,4.7-1.8,5.4-5.1l3.9-18.4L184.4,268.1z"/>
		<path id="path664" class="st1" d="M200.1,288.7c0-1.3-0.6-2.4-2.4-3.1l-3.4-1.6c-3.6-1.6-5.5-4-5.5-7.6c0-5.3,4.5-8.9,10-8.9
			c7.5,0,9.6,5.2,9.6,8.2l-5.2,0.9c0-1.1-0.5-4.3-4.7-4.3c-2.5,0-4.2,1.7-4.2,3.6c0,1.4,0.9,2.6,2.2,3.1l3.3,1.4
			c4.2,1.8,5.9,4.4,5.9,7.8c0,4.4-3.7,8.7-10,8.7c-7.8,0-10.6-5.3-10.6-9.2c0-0.3,0-0.6,0.1-0.8l5.2-0.8c0,0.3,0,0.6,0,0.8
			c-0.2,2.8,2,5.2,4.8,5.3c0.2,0,0.4,0,0.6,0C198.4,292.2,200.1,290.7,200.1,288.7"/>
		<path id="path666" class="st1" d="M209.9,296.4l6-28.2h5.6l-6,28.2H209.9z"/>
		<path id="path668" class="st1" d="M239.8,296.4l-8.2-20l-4.2,20h-5.5l6-28.2h6.4l7.5,18.9l4-18.9h5.5l-6,28.2L239.8,296.4z"/>
		<path id="path670" class="st1" d="M259,283.8c0,4.8,2.6,8.1,7.3,8.1c3.5,0.2,6.8-2.1,7.8-5.5h-8.8l1-4.8h13.9l-3.1,14.7h-4.2
			l0.1-2.9c-1.9,2.3-4.7,3.5-7.6,3.4c-7.1,0-12-5.1-12-12.7c0-10.6,7.5-16.7,15.4-16.7c7.6,0,11.2,4.6,11.9,8.9l-5.4,1.6
			c-0.5-2.5-2.5-5.3-7-5.3C263.3,272.7,259,277,259,283.8"/>
		<path id="path672" class="st1" d="M297.7,296.4l6-28.2h17.7l-1.1,5.2h-12.2l-1.5,7h10.9l-1,5.1h-10.9l-2.4,11L297.7,296.4z"/>
		<path id="path674" class="st1" d="M321.5,296.4l6-28.2h5.6l-6,28.2H321.5z"/>
		<path id="path676" class="st1" d="M351.9,296.4l-8.2-20l-4.2,20h-5.5l6-28.2h6.3l7.5,18.9l4-18.9h5.5l-6,28.2H351.9z"/>
		<path id="path678" class="st1" d="M382.5,289.9h-10.9l-3.6,6.5h-6.2l16.5-28.2h6.3l4.5,28.2h-5.7L382.5,289.9z M374.4,284.9h7.4
			l-1.5-10.6L374.4,284.9z"/>
		<path id="path680" class="st1" d="M411.3,296.4l-8.2-20l-4.2,20h-5.5l6-28.2h6.3l7.5,18.9l4-18.9h5.5l-6,28.2H411.3z"/>
		<path id="path682" class="st1" d="M452,276.6l-5.3,1.6c-0.6-3.3-3.5-5.7-6.9-5.5c-5.1,0-9.4,4.5-9.4,11.1c0,4.6,2.8,7.9,7.3,7.9
			c4,0,6.3-2.6,7.5-5.3l5,2c-2.1,5.3-7.2,8.7-12.9,8.6c-7.4,0-12.5-5.4-12.5-12.8c0-10.6,7.6-16.6,15.4-16.7
			C447.8,267.5,451.3,272.3,452,276.6"/>
		<path id="path684" class="st1" d="M453,296.4l6-28.2h17.6l-1.1,5.2h-12.1l-1.4,6.5h10.9l-1,4.9h-11l-1.4,6.5h12.1l-1.1,5.2H453z"
			/>
	</g>
</g>
</svg>
