<?xml version="1.0" encoding="utf-8"?>
<!-- Generator: Adobe Illustrator 19.0.0, SVG Export Plug-In . SVG Version: 6.00 Build 0)  -->
<svg version="1.1" id="layer" xmlns="http://www.w3.org/2000/svg" xmlns:xlink="http://www.w3.org/1999/xlink" x="0px" y="0px"
	 viewBox="-153 -46 652 652" style="enable-background:new -153 -46 652 652;" xml:space="preserve">
<style type="text/css">
	.st0{fill:#008FBE;}
	.st1{fill:#7B868C;}
	.st2{opacity:0.5;}
	.st3{clip-path:url(#SVGID_2_);}
	.st4{clip-path:url(#SVGID_4_);}
	.st5{clip-path:url(#SVGID_6_);}
	.st6{clip-path:url(#SVGID_8_);}
	.st7{opacity:0.6;}
	.st8{clip-path:url(#SVGID_10_);}
	.st9{clip-path:url(#SVGID_12_);}
	.st10{clip-path:url(#SVGID_14_);}
	.st11{clip-path:url(#SVGID_16_);}
	.st12{clip-path:url(#SVGID_18_);}
	.st13{clip-path:url(#SVGID_20_);}
	.st14{clip-path:url(#SVGID_22_);}
	.st15{clip-path:url(#SVGID_24_);}
	.st16{clip-path:url(#SVGID_26_);}
	.st17{clip-path:url(#SVGID_28_);}
	.st18{clip-path:url(#SVGID_30_);}
	.st19{clip-path:url(#SVGID_32_);}
	.st20{clip-path:url(#SVGID_34_);}
	.st21{clip-path:url(#SVGID_36_);}
	.st22{fill:#002169;}
	.st23{clip-path:url(#SVGID_38_);}
	.st24{clip-path:url(#SVGID_40_);}
	.st25{clip-path:url(#SVGID_42_);}
</style>
<g id="Capa_2">
	<g id="Capa_1-2">
		<path class="st0" d="M148.3,337.5c-1.5-3.5-5.6-5.2-9.2-3.6c-1.6,0.7-2.9,2-3.6,3.6c-0.3,0.9-0.4,1.8-0.4,2.8c0,0.3,0,0.4,0.4,0.4
			h12.8c0.3,0,0.4,0,0.4-0.4C148.7,339.3,148.6,338.4,148.3,337.5 M128.7,351.8c-0.8-2.6-1.2-5.2-1.2-7.9c-0.1-2.7,0.3-5.5,1.1-8.1
			c3-7.4,11.3-11,18.7-8c3.7,1.5,6.5,4.4,8,8c0.9,3.2,1.3,6.5,1.1,9.8c0,0.4-0.3,0.7-0.6,0.7c0,0,0,0-0.1,0h-20
			c-0.3,0-0.4,0-0.4,0.4c0,0.9,0.1,1.7,0.4,2.5c1,3.1,4,5.1,7.2,4.9c2.8,0,5.6-1.1,7.5-3.1c0.3-0.3,0.7-0.4,1,0l4.1,3.3
			c0.3,0.3,0.3,0.6,0,1c-3.4,3.7-8.3,5.8-13.3,5.6C136.1,361.3,130.5,357.6,128.7,351.8"/>
		<path class="st0" d="M180.3,349.2v-2.5c0-0.2-0.1-0.4-0.4-0.4c0,0,0,0-0.1,0h-5.4c-4.9,0-6.9,1.4-6.9,4.5c0,3.1,1.9,4,5.5,4
			C177.6,354.7,180.3,352.9,180.3,349.2 M181,360.2c-0.4,0-0.7-0.3-0.7-0.6c0,0,0,0,0-0.1v-2.4c-2.3,2.7-5.7,4.1-9.2,3.7
			c-6,0-10.9-3-10.9-9.8s5-10.3,13.1-10.3h6.6c0.3,0,0.4,0,0.4-0.4v-1.5c0-3.8-1.8-5.4-7.2-5.4c-2.6-0.2-5.2,0.6-7.3,2.2
			c-0.2,0.3-0.7,0.3-0.9,0.1c0,0,0,0-0.1-0.1l-2.5-4.5c0-0.3,0-0.7,0-0.8c3.4-2.3,7.4-3.5,11.5-3.3c9.8,0,13.5,3.3,13.5,11.3v22
			L181,360.2z"/>
		<path class="st0" d="M202.9,360.6c-6.6,0-8.9-3.1-8.9-9.3v-37h7.5V351c0,2.2,0.9,2.9,2.8,2.9h1.5c0.3,0,0.7,0.2,0.7,0.5
			c0,0,0,0.1,0,0.1v6.1L202.9,360.6z"/>
		<path class="st0" d="M221,360.6c-6.6,0-9-3.3-9-9.5V334c0-0.3,0-0.4-0.4-0.4h-2.1c-0.3,0-0.7-0.2-0.7-0.5c0,0,0-0.1,0-0.1v-4.6
			c0-0.3,0.2-0.7,0.5-0.7c0,0,0.1,0,0.1,0h2.2c0.3,0,0.4,0,0.4-0.4v-9.6h7.5v10h5.4v5.8h-5.4v17.2c0,2.2,1,3,3.1,3h1.7
			c0.4,0,0.7,0.3,0.7,0.6c0,0,0,0,0,0.1v6.1H221z"/>
		<path class="st0" d="M250.6,360.2v-19.5c0-4.2-2.1-7.1-6.1-7.1c-3.5,0-6.3,2.8-6.3,6.3c0,0.3,0,0.5,0,0.8v19.5h-7.5v-45.9h7.5
			v16.4c2.3-2.8,5.9-4.2,9.4-3.7c5.9,0.4,10.5,5.3,10.4,11.2v22L250.6,360.2z"/>
		<path class="st1" d="M261.5,354.9c-0.3-0.3-0.4-0.7,0-1l4.2-4.9c0.2-0.3,0.7-0.3,0.9-0.1c0,0,0,0,0.1,0.1c3.5,3,7.9,4.7,12.5,4.9
			c5.4,0,8.6-2.8,8.6-6.6c0-3.3-2.1-5.4-8.3-6.6l-2.4-0.3c-8.9-1.2-13.8-5.4-13.8-13.1c0-8.3,6.1-13.7,15.6-13.7
			c5.3-0.1,10.5,1.5,14.8,4.6c0.3,0.2,0.4,0.6,0.2,0.9c0,0,0,0,0,0l-3.3,5c-0.3,0.3-0.7,0.3-1,0c0,0,0,0,0,0c-3.2-2.3-7-3.5-11-3.6
			c-4.6,0-7.2,2.5-7.2,6.1s2.2,5.3,8.5,6.2l2.4,0.3c8.9,1.2,13.6,5.4,13.6,13.3s-5.9,14.3-17.3,14.3c-6.2,0-12.3-2.1-17.1-6.1"/>
		<path class="st1" d="M300.5,352c-0.7-2.6-1.1-5.3-1-8.1c-0.1-2.7,0.2-5.4,1-8.1c1.9-5.8,7.5-9.5,13.5-9c4.3-0.1,8.5,1.7,11.2,5
			c0,0.3,0.3,0.7,0,1l-4.4,3.8c-0.3,0.3-0.7,0.3-1,0c-1.5-1.8-3.7-2.8-6-2.8c-2.8-0.2-5.3,1.5-6.2,4.2c-0.6,1.9-0.8,4-0.7,6
			c-0.3,2.9,0.3,5.8,1.8,8.3c0.8,1,2,1.6,3.3,1.8c2.8,0.6,5.8-0.5,7.5-2.8c0.3-0.3,0.6-0.3,1,0l4.3,3.8c0.3,0.3,0.3,0.6,0,1
			c-2.8,3.2-6.9,5-11.1,4.9c-6,0.3-11.4-3.4-13.3-9"/>
		<path class="st1" d="M330.5,360.2v-32.5h7.5v32.5H330.5z M330.5,321.5v-7.2h7.5v7.2H330.5z"/>
		<path class="st1" d="M364.3,337.5c-1.5-3.5-5.6-5.2-9.2-3.6c-1.6,0.7-2.9,2-3.6,3.6c-0.3,0.9-0.4,1.8-0.4,2.8c0,0.3,0,0.4,0.4,0.4
			h12.8c0.3,0,0.4,0,0.4-0.4C364.7,339.3,364.6,338.4,364.3,337.5 M344.7,351.8c-0.8-2.6-1.2-5.2-1.1-7.9c-0.1-2.7,0.3-5.5,1.1-8.1
			c2.9-7.4,11.3-11,18.6-8c3.7,1.5,6.6,4.4,8,8c0.9,3.2,1.3,6.5,1.1,9.8c0,0.4-0.3,0.7-0.7,0.7c0,0,0,0,0,0h-20
			c-0.3,0-0.4,0-0.4,0.4c0,0.9,0.1,1.7,0.4,2.5c1,3.1,4,5.1,7.2,4.9c2.9,0.1,5.8-1,7.8-3.1c0.3-0.3,0.7-0.4,1,0l3.9,3.3
			c0.3,0.3,0.3,0.6,0,1c-3.4,3.7-8.3,5.8-13.3,5.6C352.2,361.3,346.6,357.6,344.7,351.8"/>
		<path class="st1" d="M397.5,360.2v-19.5c0-4.2-2.1-7.1-6.1-7.1c-3.5,0-6.3,2.8-6.3,6.3c0,0.3,0,0.5,0,0.8v19.5h-7.5v-32.5h6.8
			c0.4,0,0.7,0.2,0.7,0.6c0,0,0,0.1,0,0.1v2.4c2.3-2.8,5.9-4.2,9.4-3.7c5.9,0.4,10.5,5.3,10.4,11.2v22H397.5z"/>
		<path class="st1" d="M411.1,352c-0.7-2.6-1.1-5.3-1-8.1c-0.1-2.7,0.2-5.4,1-8.1c1.9-5.8,7.5-9.5,13.5-9c4.3-0.1,8.5,1.7,11.2,5
			c0,0.3,0.3,0.7,0,1l-4.3,3.8c-0.3,0.3-0.7,0.3-1,0c-1.5-1.8-3.7-2.8-6-2.8c-2.8-0.2-5.3,1.5-6.1,4.2c-0.6,1.9-0.8,4-0.7,6
			c-0.3,2.9,0.3,5.8,1.8,8.3c0.8,1,2,1.6,3.3,1.8c2.8,0.6,5.8-0.5,7.5-2.8c0.3-0.3,0.6-0.3,1,0l4.3,3.8c0.3,0.3,0.3,0.6,0,1
			c-2.8,3.2-6.9,5-11.1,4.9c-6,0.3-11.4-3.4-13.3-9"/>
		<path class="st1" d="M460.3,337.5c-1.6-3.5-5.7-5.1-9.2-3.6c-1.6,0.7-2.9,2-3.6,3.6c-0.3,0.9-0.4,1.8-0.4,2.8c0,0.3,0,0.4,0.4,0.4
			h12.8c0.3,0,0.4,0,0.4-0.4C460.8,339.2,460.5,338.3,460.3,337.5 M440.7,351.8c-0.8-2.6-1.2-5.2-1.1-7.9c-0.1-2.7,0.3-5.5,1.1-8.1
			c2.9-7.4,11.3-11,18.6-8c3.7,1.5,6.6,4.4,8,8c0.9,3.2,1.3,6.5,1.1,9.8c0,0.4-0.3,0.7-0.6,0.7c0,0,0,0-0.1,0h-20
			c-0.3,0-0.4,0-0.4,0.4c0,0.9,0.1,1.7,0.4,2.5c1,3.1,4,5.1,7.2,4.9c2.9,0.1,5.6-1,7.6-3c0.3-0.3,0.7-0.4,1,0l4,3.2
			c0.3,0.3,0.3,0.6,0,1c-3.4,3.7-8.3,5.8-13.3,5.6C448.2,361.3,442.5,357.6,440.7,351.8"/>
		<g class="st2">
			<g>
				<defs>
					<rect id="SVGID_1_" x="-36.4" y="300" width="13.1" height="22.9"/>
				</defs>
				<clipPath id="SVGID_2_">
					<use xlink:href="#SVGID_1_"  style="overflow:visible;"/>
				</clipPath>
				<g class="st3">
					<path class="st1" d="M-34.2,303.6l10.3,17.7L-34.2,303.6l-0.4-0.4L-34.2,303.6z"/>
				</g>
			</g>
		</g>
		<g class="st2">
			<g>
				<defs>
					<rect id="SVGID_3_" x="-36.4" y="300" width="13.1" height="22.9"/>
				</defs>
				<clipPath id="SVGID_4_">
					<use xlink:href="#SVGID_3_"  style="overflow:visible;"/>
				</clipPath>
				<g class="st4">
					<path class="st1" d="M-34.2,303.6l10.3,17.7L-34.2,303.6l-0.4-0.4L-34.2,303.6z"/>
				</g>
			</g>
		</g>
		<g class="st2">
			<g>
				<defs>
					<rect id="SVGID_5_" x="-39.7" y="329.6" width="22.9" height="13.1"/>
				</defs>
				<clipPath id="SVGID_6_">
					<use xlink:href="#SVGID_5_"  style="overflow:visible;"/>
				</clipPath>
				<g class="st5">
					<path class="st1" d="M-18.3,331.9l-0.2,0.3l-5.4,9.3h-12.9c-0.4,0-0.7-0.2-1-0.4c0.3,0.3,0.6,0.4,1,0.4h12.9l5.4-9.3
						C-18.3,332.1-18.3,332.1-18.3,331.9z"/>
				</g>
			</g>
		</g>
		<g class="st2">
			<g>
				<defs>
					<rect id="SVGID_7_" x="-39.7" y="329.6" width="22.9" height="13.1"/>
				</defs>
				<clipPath id="SVGID_8_">
					<use xlink:href="#SVGID_7_"  style="overflow:visible;"/>
				</clipPath>
				<g class="st6">
					<path class="st1" d="M-18.3,331.9l-0.2,0.3l-5.4,9.3h-12.9c-0.4,0-0.7-0.2-1-0.4c0.3,0.3,0.6,0.4,1,0.4h12.9l5.4-9.3
						C-18.3,332.1-18.3,332.1-18.3,331.9z"/>
				</g>
			</g>
		</g>
		<g class="st7">
			<g>
				<defs>
					<rect id="SVGID_9_" x="-6.9" y="257.4" width="3.3" height="3.3"/>
				</defs>
				<clipPath id="SVGID_10_">
					<use xlink:href="#SVGID_9_"  style="overflow:visible;"/>
				</clipPath>
				<g class="st8">
					<path class="st0" d="M-4,260.2L-4,260.2z"/>
				</g>
			</g>
		</g>
		<g class="st2">
			<g>
				<defs>
					<rect id="SVGID_11_" x="-6.9" y="257.4" width="3.3" height="3.3"/>
				</defs>
				<clipPath id="SVGID_12_">
					<use xlink:href="#SVGID_11_"  style="overflow:visible;"/>
				</clipPath>
				<g class="st9">
					<path class="st1" d="M-4,260.2L-4,260.2z"/>
				</g>
			</g>
		</g>
		<g class="st7">
			<g>
				<defs>
					<rect id="SVGID_13_" x="9.5" y="286.9" width="3.3" height="3.3"/>
				</defs>
				<clipPath id="SVGID_14_">
					<use xlink:href="#SVGID_13_"  style="overflow:visible;"/>
				</clipPath>
				<g class="st10">
					<path class="st0" d="M12,288c0,0,0.3,0.3,0.4,0.3C12.5,288.3,12.1,288.2,12,288z"/>
				</g>
			</g>
		</g>
		<g class="st2">
			<g>
				<defs>
					<rect id="SVGID_15_" x="9.5" y="286.9" width="3.3" height="3.3"/>
				</defs>
				<clipPath id="SVGID_16_">
					<use xlink:href="#SVGID_15_"  style="overflow:visible;"/>
				</clipPath>
				<g class="st11">
					<path class="st1" d="M12,288c0,0,0.3,0.3,0.4,0.3C12.5,288.3,12.1,288.2,12,288z"/>
				</g>
			</g>
		</g>
		<g class="st7">
			<g>
				<defs>
					<rect id="SVGID_17_" x="-6.9" y="247.6" width="45.9" height="42.6"/>
				</defs>
				<clipPath id="SVGID_18_">
					<use xlink:href="#SVGID_17_"  style="overflow:visible;"/>
				</clipPath>
				<g class="st12">
					<path class="st0" d="M14.3,250.4H1.2l-5.1,8.9c0,0,0,0.4,0,0.7c-0.1-0.2-0.1-0.5,0-0.7l5.1-8.9L14.3,250.4c0.5,0,1,0.2,1.2,0.7
						l21.6,37.7L15.4,251C15.3,250.6,14.8,250.3,14.3,250.4z"/>
				</g>
			</g>
		</g>
		<g class="st2">
			<g>
				<defs>
					<rect id="SVGID_19_" x="-6.9" y="247.6" width="45.9" height="42.6"/>
				</defs>
				<clipPath id="SVGID_20_">
					<use xlink:href="#SVGID_19_"  style="overflow:visible;"/>
				</clipPath>
				<g class="st13">
					<path class="st1" d="M14.3,250.4H1.2l-5.1,8.9c0,0,0,0.4,0,0.7c-0.1-0.2-0.1-0.5,0-0.7l5.1-8.9L14.3,250.4c0.5,0,1,0.2,1.2,0.7
						l21.6,37.7L15.4,251C15.3,250.6,14.8,250.3,14.3,250.4z"/>
				</g>
			</g>
		</g>
		<path class="st1" d="M-37.7,341.2L-37.7,341.2l-22-38l22,37.8C-37.7,341-37.8,341-37.7,341.2z"/>
		<path class="st1" d="M-18.3,331.9c0.1-0.3,0-0.7-0.2-1C-18.2,331.2-18.1,331.6-18.3,331.9z"/>
		<path class="st1" d="M-18.5,331l-5.5-9.5L-18.5,331z"/>
		<path class="st1" d="M-35.3,303c0.3,0,0.5,0.1,0.7,0.3C-34.6,303-35,303-35.3,303L-35.3,303z"/>
		<path class="st1" d="M-59.8,303l22,37.8l0,0c0.3,0.3,0.6,0.4,1,0.4h12.9l5.4-9.3c0,0,0,0,0-0.3c0.1-0.3,0.1-0.7,0-1l-5.6-9.6
			l-10.3-17.7l-0.4-0.4c-0.3,0-0.4-0.3-0.7-0.3h-24.3V303z"/>
		<path class="st0" d="M-3.9,260.6c0,0,0,0,0-0.3C-3.9,260.1-3.9,260.5-3.9,260.6l15.7,27.2l0,0l0,0L-3.9,260.6z"/>
		<path class="st0" d="M12.4,288.3c0.2,0.1,0.5,0.1,0.7,0l0,0C12.9,288.5,12.6,288.5,12.4,288.3z"/>
		<g class="st2">
			<g>
				<defs>
					<rect id="SVGID_21_" x="-75.8" y="319.7" width="9.8" height="13.1"/>
				</defs>
				<clipPath id="SVGID_22_">
					<use xlink:href="#SVGID_21_"  style="overflow:visible;"/>
				</clipPath>
				<g class="st14">
					<path class="st1" d="M-68,332.1c0.1-0.2,0.1-0.4,0-0.6l-6.6-11.2l6.6,11.2C-68.1,331.7-68,331.8-68,332.1z"/>
				</g>
			</g>
		</g>
		<g class="st2">
			<g>
				<defs>
					<rect id="SVGID_23_" x="-75.8" y="319.7" width="9.8" height="13.1"/>
				</defs>
				<clipPath id="SVGID_24_">
					<use xlink:href="#SVGID_23_"  style="overflow:visible;"/>
				</clipPath>
				<g class="st15">
					<path class="st1" d="M-68,332.1c0.1-0.2,0.1-0.4,0-0.6l-6.6-11.2l6.6,11.2C-68.1,331.7-68,331.8-68,332.1z"/>
				</g>
			</g>
		</g>
		<g class="st2">
			<g>
				<defs>
					<rect id="SVGID_25_" x="-85.6" y="329.6" width="16.4" height="16.4"/>
				</defs>
				<clipPath id="SVGID_26_">
					<use xlink:href="#SVGID_25_"  style="overflow:visible;"/>
				</clipPath>
				<g class="st16">
					<path class="st1" d="M-75.8,345.8l-7.9-13.6l0,0L-75.8,345.8l6.3-10.7L-75.8,345.8z"/>
				</g>
			</g>
		</g>
		<g class="st2">
			<g>
				<defs>
					<rect id="SVGID_27_" x="-85.6" y="329.6" width="16.4" height="16.4"/>
				</defs>
				<clipPath id="SVGID_28_">
					<use xlink:href="#SVGID_27_"  style="overflow:visible;"/>
				</clipPath>
				<g class="st17">
					<path class="st1" d="M-75.8,345.8l-7.9-13.6l0,0L-75.8,345.8l6.3-10.7L-75.8,345.8z"/>
				</g>
			</g>
		</g>
		<g class="st2">
			<g>
				<defs>
					<rect id="SVGID_29_" x="-82.3" y="316.4" width="6.6" height="9.8"/>
				</defs>
				<clipPath id="SVGID_30_">
					<use xlink:href="#SVGID_29_"  style="overflow:visible;"/>
				</clipPath>
				<g class="st18">
					<path class="st1" d="M-76,317.6l-3.5,6L-76,317.6z"/>
				</g>
			</g>
		</g>
		<g class="st2">
			<g>
				<defs>
					<rect id="SVGID_31_" x="-82.3" y="316.4" width="6.6" height="9.8"/>
				</defs>
				<clipPath id="SVGID_32_">
					<use xlink:href="#SVGID_31_"  style="overflow:visible;"/>
				</clipPath>
				<g class="st19">
					<path class="st1" d="M-76,317.6l-3.5,6L-76,317.6z"/>
				</g>
			</g>
		</g>
		<path class="st1" d="M-69.6,335.2l1.5-2.5c0.1-0.2,0.1-0.4,0-0.6c0.1,0.2,0.1,0.4,0,0.6L-69.6,335.2z"/>
		<path class="st1" d="M-76,317.6l1.4,2.7L-76,317.6z"/>
		<path class="st1" d="M-83.7,331l4.2-7.3L-83.7,331c-0.3,0.4-0.3,0.9,0,1.3C-84,331.9-84,331.3-83.7,331z"/>
		<path class="st1" d="M-83.7,331c-0.3,0.4-0.3,0.9,0,1.3l0,0l7.9,13.7l6.2-10.7l1.5-2.5c0.1-0.2,0.1-0.4,0-0.6
			c0.1-0.2,0.1-0.4,0-0.6l-6.6-11.3l-1.5-2.5l-3.5,5.7L-83.7,331z"/>
		<g class="st2">
			<g>
				<defs>
					<rect id="SVGID_33_" x="-79" y="300" width="55.7" height="62.3"/>
				</defs>
				<clipPath id="SVGID_34_">
					<use xlink:href="#SVGID_33_"  style="overflow:visible;"/>
				</clipPath>
				<g class="st20">
					<path class="st1" d="M-37.7,341.2L-37.7,341.2l-22-38h-7.2c-0.5,0-0.9,0.3-1.1,0.7L-76,318l1.5,2.5l6.6,11.2
						c0.1,0.2,0.1,0.4,0,0.6c0.1,0.2,0.1,0.4,0,0.6l-1.5,2.5l-6.3,10.5l7.9,13.6c0.2,0.4,0.7,0.6,1.1,0.7h31.6
						c0.5-0.1,0.9-0.3,1.1-0.7l10.4-17.9h-12.8C-36.9,341.6-37.3,341.5-37.7,341.2z"/>
				</g>
			</g>
		</g>
		<g class="st2">
			<g>
				<defs>
					<rect id="SVGID_35_" x="-65.9" y="247.6" width="108.2" height="95.1"/>
				</defs>
				<clipPath id="SVGID_36_">
					<use xlink:href="#SVGID_35_"  style="overflow:visible;"/>
				</clipPath>
				<g class="st21">
					<path class="st1" d="M37.1,288.7h-24c-0.2,0.1-0.5,0.1-0.7,0c0,0-0.3,0-0.4-0.3l0,0l-15.7-27.4c0,0,0,0,0-0.3v-0.3
						c-0.1-0.2-0.1-0.5,0-0.7l5.1-8.9h-38.1c-0.5,0-0.9,0.3-1.1,0.7l-25.6,43.7c-0.3,0.4-0.3,1,0,1.4l3.6,6.6h24.5
						c0.3,0,0.5,0.1,0.7,0.3l0.4,0.4l10.3,17.6l5.6,9.6c0.1,0.3,0.1,0.7,0,1c0,0.1,0,0.2,0,0.3l-5.4,9.3h38.2c0.5,0,0.9-0.3,1.1-0.7
						l25.6-44.2c0.3-0.4,0.3-1,0-1.4L37.1,288.7z"/>
				</g>
			</g>
		</g>
		<path class="st0" d="M-4,260.2c0,0.1,0,0.2,0,0.3l15.7,27.2l0,0c0,0,0.3,0.3,0.4,0.3c0.2,0.1,0.5,0.1,0.7,0h24l-21.4-37.3
			c-0.2-0.4-0.6-0.7-1.1-0.7H1.2l-5.1,8.9c0,0,0,0.4,0,0.7L-4,260.2z"/>
		<polygon class="st0" points="87.9,314.3 95.8,314.3 95.8,333.5 114,333.5 114,314.3 121.9,314.3 121.9,360.2 114,360.2 114,340.6 
			95.8,340.6 95.8,360.2 87.9,360.2 		"/>
		<path class="st22" d="M415,243.3c1.4-9.3,10.1-15.7,19.4-14.2c7.3,1.1,13.1,6.9,14.2,14.2H415z M431.7,213.9
			c-23.2,0-36.3,18.2-36.3,37.4c0,20.4,14.1,38.4,36.4,38.4c11.3,0,22.3-4.2,28.5-11.7c2.7-2.9,4.4-6.5,5-10.4
			c0.1-0.8-0.2-1.7-0.7-2.4c-0.7-0.8-1.7-1.2-2.8-1.1H451c-1.9-0.1-3.7,0.8-4.7,2.4c-3.2,4.8-8.7,7.5-14.5,7.1
			c-9,0.2-16.6-6.9-16.9-16h46.9c1.7,0.2,3.4-0.4,4.6-1.5c1.3-1.5,1.9-3.6,1.7-5.6c0.1-9-2.9-17.8-8.5-24.9
			C452.6,217.8,442.4,213.5,431.7,213.9 M461.3,203.7c1.2,0,2.3-0.4,3.3-1.1c0.9-0.9,1.3-2.2,1.2-3.5v-6.3c0.2-1.6-0.2-3.2-1.2-4.5
			c-0.9-0.8-2.1-1.3-3.3-1.2c-1.1,0-2.1,0-3.9,0.3l-53.6,5.3c-1.1,0-2.1,0.4-2.8,1.2c-0.6,0.8-0.9,1.8-0.9,2.8v3.5
			c-0.1,0.9,0.2,1.8,0.7,2.5c0.7,0.7,1.6,1.1,2.6,1L461.3,203.7z M197.7,243.3c0.8-8.6,8.2-15,16.8-14.5c8.5-0.4,15.9,5.9,16.8,14.5
			H197.7z M369,282.2c-0.1,1.5,0.4,2.9,1.4,4c1.1,1.4,2.7,2.1,4.5,2h7.9c1.7,0.1,3.4-0.6,4.5-2c1-1.1,1.5-2.6,1.4-4v-87.6
			c0.1-1.5-0.4-2.9-1.4-4c-1.1-1.3-2.7-2.1-4.5-1.9h-7.9c-1.7-0.1-3.4,0.6-4.5,1.9c-0.9,1.1-1.4,2.6-1.4,4V282.2z M328,216.6h-3.9
			c-1.2,0-2.4,0.4-3.3,1.1c-0.9,0.9-1.4,2.2-1.3,3.5v4.6c-0.1,1.2,0.4,2.4,1.3,3.3c0.9,0.8,2.1,1.2,3.3,1.1h3.8v33.5
			c-0.5,6.7,1.9,13.4,6.6,18.2c5,4.6,11.6,6.9,18.4,6.4h5.7c1.2,0,2.3-0.4,3.3-1.1c0.9-0.9,1.4-2.2,1.4-3.5v-5.8
			c0.1-1.3-0.4-2.6-1.4-3.5c-0.9-0.8-2.1-1.2-3.3-1.1h-0.9c-2.8,0.2-5.6-0.7-7.8-2.5c-2.1-2.3-3.2-5.3-3-8.5v-32.1h12.2
			c1.2,0,2.4-0.4,3.3-1.1c0.9-0.9,1.4-2.2,1.2-3.5V221c0.1-1.3-0.3-2.6-1.2-3.5c-0.9-0.8-2.1-1.2-3.3-1.1h-12v-21.8
			c0.1-1.5-0.4-2.9-1.4-4c-1.1-1.3-2.7-2.1-4.5-1.9H334c-1.7-0.1-3.4,0.6-4.5,1.9c-0.9,1.1-1.4,2.6-1.4,4v22H328z M286.2,214.1
			c-18.4,0-30.5,8.8-30.5,22.7c-0.1,4.5,1.6,8.8,4.7,12.1c4.2,4.2,9.6,7,15.4,8.1l15.3,3.9c4.2,1.1,7.9,2.4,7.9,6
			c0,5.7-6,7.6-12.5,7.6c-3.2,0.1-6.3-0.6-9.2-1.9c-1.9-0.9-3.4-2.3-4.6-4c-0.7-1.4-1.7-2.7-2.9-3.6c-1.1-0.5-2.4-0.7-3.6-0.6H258
			c-1.2-0.1-2.4,0.4-3.3,1.2c-0.6,0.9-0.9,1.9-0.8,2.9c0.1,3.3,1.3,6.4,3.3,9c5.1,6.8,15.7,12.4,29.3,12.4c13.6,0,32-5.5,32-23.5
			c0.1-4.2-1.2-8.4-3.7-11.8c-3.9-4.6-9.3-7.8-15.3-8.9l-15.1-3.9c-6.3-1.7-9.3-2.8-9.3-6.6s3.3-6.8,11.1-6.8
			c4.2-0.4,8.3,1,11.4,3.7c2.2,2.4,1.8,3.6,3.6,4.5c1.3,0.5,2.8,0.7,4.2,0.6h7.5c1,0.1,2.1-0.2,2.8-1c0.7-0.9,1-2,0.8-3
			c-0.4-4.5-2.7-8.6-6.2-11.4c-6.8-5.2-15.2-7.9-23.8-7.5 M214.5,214.2c-23.2,0-36.3,18.2-36.3,37.4c0,20.4,14,38.4,36.4,38.4
			c11.2,0,22.2-4.2,28.5-11.7c2.7-2.9,4.4-6.5,5-10.4c0.1-0.9-0.2-1.7-0.7-2.4c-0.7-0.8-1.7-1.2-2.8-1.1h-10.9
			c-1.9-0.1-3.7,0.8-4.7,2.4c-3.2,4.8-8.7,7.5-14.5,7.1c-9.1,0.2-16.6-6.9-17-16h46.7c1.7,0,3.3-0.7,4.4-1.9
			c1.3-1.5,1.9-3.6,1.7-5.6c0.1-9-2.9-17.8-8.5-24.9c-7-7.9-17.1-12.2-27.6-11.7 M153.2,190.9c-1.1,1.3-1.7,2.9-1.5,4.6v60.9h-0.3
			c0,0-33.3-59.4-34.8-62.2c-0.9-1.8-2.3-3.3-4-4.3c-2.1-1.2-4.4-1.7-6.8-1.5H94.7c-2-0.1-4,0.7-5.3,2.2c-1.1,1.3-1.7,2.9-1.5,4.6
			v86.3c-0.1,1.7,0.4,3.3,1.5,4.6c1.3,1.5,3.3,2.4,5.3,2.2h6.2c3.5,0.3,6.6-2.3,6.9-5.9c0-0.3,0-0.6,0-1v-62.3h0.3
			c0,0,34.6,61.3,36.1,63.5c2,3.5,5.8,5.6,9.8,5.5h10.7c3.5,0.3,6.5-2.3,6.8-5.8c0-0.3,0-0.6,0-1v-78h140c1.2,0,2.4-0.4,3.3-1.1
			c0.9-0.9,1.3-2.2,1.2-3.5v-5.7c0.1-1.3-0.3-2.6-1.2-3.5c-0.9-0.8-2.1-1.2-3.3-1.1h-153C156.5,188.5,154.5,189.3,153.2,190.9"/>
		<g class="st7">
			<g>
				<defs>
					<rect id="SVGID_37_" x="-0.4" y="231.2" width="62.3" height="59"/>
				</defs>
				<clipPath id="SVGID_38_">
					<use xlink:href="#SVGID_37_"  style="overflow:visible;"/>
				</clipPath>
				<g class="st23">
					<path class="st0" d="M61.4,259.2L45.7,232c-0.2-0.4-0.6-0.7-1.1-0.7H13.1c-0.5,0-0.9,0.3-1.1,0.7L1.3,250.5h13.1
						c0.5,0,0.9,0.3,1.1,0.7l21.6,37.5h7.4c0.5,0,0.9-0.3,1.1-0.7l15.7-27.2C61.7,260.4,61.8,259.7,61.4,259.2z"/>
				</g>
			</g>
		</g>
		<g class="st2">
			<g>
				<defs>
					<rect id="SVGID_39_" x="-108.5" y="313.2" width="32.8" height="39.3"/>
				</defs>
				<clipPath id="SVGID_40_">
					<use xlink:href="#SVGID_39_"  style="overflow:visible;"/>
				</clipPath>
				<g class="st24">
					<path class="st1" d="M-83.8,332.1c-0.2-0.4-0.2-0.8,0-1.2l4.2-7.3l3.3-5.9l-1.5-2.7c-0.2-0.4-0.6-0.6-1-0.6h-18.9
						c-0.4,0-0.8,0.2-1,0.6l-9.6,16.4c-0.1,0.4-0.1,0.8,0,1.1l9.6,16.4c0.2,0.3,0.6,0.5,1,0.6h19c0.4-0.1,0.7-0.3,1-0.6l1.8-3.3
						l-7.9-13.8V332.1z"/>
				</g>
			</g>
		</g>
		<g class="st2">
			<g>
				<defs>
					<rect id="SVGID_41_" x="-131.5" y="280.4" width="36.1" height="29.5"/>
				</defs>
				<clipPath id="SVGID_42_">
					<use xlink:href="#SVGID_41_"  style="overflow:visible;"/>
				</clipPath>
				<g class="st25">
					<path class="st1" d="M-104.4,309l7.2-12.4c0.3-0.4,0.3-0.9,0-1.2l-7.2-12.4c-0.2-0.4-0.7-0.6-1.1-0.6h-14.2
						c-0.4,0-0.8,0.2-1.1,0.6l-7.2,12.3c-0.3,0.4-0.3,0.9,0,1.2l7.2,12.4c0.2,0.4,0.7,0.6,1.1,0.6h14.4
						C-104.9,309.5-104.6,309.3-104.4,309z"/>
				</g>
			</g>
		</g>
	</g>
</g>
</svg>
