<?xml version="1.0" encoding="utf-8"?>
<!-- Generator: Adobe Illustrator 25.0.1, SVG Export Plug-In . SVG Version: 6.00 Build 0)  -->
<svg version="1.0" id="katman_1" xmlns="http://www.w3.org/2000/svg" xmlns:xlink="http://www.w3.org/1999/xlink" x="0px" y="0px"
	 viewBox="0 0 560 400" style="enable-background:new 0 0 560 400;" xml:space="preserve">
<style type="text/css">
	.st0{fill-rule:evenodd;clip-rule:evenodd;fill:#166FC0;}
</style>
<path class="st0" d="M102.9,245c-24.7,0-44.8-20.2-44.8-45.2c0-24.6,20.2-44.8,44.8-44.8c25,0,45.2,20.2,45.2,44.8
	C148.1,224.8,127.9,245,102.9,245z M379.4,245c-24.7,0-44.8-20.2-44.8-45.2c0-24.6,20.2-44.8,44.8-44.8c25,0,45.2,20.2,45.2,44.8
	C424.6,224.8,404.4,245,379.4,245z M471.8,157c16.8,0,30.1,13.4,30.1,30.1v55.8h-18.8v-56.5c0-7.2-6.2-13-13.3-13h-21.3v69.5h-18.8
	v-85.2c6.1-0.7,12.7-0.7,18.8-0.7L471.8,157L471.8,157z M302.7,157c16.5,0,29.4,13.4,29.4,29.4c0,11.6-6.8,21.6-17.1,25.3l21.2,31.1
	H313l-29.1-43.1H300c7.6,0,13.4-5.8,13.4-13.3c0-7.2-5.8-13-13.4-13h-22.2v69.5H259v-85.2c6.1-0.7,12.3-0.7,18.8-0.7L302.7,157
	L302.7,157z M221,157c16.8,0,30.1,13.4,30.1,30.1v55.8h-18.8v-56.5c0-7.2-5.8-13-13.3-13h-7.2v69.5h-18.8v-69.5H172v69.5h-18.8
	v-85.2c6.1-0.7,12.7-0.7,19.2-0.7L221,157L221,157z M102.9,226.2c14.7,0,26.3-11.6,26.3-26.4c0-14.4-11.6-26-26.3-26
	c-14.4,0-26,11.6-26,26C76.9,214.5,88.5,226.2,102.9,226.2L102.9,226.2z M379.4,226.2c14.7,0,26.3-11.6,26.3-26.4
	c0-14.4-11.6-26-26.3-26c-14.4,0-26,11.6-26,26C353.4,214.5,365,226.2,379.4,226.2L379.4,226.2z"/>
</svg>
