<?xml version="1.0" encoding="utf-8"?>
<!-- Generator: Adobe Illustrator 26.0.3, SVG Export Plug-In . SVG Version: 6.00 Build 0)  -->
<svg version="1.0" id="katman_1" xmlns="http://www.w3.org/2000/svg" xmlns:xlink="http://www.w3.org/1999/xlink" x="0px" y="0px"
	 viewBox="0 0 800 600" style="enable-background:new 0 0 800 600;" xml:space="preserve">
<style type="text/css">
	.st0{fill-rule:evenodd;clip-rule:evenodd;fill:#2CB7DF;}
	.st1{fill-rule:evenodd;clip-rule:evenodd;fill:#263077;}
</style>
<g>
	<path class="st0" d="M138.2,296.9c0-13.2-10.7-23.8-23.8-23.8c-13.2,0-23.8,10.7-23.8,23.8c0,13.2,10.7,23.8,23.8,23.8
		C127.5,320.7,138.2,310,138.2,296.9 M709.1,296.9c0-13.2-10.7-23.8-23.8-23.8c-13.2,0-23.8,10.7-23.8,23.8
		c0,13.2,10.7,23.8,23.8,23.8C698.5,320.7,709.1,310,709.1,296.9"/>
	<path class="st1" d="M456.2,318.3c-11.6,0-21-8.5-21-21.4c0-12.9,9.4-21.4,21-21.4c7.5,0,13.9,3.5,17.8,9.6l19.4-13.9
		c-8.1-11.8-21.7-19.5-37.2-19.5c-24.9,0-45.2,20.2-45.2,45.2c0,24.9,20.2,45.2,45.2,45.2c14.8,0,28-6.6,38.1-20.5L474.8,308
		C470.7,314.1,464.3,318.3,456.2,318.3 M354.8,318.3c-11.6,0-21-8.5-21-21.4c0-12.9,9.4-21.4,21-21.4c11.6,0,21,8.6,21,21.4
		C375.8,309.7,366.4,318.3,354.8,318.3z M376.3,261.6c-6-5.7-14-10-25.3-10c-21.4,0-41.3,18.1-41.3,45.2c0,27.1,19.7,45.2,41.3,45.2
		c10.4,0,18.4-4.1,24.4-10v7.4h24.2v-85.2h-23.3C376.3,254.3,376.3,261.6,376.3,261.6z M274.7,264.2v-9.9h-23.3v85.2h24.2v-40.4
		c0-17,9.4-21.6,19.9-21.6c2.6,0,5.3,0.2,8.2,0.9v-24.1c-1.7-0.5-4.3-0.9-6.9-0.9C289.9,253.4,280.1,255.7,274.7,264.2 M527,229.4
		h-24.2v83.1c0,17,10.4,27.6,30.9,27.6c8.2,0,15.9-1.2,21-2.6v-21.7c-4.7,1.4-10,2.4-16.6,2.4c-6.8,0-11.1-1.9-11.1-8.9v-33.9h28.1
		v-21.4H527V229.4 M606.3,318.3c-11.6,0-21-8.5-21-21.4c0-12.9,9.4-21.4,21-21.4c11.6,0,21,8.6,21,21.4
		C627.3,309.7,617.9,318.3,606.3,318.3z M606.3,251.7c-24.9,0-45.2,20.2-45.2,45.2c0,24.9,20.2,45.2,45.2,45.2
		c24.9,0,45.2-20.2,45.2-45.2C651.5,271.9,631.2,251.7,606.3,251.7z M194.7,318.3c-11.6,0-21-8.6-21-21.4c0-12.8,9.4-21.4,21-21.4
		c11.6,0,21,8.5,21,21.4C215.7,309.7,206.3,318.3,194.7,318.3z M198.6,251.7c-11.3,0-19.3,4.3-25.3,10v-7.4H150v115.5h24.2l0-37.7
		c6,5.9,14,10,24.4,10c21.6,0,41.3-18.1,41.3-45.2C239.9,269.7,220,251.7,198.6,251.7z"/>
</g>
</svg>
