<?xml version="1.0" encoding="utf-8"?>
<!-- Generator: Adobe Illustrator 24.3.0, SVG Export Plug-In . SVG Version: 6.00 Build 0)  -->
<svg version="1.0" id="katman_1" xmlns="http://www.w3.org/2000/svg" xmlns:xlink="http://www.w3.org/1999/xlink" x="0px" y="0px"
	 viewBox="0 0 841.89 595.28" style="enable-background:new 0 0 841.89 595.28;" xml:space="preserve">
<style type="text/css">
	.st0{fill:#1D1D1B;}
	.st1{fill-rule:evenodd;clip-rule:evenodd;fill:url(#SVGID_1_);}
</style>
<g>
	<path class="st0" d="M355.61,271.88c2.7-1.09,5.19-2.4,7.44-3.91c3.22-2.16,5.96-4.72,8.15-7.59c2.2-2.88,3.9-6.12,5.07-9.65
		c1.16-3.52,1.75-7.29,1.75-11.23c0-4.95-0.86-9.56-2.57-13.71c-1.73-4.21-4.49-7.87-8.18-10.88c-3.65-2.97-8.36-5.31-14-6.94
		c-5.57-1.61-12.32-2.43-20.06-2.43h-35.88v115.24h24.51v-43.55h6.98c2.15,0,3.24,0.34,3.77,0.62c0.77,0.41,1.51,1.16,2.21,2.23
		l23.43,35.68c1.03,1.58,2.33,2.83,3.84,3.69c1.54,0.88,3.4,1.33,5.52,1.33h22.21l-29.9-44.11c-1.27-1.85-2.7-3.45-4.28-4.78
		L355.61,271.88z M321.84,225.36h11.37c7.17,0,12.52,1.39,15.88,4.12c3.29,2.68,4.89,6.46,4.89,11.56c0,2.58-0.42,4.97-1.26,7.1
		c-0.81,2.08-2.07,3.91-3.72,5.42c-1.67,1.53-3.86,2.76-6.49,3.65c-2.69,0.91-5.93,1.37-9.61,1.37h-11.06L321.84,225.36
		L321.84,225.36z"/>
	<path class="st0" d="M453.58,248.21c-3.56-3.67-7.92-6.54-12.95-8.53c-5.01-1.98-10.65-2.98-16.76-2.98s-11.77,1-16.8,2.98
		c-5.06,1.99-9.44,4.86-13.03,8.53s-6.4,8.19-8.36,13.45c-1.95,5.22-2.93,11.12-2.93,17.54c0,6.42,0.99,12.39,2.93,17.61
		c1.96,5.26,4.77,9.81,8.35,13.52c3.59,3.73,7.98,6.63,13.04,8.62c5.03,1.98,10.68,2.98,16.8,2.98s11.76-1,16.76-2.98
		c5.04-1.99,9.4-4.89,12.96-8.62c3.56-3.72,6.34-8.27,8.27-13.53c1.92-5.22,2.89-11.14,2.89-17.61s-0.97-12.31-2.89-17.53
		c-1.93-5.26-4.72-9.79-8.28-13.46V248.21z M436.93,297.68c-2.81,3.93-7.08,5.84-13.07,5.84s-10.43-1.92-13.27-5.88
		c-2.94-4.1-4.43-10.25-4.43-18.29s1.49-14.22,4.43-18.37c2.84-4,7.17-5.95,13.26-5.95s10.26,1.93,13.07,5.91
		c2.91,4.12,4.39,10.32,4.39,18.41S439.83,293.6,436.93,297.68L436.93,297.68z"/>
	<path class="st0" d="M530.3,296.5c-1.61,0-3.07,0.51-4.36,1.52c-0.94,0.74-2.04,1.54-3.27,2.41c-1.16,0.81-2.62,1.57-4.36,2.26
		c-1.64,0.65-3.89,0.98-6.66,0.98c-2.77,0-5.21-0.52-7.36-1.55c-2.13-1.02-3.97-2.54-5.48-4.52c-1.54-2.03-2.75-4.6-3.58-7.64
		c-0.85-3.11-1.28-6.73-1.28-10.75c0-4.02,0.39-7.4,1.17-10.44c0.76-2.96,1.91-5.5,3.43-7.56c1.47-2,3.35-3.55,5.58-4.62
		c2.25-1.08,4.93-1.63,7.97-1.63c2.4,0,4.42,0.27,5.99,0.79c1.64,0.55,3.07,1.17,4.24,1.85c1.26,0.73,2.35,1.39,3.25,1.96
		c1.23,0.78,2.53,1.18,3.87,1.18c1.45,0,2.62-0.34,3.49-1c0.67-0.51,1.33-1.18,2-2.03l6-8.3l-1.14-1.14
		c-3.7-3.7-7.93-6.58-12.58-8.57c-4.66-1.99-10.14-3-16.27-3c-6.44,0-12.25,1.09-17.24,3.24c-5.01,2.15-9.28,5.18-12.69,8.99
		c-3.39,3.8-6,8.35-7.74,13.53c-1.73,5.13-2.6,10.76-2.6,16.75c0,6.67,0.99,12.71,2.93,17.96c1.95,5.27,4.65,9.8,8.01,13.45
		c3.38,3.68,7.4,6.52,11.95,8.44c4.53,1.91,9.42,2.88,14.53,2.88c2.85,0,5.77-0.21,8.67-0.64c2.95-0.43,5.85-1.18,8.6-2.22
		c2.77-1.05,5.48-2.47,8.06-4.21c2.59-1.75,5.03-3.96,7.24-6.54l1.01-1.18l-6.38-8.09c-1.12-1.67-2.85-2.55-5-2.55L530.3,296.5z"/>
	<path class="st0" d="M596.51,276.01c-0.39-0.49-0.81-0.96-1.26-1.4c0.43-0.35,0.85-0.73,1.25-1.12c0.97-0.94,1.92-1.99,2.83-3.11
		l27.18-32.46h-21.46c-1.93,0-3.56,0.39-4.83,1.16c-1.15,0.69-2.23,1.64-3.26,2.85l-19.63,24.25c-0.81,0.97-1.38,1.37-1.71,1.53
		c-0.25,0.13-0.87,0.34-2.16,0.34h-1.66v-65.58h-22.81v118.31h22.81v-36.23h2.43c1.65,0,2.38,0.23,2.67,0.36
		c0.25,0.12,0.78,0.48,1.55,1.65l20.11,29.98c1,1.51,2.18,2.6,3.5,3.26c1.29,0.64,2.84,0.97,4.62,0.97h20.77l-28.4-41.35
		C598.21,278.21,597.36,277.07,596.51,276.01L596.51,276.01z"/>
	<path class="st0" d="M692.87,283.14c0.94-0.38,1.69-1.03,2.24-1.91c0.48-0.77,0.79-1.75,0.96-2.98c0.14-1.04,0.21-2.33,0.21-3.84
		c0-5.91-0.9-11.26-2.67-15.89c-1.78-4.67-4.31-8.68-7.51-11.91c-3.21-3.24-7.08-5.73-11.5-7.41c-4.39-1.67-9.24-2.51-14.43-2.51
		c-6.14,0-11.75,1.09-16.67,3.24c-4.92,2.15-9.15,5.11-12.57,8.81c-3.42,3.69-6.08,8.07-7.9,13.04c-1.82,4.94-2.74,10.28-2.74,15.87
		c0,7.14,1.05,13.52,3.13,18.98c2.09,5.49,5,10.17,8.66,13.91c3.67,3.75,8.04,6.62,13,8.53c4.92,1.9,10.31,2.86,16.02,2.86
		c2.85,0,5.83-0.21,8.85-0.63c3.07-0.43,6.12-1.17,9.07-2.21c2.98-1.05,5.87-2.46,8.6-4.2c2.76-1.76,5.29-3.97,7.51-6.57l1.01-1.19
		l-6.47-8.09c-0.58-0.79-1.28-1.41-2.09-1.85c-0.84-0.46-1.82-0.69-2.91-0.69c-1.51,0-3.05,0.45-4.6,1.33
		c-1.23,0.7-2.68,1.49-4.33,2.35c-1.57,0.82-3.44,1.58-5.56,2.27c-2.03,0.66-4.52,0.99-7.4,0.99c-5.8,0-10.31-1.68-13.77-5.15
		c-3.14-3.14-5.1-8.07-5.82-14.66h46.8c1.13,0,2.07-0.16,2.87-0.49H692.87z M643.78,268.37c0.94-4.29,2.65-7.68,5.08-10.11
		c2.79-2.79,6.62-4.15,11.69-4.15c2.54,0,4.77,0.42,6.62,1.26c1.84,0.83,3.38,1.97,4.58,3.39c1.21,1.44,2.13,3.15,2.72,5.08
		c0.44,1.43,0.72,2.95,0.85,4.54h-31.54V268.37z"/>
	<path class="st0" d="M749.09,302.87l-0.08-0.12c-0.52-0.71-1.01-1.25-1.52-1.65c-1.27-0.99-3.22-1.16-4.92-0.12
		c-0.43,0.26-0.92,0.54-1.47,0.82c-0.51,0.27-1.13,0.53-1.84,0.78c-0.59,0.21-1.37,0.31-2.34,0.31c-1.53,0-2.65-0.46-3.52-1.45
		c-0.91-1.03-1.37-2.55-1.37-4.53v-40.95h20.81v-17.34h-20.81v-24.9h-11.75c-1.55,0-2.88,0.41-3.95,1.23
		c-1.12,0.85-1.84,2.04-2.14,3.55l-3.77,20.28l-12.99,2.13v9.16c0,1.89,0.59,3.37,1.75,4.41c1.1,0.98,2.41,1.48,3.92,1.48h6.13
		v42.28c0,7.3,2.04,13.15,6.07,17.37c4.05,4.25,9.83,6.4,17.17,6.4c4.04,0,8-0.63,11.77-1.87c3.81-1.25,7.23-3.13,10.18-5.58
		l1.26-1.05l-6.56-10.64H749.09z"/>
</g>
<g>
	<path class="st0" d="M323.17,362.65c-0.2,0.4-0.51,0.6-0.94,0.6c-0.31,0-0.72-0.18-1.21-0.53c-0.5-0.35-1.15-0.75-1.96-1.19
		c-0.81-0.44-1.8-0.84-2.98-1.19s-2.62-0.53-4.32-0.53c-1.53,0-2.93,0.22-4.19,0.66s-2.34,1.03-3.24,1.76
		c-0.89,0.74-1.59,1.59-2.09,2.57c-0.5,0.98-0.75,2-0.75,3.08c0,1.33,0.34,2.43,1.02,3.31c0.68,0.88,1.57,1.63,2.68,2.25
		s2.36,1.16,3.77,1.61c1.4,0.45,2.85,0.91,4.32,1.36c1.48,0.45,2.92,0.96,4.32,1.51s2.66,1.24,3.77,2.07c1.11,0.82,2,1.83,2.68,3.02
		s1.02,2.64,1.02,4.34c0,1.85-0.33,3.56-1,5.15s-1.63,2.97-2.9,4.13c-1.26,1.16-2.82,2.09-4.66,2.77c-1.85,0.68-3.95,1.02-6.3,1.02
		c-2.98,0-5.55-0.48-7.71-1.43c-2.16-0.95-4.09-2.19-5.79-3.73l0.98-1.45c0.14-0.23,0.3-0.4,0.47-0.51
		c0.17-0.11,0.41-0.17,0.72-0.17c0.37,0,0.82,0.23,1.36,0.68c0.54,0.45,1.24,0.94,2.11,1.47s1.94,1.02,3.24,1.47
		c1.3,0.45,2.89,0.68,4.79,0.68c1.79,0,3.36-0.25,4.73-0.75c1.36-0.5,2.5-1.17,3.41-2.02s1.6-1.85,2.07-3s0.7-2.36,0.7-3.64
		c0-1.42-0.34-2.6-1.02-3.53c-0.68-0.94-1.58-1.73-2.68-2.38c-1.11-0.65-2.36-1.21-3.77-1.66c-1.41-0.45-2.85-0.91-4.34-1.36
		c-1.49-0.45-2.94-0.95-4.34-1.49c-1.4-0.54-2.66-1.22-3.77-2.04c-1.11-0.82-2-1.82-2.68-3s-1.02-2.65-1.02-4.41
		c0-1.5,0.33-2.95,0.98-4.34c0.65-1.39,1.58-2.61,2.79-3.66c1.21-1.05,2.68-1.89,4.41-2.51s3.68-0.94,5.83-0.94
		c2.58,0,4.88,0.37,6.88,1.12s3.84,1.89,5.51,3.43l-0.89,1.41L323.17,362.65z"/>
	<path class="st0" d="M373.45,356.69c3.04,0,5.76,0.52,8.15,1.55c2.4,1.04,4.42,2.51,6.07,4.41s2.9,4.19,3.77,6.88
		c0.87,2.68,1.3,5.68,1.3,9.01c0,3.33-0.43,6.32-1.3,8.98c-0.87,2.67-2.12,4.95-3.77,6.86c-1.65,1.9-3.67,3.36-6.07,4.39
		c-2.4,1.02-5.12,1.53-8.15,1.53s-5.76-0.51-8.15-1.53c-2.4-1.02-4.43-2.48-6.09-4.39c-1.66-1.9-2.92-4.19-3.79-6.86
		c-0.87-2.67-1.3-5.66-1.3-8.98c0-3.32,0.43-6.32,1.3-9.01c0.87-2.68,2.13-4.97,3.79-6.88c1.66-1.9,3.69-3.37,6.09-4.41
		C367.7,357.2,370.42,356.69,373.45,356.69z M373.45,397.1c2.53,0,4.73-0.43,6.62-1.3c1.89-0.87,3.46-2.11,4.73-3.73
		c1.26-1.62,2.21-3.57,2.83-5.85c0.62-2.29,0.94-4.85,0.94-7.69s-0.31-5.37-0.94-7.66c-0.63-2.3-1.57-4.26-2.83-5.9
		c-1.26-1.63-2.84-2.89-4.73-3.77s-4.1-1.32-6.62-1.32s-4.73,0.44-6.62,1.32c-1.89,0.88-3.46,2.14-4.73,3.77
		c-1.26,1.63-2.21,3.6-2.85,5.9s-0.96,4.85-0.96,7.66s0.32,5.4,0.96,7.69c0.64,2.29,1.59,4.24,2.85,5.85
		c1.26,1.62,2.84,2.86,4.73,3.73S370.92,397.1,373.45,397.1z"/>
	<path class="st0" d="M426.34,399.74V361.8l-5.96-0.38c-0.82-0.06-1.23-0.41-1.23-1.06v-1.66h7.2v-5.36c0-2.41,0.31-4.54,0.94-6.37
		c0.62-1.83,1.5-3.36,2.64-4.58c1.13-1.22,2.5-2.14,4.11-2.75c1.6-0.61,3.37-0.92,5.3-0.92c0.88,0,1.77,0.08,2.66,0.23
		c0.89,0.16,1.68,0.38,2.36,0.66l-0.13,1.96c-0.03,0.4-0.3,0.6-0.81,0.6c-0.34,0-0.8-0.04-1.38-0.13c-0.58-0.09-1.3-0.13-2.15-0.13
		c-1.39,0-2.68,0.21-3.85,0.62c-1.18,0.41-2.19,1.07-3.04,1.98c-0.85,0.91-1.51,2.09-1.98,3.56c-0.47,1.46-0.7,3.26-0.7,5.39v5.24
		h13.75v3.02H430.4v38.02H426.34L426.34,399.74z"/>
	<path class="st0" d="M487.14,400.42c-2.87,0-5.1-0.79-6.68-2.38c-1.59-1.59-2.38-4.04-2.38-7.37v-28.95h-6.09
		c-0.31,0-0.57-0.09-0.77-0.26c-0.2-0.17-0.3-0.41-0.3-0.72v-1.58l7.24-0.51l1.01-15.16c0.03-0.25,0.13-0.48,0.32-0.68
		c0.18-0.2,0.43-0.3,0.74-0.3h1.89v16.18h13.33v3.02h-13.33v28.74c0,1.16,0.15,2.17,0.45,3c0.3,0.84,0.71,1.53,1.23,2.07
		c0.52,0.54,1.14,0.94,1.85,1.19c0.71,0.26,1.48,0.38,2.3,0.38c1.02,0,1.9-0.15,2.64-0.45c0.74-0.3,1.38-0.62,1.92-0.98
		c0.54-0.35,0.98-0.68,1.32-0.98c0.34-0.3,0.61-0.45,0.81-0.45c0.23,0,0.45,0.14,0.68,0.43l1.11,1.79
		c-1.08,1.19-2.45,2.15-4.11,2.87c-1.66,0.72-3.38,1.09-5.17,1.09L487.14,400.42z"/>
	<path class="st0" d="M520.61,357.37h3.11c0.4,0,0.72,0.11,0.98,0.32c0.26,0.21,0.43,0.45,0.51,0.7l10.69,33.43
		c0.2,0.65,0.35,1.28,0.47,1.87c0.11,0.6,0.23,1.19,0.34,1.79c0.14-0.6,0.3-1.19,0.47-1.79c0.17-0.6,0.37-1.22,0.6-1.87l11.37-33.72
		c0.2-0.62,0.6-0.94,1.19-0.94H552c0.62,0,1.04,0.31,1.23,0.94l11.2,33.72c0.43,1.28,0.77,2.51,1.02,3.7
		c0.11-0.6,0.23-1.2,0.36-1.81c0.13-0.61,0.31-1.24,0.53-1.89l10.73-33.43c0.23-0.68,0.71-1.02,1.45-1.02h2.98l-14.18,42.37h-2.98
		c-0.45,0-0.78-0.3-0.98-0.89l-11.63-34.4c-0.14-0.43-0.27-0.85-0.38-1.28s-0.21-0.85-0.3-1.28c-0.09,0.43-0.18,0.85-0.28,1.28
		c-0.1,0.43-0.22,0.85-0.36,1.28l-11.75,34.4c-0.17,0.6-0.51,0.89-1.02,0.89h-2.85L520.61,357.37L520.61,357.37z"/>
	<path class="st0" d="M635.87,399.74c-0.85,0-1.38-0.4-1.58-1.19l-0.6-5.41c-1.16,1.13-2.32,2.16-3.47,3.07
		c-1.15,0.91-2.35,1.67-3.6,2.3c-1.25,0.62-2.6,1.1-4.05,1.43s-3.04,0.49-4.77,0.49c-1.45,0-2.85-0.21-4.22-0.64
		c-1.36-0.43-2.57-1.08-3.62-1.96s-1.89-2.01-2.53-3.39s-0.96-3.03-0.96-4.96c0-1.79,0.51-3.45,1.53-4.98s2.62-2.87,4.79-4
		c2.17-1.14,4.97-2.04,8.39-2.73c3.42-0.68,7.53-1.08,12.33-1.19v-4.43c0-3.92-0.84-6.93-2.53-9.05c-1.69-2.11-4.19-3.17-7.52-3.17
		c-2.04,0-3.78,0.28-5.22,0.85c-1.43,0.57-2.65,1.19-3.64,1.87s-1.8,1.31-2.43,1.87c-0.62,0.57-1.15,0.85-1.58,0.85
		c-0.57,0-0.99-0.25-1.28-0.77l-0.72-1.23c2.21-2.21,4.54-3.89,6.98-5.02c2.44-1.14,5.21-1.7,8.3-1.7c2.27,0,4.26,0.36,5.96,1.09
		c1.7,0.73,3.11,1.76,4.24,3.11c1.12,1.35,1.97,2.98,2.53,4.9c0.57,1.92,0.85,4.05,0.85,6.41v27.59h-1.62L635.87,399.74z
		 M618.84,397.48c1.65,0,3.16-0.18,4.54-0.53s2.65-0.85,3.83-1.49c1.18-0.64,2.28-1.4,3.3-2.28c1.02-0.88,2.03-1.83,3.02-2.85V379.3
		c-4.03,0.11-7.5,0.42-10.41,0.92s-5.31,1.17-7.2,2.02s-3.28,1.87-4.17,3.04c-0.89,1.18-1.34,2.52-1.34,4.02
		c0,1.42,0.23,2.65,0.7,3.68c0.47,1.04,1.09,1.89,1.85,2.55c0.77,0.67,1.66,1.16,2.68,1.47s2.09,0.47,3.19,0.47L618.84,397.48z"/>
	<path class="st0" d="M671.13,399.74v-42.37h2.13c0.48,0,0.83,0.1,1.04,0.3c0.21,0.2,0.33,0.54,0.36,1.02l0.34,8.94
		c1.36-3.43,3.18-6.12,5.45-8.07c2.27-1.94,5.07-2.92,8.39-2.92c1.28,0,2.45,0.13,3.53,0.4s2.1,0.66,3.07,1.17l-0.55,2.81
		c-0.09,0.45-0.37,0.68-0.85,0.68c-0.17,0-0.41-0.06-0.72-0.17c-0.31-0.11-0.7-0.24-1.17-0.38c-0.47-0.14-1.04-0.27-1.72-0.38
		c-0.68-0.11-1.46-0.17-2.34-0.17c-3.21,0-5.84,0.99-7.9,2.98s-3.73,4.85-5,8.6v27.55h-4.04L671.13,399.74z"/>
	<path class="st0" d="M735.64,356.69c2.38,0,4.59,0.41,6.62,1.23c2.03,0.82,3.79,2.02,5.28,3.6c1.49,1.57,2.65,3.51,3.49,5.81
		c0.84,2.3,1.26,4.94,1.26,7.92c0,0.63-0.09,1.05-0.28,1.28c-0.19,0.23-0.47,0.34-0.87,0.34h-30.57v0.81c0,3.18,0.37,5.98,1.11,8.39
		s1.79,4.44,3.15,6.07c1.36,1.63,3.01,2.86,4.94,3.68c1.93,0.82,4.09,1.23,6.47,1.23c2.13,0,3.97-0.23,5.54-0.7s2.87-0.99,3.94-1.57
		c1.06-0.58,1.91-1.11,2.53-1.58s1.08-0.7,1.36-0.7c0.37,0,0.65,0.14,0.85,0.43l1.11,1.36c-0.68,0.85-1.58,1.65-2.7,2.38
		c-1.12,0.74-2.37,1.37-3.75,1.89c-1.38,0.52-2.85,0.94-4.43,1.26c-1.58,0.31-3.16,0.47-4.75,0.47c-2.9,0-5.54-0.5-7.92-1.51
		c-2.38-1.01-4.43-2.48-6.14-4.41c-1.71-1.93-3.03-4.29-3.96-7.09c-0.93-2.8-1.4-6-1.4-9.6c0-3.04,0.43-5.84,1.3-8.41
		s2.11-4.78,3.75-6.64c1.63-1.86,3.63-3.31,6-4.36C729.94,357.22,732.63,356.69,735.64,356.69L735.64,356.69z M735.7,359.71
		c-2.18,0-4.14,0.34-5.87,1.02c-1.73,0.68-3.22,1.66-4.49,2.94c-1.26,1.28-2.28,2.81-3.06,4.6c-0.78,1.79-1.3,3.79-1.55,6h27.89
		c0-2.27-0.31-4.31-0.93-6.11c-0.62-1.8-1.5-3.33-2.64-4.58s-2.49-2.21-4.08-2.87C739.38,360.04,737.63,359.71,735.7,359.71
		L735.7,359.71z"/>
</g>
<linearGradient id="SVGID_1_" gradientUnits="userSpaceOnUse" x1="259.4749" y1="1139.0236" x2="88.4849" y2="1310.0135" gradientTransform="matrix(1 0 0 1 3.051759e-05 -930.7256)">
	<stop  offset="0" style="stop-color:#D257FC"/>
	<stop  offset="0.15" style="stop-color:#B62DCC"/>
	<stop  offset="0.32" style="stop-color:#990099"/>
	<stop  offset="0.44" style="stop-color:#8312B6"/>
	<stop  offset="0.76" style="stop-color:#503EFF"/>
</linearGradient>
<path class="st1" d="M71.51,287.23c-1.43-0.39-2.64-1.32-3.38-2.6c-0.74-1.28-0.93-2.8-0.55-4.23c0.39-1.43,1.32-2.64,2.6-3.38
	c1.28-0.74,2.8-0.93,4.23-0.55l50.57,13.55l0,0c3.17,0.87,6.52,0.91,9.71,0.08l0.28-0.07c3.05-0.91,5.82-2.58,8.05-4.86l0.02,0.02
	l81.28-81.27c1.05-1.05,2.46-1.63,3.94-1.63s2.9,0.59,3.94,1.63c1.05,1.05,1.63,2.46,1.63,3.94s-0.59,2.9-1.63,3.94l-81.26,81.27
	v0.02c-3.58,3.64-8.06,6.28-12.98,7.69c-0.13,0.04-0.25,0.08-0.38,0.12c-5.07,1.34-10.4,1.31-15.46-0.09l0,0L71.51,287.23z
	 M90.32,268.46l25.88,6.93c5.06,1.41,10.4,1.43,15.47,0.08c5.07-1.36,9.69-4.05,13.37-7.79l33.19-33.19
	c1.05-1.05,1.64-2.48,1.64-3.96c0-1.48-0.59-2.91-1.64-3.96s-2.48-1.64-3.96-1.64s-2.91,0.59-3.96,1.64l-33.19,33.19
	c-2.47,2.47-5.32,4.13-8.36,4.95c-3.04,0.81-6.33,0.8-9.69-0.1l-25.87-6.93c-0.71-0.2-1.46-0.26-2.2-0.17
	c-0.74,0.09-1.45,0.32-2.09,0.69c-0.65,0.37-1.21,0.86-1.66,1.45c-0.45,0.59-0.79,1.26-0.98,1.98s-0.24,1.47-0.14,2.2
	c0.1,0.74,0.35,1.44,0.73,2.08c0.38,0.64,0.88,1.2,1.47,1.64c0.6,0.44,1.27,0.76,1.99,0.94V268.46z M191.35,393.39l-13.55-50.57
	c-0.88-3.17-0.92-6.52-0.09-9.7l0.07-0.29c0.9-3.05,2.57-5.83,4.84-8.06l81.27-81.28c1.05-1.05,1.63-2.46,1.63-3.94
	s-0.59-2.9-1.63-3.94c-1.05-1.05-2.46-1.63-3.94-1.63c-1.48,0-2.9,0.59-3.94,1.63l-81.26,81.26c-3.65,3.59-6.3,8.06-7.71,12.97
	c-0.04,0.13-0.08,0.25-0.12,0.38c-1.34,5.07-1.31,10.4,0.09,15.46h0.01l13.56,50.61c0.39,1.43,1.32,2.64,2.6,3.38
	c1.28,0.74,2.8,0.93,4.23,0.55c1.43-0.39,2.64-1.32,3.38-2.6C191.53,396.34,191.72,394.82,191.35,393.39L191.35,393.39
	L191.35,393.39z M210.14,374.6l-6.93-25.86c-0.88-3.17-0.92-6.52-0.09-9.71l0.07-0.28c0.91-3.05,2.58-5.82,4.86-8.05l33.2-33.19
	c1.05-1.05,1.64-2.48,1.64-3.96c0-1.48-0.59-2.91-1.64-3.96c-1.05-1.05-2.48-1.64-3.96-1.64s-2.91,0.59-3.96,1.64l-33.18,33.2
	c-3.64,3.6-6.29,8.07-7.69,12.99c-0.04,0.12-0.08,0.25-0.12,0.38c-1.34,5.07-1.31,10.4,0.09,15.46h0.01l6.94,25.9
	c0.19,0.71,0.52,1.37,0.97,1.95c0.45,0.58,1,1.07,1.64,1.43c0.63,0.37,1.34,0.6,2.06,0.7c0.73,0.09,1.46,0.04,2.17-0.15
	c0.71-0.19,1.37-0.52,1.95-0.97c0.58-0.45,1.07-1,1.43-1.64c0.36-0.63,0.6-1.34,0.69-2.06c0.09-0.73,0.04-1.46-0.15-2.17l0,0V374.6z
	 M253.23,206.67L84.13,375.75c-1.05,1.05-1.64,2.48-1.64,3.96s0.59,2.91,1.64,3.96c1.05,1.05,2.48,1.64,3.96,1.64
	s2.91-0.59,3.96-1.64l169.09-169.09c1.03-1.05,1.6-2.47,1.59-3.94c-0.01-1.47-0.6-2.88-1.64-3.92c-1.04-1.04-2.45-1.63-3.92-1.64
	C255.7,205.07,254.28,205.64,253.23,206.67z M118.57,309.64l-35.38,35.38c-1.05,1.05-1.64,2.48-1.64,3.96
	c0,1.49,0.59,2.91,1.64,3.96c1.05,1.05,2.48,1.64,3.96,1.64c1.49,0,2.91-0.59,3.96-1.64l35.37-35.38c0.52-0.52,0.93-1.14,1.22-1.82
	c0.28-0.68,0.43-1.41,0.43-2.14c0-0.73-0.14-1.47-0.43-2.15c-0.28-0.68-0.69-1.3-1.22-1.82c-0.52-0.52-1.14-0.93-1.82-1.22
	c-0.68-0.28-1.41-0.43-2.15-0.43c-0.74,0-1.47,0.15-2.15,0.43s-1.3,0.7-1.82,1.22v0.02L118.57,309.64z M150.27,341.32l-35.38,35.39
	c-1.05,1.05-1.64,2.48-1.64,3.96c0,1.49,0.59,2.91,1.64,3.96c1.05,1.05,2.48,1.64,3.96,1.64c1.49,0,2.91-0.59,3.96-1.64l35.37-35.39
	c1.03-1.06,1.6-2.47,1.59-3.94c-0.01-1.47-0.6-2.88-1.64-3.92c-1.04-1.04-2.45-1.63-3.92-1.64c-1.47,0-2.89,0.56-3.94,1.59
	L150.27,341.32z"/>
<path class="st0" d="M747.31,208.29c0-1.29,0.17-2.53,0.5-3.73c0.33-1.19,0.8-2.31,1.41-3.35c0.61-1.04,1.34-1.98,2.19-2.83
	c0.85-0.85,1.8-1.58,2.84-2.19c1.03-0.61,2.15-1.08,3.33-1.42c1.19-0.33,2.43-0.5,3.72-0.5s2.53,0.17,3.73,0.5
	c1.19,0.33,2.31,0.8,3.34,1.42c1.04,0.61,1.98,1.34,2.84,2.19c0.86,0.85,1.59,1.79,2.19,2.83c0.61,1.04,1.08,2.16,1.41,3.35
	c0.33,1.19,0.5,2.44,0.5,3.73c0,1.29-0.17,2.51-0.5,3.71c-0.33,1.19-0.8,2.31-1.41,3.34s-1.34,1.98-2.19,2.83
	c-0.86,0.85-1.8,1.58-2.84,2.19c-1.03,0.61-2.15,1.09-3.34,1.42c-1.2,0.33-2.44,0.5-3.73,0.5s-2.53-0.17-3.72-0.5
	c-1.19-0.33-2.3-0.8-3.33-1.42c-1.04-0.61-1.98-1.34-2.84-2.19c-0.86-0.85-1.59-1.79-2.19-2.83c-0.61-1.03-1.08-2.14-1.41-3.33
	C747.48,210.82,747.31,209.58,747.31,208.29z M749.23,208.29c0,1.14,0.14,2.23,0.42,3.28c0.28,1.05,0.68,2.03,1.21,2.94
	c0.52,0.91,1.15,1.74,1.88,2.48c0.73,0.74,1.54,1.38,2.43,1.91c0.89,0.53,1.86,0.94,2.89,1.23c1.04,0.29,2.11,0.43,3.24,0.43
	c1.69,0,3.27-0.32,4.74-0.96s2.76-1.51,3.85-2.61c1.09-1.1,1.96-2.4,2.59-3.89c0.63-1.49,0.95-3.09,0.95-4.8
	c0-1.14-0.14-2.23-0.43-3.29c-0.29-1.06-0.69-2.05-1.22-2.96s-1.15-1.75-1.89-2.5c-0.73-0.75-1.55-1.39-2.44-1.92
	s-1.86-0.94-2.9-1.24c-1.04-0.29-2.12-0.44-3.25-0.44c-1.69,0-3.26,0.32-4.73,0.97c-1.47,0.65-2.75,1.53-3.83,2.64
	c-1.09,1.12-1.94,2.43-2.57,3.93s-0.94,3.11-0.94,4.82V208.29z M758.54,210.01v6.78h-2.99v-17.08h5.52c2.2,0,3.83,0.4,4.89,1.2
	s1.59,1.97,1.59,3.53c0,1.2-0.34,2.22-1.03,3.06s-1.7,1.42-3.06,1.74c0.22,0.13,0.41,0.29,0.57,0.48s0.31,0.42,0.45,0.67l4.37,6.4
	h-2.84c-0.42,0-0.73-0.16-0.94-0.48l-3.85-5.78c-0.11-0.17-0.25-0.29-0.41-0.38c-0.16-0.09-0.41-0.13-0.74-0.13h-1.53L758.54,210.01
	z M758.54,207.83h2.22c0.7,0,1.3-0.07,1.79-0.2c0.49-0.13,0.89-0.33,1.19-0.58c0.3-0.26,0.52-0.57,0.65-0.94s0.2-0.8,0.2-1.28
	s-0.06-0.89-0.18-1.25s-0.32-0.65-0.59-0.88c-0.27-0.23-0.64-0.4-1.08-0.52c-0.45-0.11-1-0.17-1.67-0.17h-2.53L758.54,207.83
	L758.54,207.83z"/>
</svg>
