<?xml version="1.0" encoding="utf-8"?>
<!-- Generator: Adobe Illustrator 28.4.1, SVG Export Plug-In . SVG Version: 6.00 Build 0)  -->
<svg version="1.0" id="katman_1" xmlns="http://www.w3.org/2000/svg" xmlns:xlink="http://www.w3.org/1999/xlink" x="0px" y="0px"
	 viewBox="0 0 992.1 667.9" style="enable-background:new 0 0 992.1 667.9;" xml:space="preserve">
<style type="text/css">
	.st0{fill:#878787;}
	.st1{fill:#F08025;}
</style>
<g>
	<g>
		<path class="st0" d="M426.7,409.3c0,4.9-4.1,8.9-9.2,8.9h-5.7c-0.8,0-1.4-0.6-1.4-1.3v-15c0-0.7,0.6-1.3,1.4-1.3h5.7
			C422.6,400.5,426.7,404.4,426.7,409.3z M424,409.3c0-3.5-2.9-6.2-6.5-6.2h-4.4v12.5h4.4C421.1,415.6,424,412.8,424,409.3z"/>
		<path class="st0" d="M440.2,403.1v12.5h5.5v2.6H432v-2.6h5.5v-12.5H432v-2.6h13.8v2.6H440.2z"/>
		<path class="st0" d="M468.6,409.8v4.2c0,0.1,0,0.3-0.1,0.4c-1.6,2.5-4.5,4-7.8,4c-5.2,0-9.3-4.1-9.3-9.2c0-5.1,4.2-9.1,9.3-9.1
			c2.7,0,5.2,1.2,6.9,3.1l-1.9,1.8c-1.2-1.4-3-2.3-5-2.3c-3.7,0-6.6,2.9-6.6,6.5c0,3.6,3,6.6,6.6,6.6c2.1,0,4-0.9,5.2-2.4v-3.6
			H468.6z"/>
		<path class="st0" d="M482.8,403.1v12.5h5.5v2.6h-13.8v-2.6h5.5v-12.5h-5.5v-2.6h13.8v2.6H482.8z"/>
		<path class="st0" d="M510.4,403.1H504v15.1h-2.7v-15.1h-6.4v-2.6h15.5V403.1z"/>
		<path class="st0" d="M527.1,418.2l-5.7-13.1l-5.8,13.1h-3l7.5-17.2c0.2-0.5,0.7-0.8,1.3-0.8c0.6,0,1,0.3,1.3,0.8l7.5,17.2H527.1z"
			/>
		<path class="st0" d="M549.2,415.6v2.6H537c-0.8,0-1.5-0.6-1.5-1.4v-16.3h2.7v15.1H549.2z"/>
		<path class="st0" d="M562.7,416.6l1.1-2.4c2.2,1,4.5,1.6,6.9,1.6c3.5,0,5.6-1.1,5.6-2.7c0-2.2-2.5-2.5-5.4-2.8
			c-3.5-0.4-7.9-0.7-7.9-4.8c0-3.3,3.4-5.3,8-5.3c2.5,0,5.1,0.5,7.3,1.4l-1.1,2.4c-1.9-0.8-4.1-1.2-6.2-1.2c-3.2,0-5.3,0.8-5.3,2.8
			c0,2,2.7,2.1,5.2,2.4c3.7,0.4,8.1,1,8.1,5.2c0,3.3-3.6,5.4-8.3,5.4C567.9,418.5,565.2,417.8,562.7,416.6z"/>
		<path class="st0" d="M584.8,409.2c0-5.1,4.2-9.1,9.3-9.1c5.1,0,9.3,4,9.3,9.1c0,5.1-4.2,9.2-9.3,9.2
			C588.9,418.4,584.8,414.3,584.8,409.2z M600.7,409.2c0-3.6-3-6.5-6.6-6.5c-3.7,0-6.7,2.9-6.6,6.5c0,3.6,3,6.6,6.6,6.6
			C597.8,415.9,600.7,412.9,600.7,409.2z"/>
		<path class="st0" d="M622.7,415.6v2.6h-12.2c-0.8,0-1.4-0.6-1.4-1.4v-16.3h2.7v15.1H622.7z"/>
		<path class="st0" d="M627.6,410.6v-10.1h2.7v10.1c0,2.8,2.4,5.1,5.3,5.1c2.9,0,5.3-2.3,5.3-5.1v-10.1h2.7v10.1
			c0,4.3-3.6,7.8-8,7.8C631.2,418.4,627.6,414.9,627.6,410.6z"/>
		<path class="st0" d="M665,403.1h-6.4v15.1h-2.7v-15.1h-6.4v-2.6H665V403.1z"/>
		<path class="st0" d="M679.1,403.1v12.5h5.5v2.6h-13.8v-2.6h5.5v-12.5h-5.5v-2.6h13.8v2.6H679.1z"/>
		<path class="st0" d="M690,409.2c0-5.1,4.2-9.1,9.3-9.1c5.1,0,9.3,4,9.3,9.1c0,5.1-4.2,9.2-9.3,9.2
			C694.2,418.4,690,414.3,690,409.2z M706,409.2c0-3.6-3-6.5-6.6-6.5c-3.7,0-6.7,2.9-6.6,6.5c0,3.6,3,6.6,6.6,6.6
			C703,415.9,706,412.9,706,409.2z"/>
		<path class="st0" d="M730,400.5v16.6c0,0.8-0.6,1.4-1.4,1.4c-0.5,0-0.9-0.2-1.1-0.5l-10.5-12.8v13.1h-2.7v-16.7
			c0-0.8,0.6-1.4,1.4-1.4c0.4,0,0.8,0.2,1.1,0.5l10.5,13v-13.2H730z"/>
		<path class="st0" d="M736.9,416.6l1.1-2.4c2.2,1,4.5,1.6,6.9,1.6c3.5,0,5.6-1.1,5.6-2.7c0-2.2-2.5-2.5-5.4-2.8
			c-3.5-0.4-7.9-0.7-7.9-4.8c0-3.3,3.4-5.3,8-5.3c2.5,0,5.1,0.5,7.3,1.4l-1.1,2.4c-1.9-0.8-4.1-1.2-6.2-1.2c-3.2,0-5.3,0.8-5.3,2.8
			c0,2,2.7,2.1,5.2,2.4c3.7,0.4,8.1,1,8.1,5.2c0,3.3-3.6,5.4-8.3,5.4C742.1,418.5,739.4,417.8,736.9,416.6z"/>
	</g>
	<g>
		<path d="M358,282.2l-40.7,96.3c-1.8,4.1-5.5,7.1-10.4,7.1c-4.9,0-9.2-2.9-10.9-7.1l-40.7-96.3H282l24.6,58.2l24.6-58.2H358z"/>
		<path d="M383.5,307.3v14h52.3v25.1h-52.3v14h56.4v25.1h-68.7c-6.7,0-12.3-5.7-12.3-12.6v-78.2c0-6.8,5.6-12.6,12.3-12.6h68.7v25.1
			H383.5z"/>
		<path d="M551.6,289.9v95.6h-15.1v-74.6l-34.4,50l-34.4-50.1v74.7h-15.1v-95.6c0-4.3,3.4-7.7,7.8-7.7c2.5,0,4.5,1.1,6,2.9
			l35.6,51.2l35.7-51.2c1.4-1.8,3.6-2.9,6-2.9C548.1,282.2,551.6,285.6,551.6,289.9z"/>
		<path d="M579.7,297.5v28.6h58.7v15.4h-58.7v28.6h62.8v15.4h-69.8c-4.4,0-8.1-3.8-8.1-8.2v-87c0-4.5,3.7-8.1,8.1-8.1h69.8v15.4
			H579.7z"/>
		<path d="M745.1,333.8c0,28.8-22.6,51.7-50.8,51.7h-31.6c-4.4,0-7.8-3.5-7.8-7.8V290c0-4.3,3.3-7.8,7.6-7.8h31.8
			C722.4,282.2,745.1,305.1,745.1,333.8z M730.2,333.8c0-20.2-15.9-36.3-35.8-36.3h-24.4v72.6h24.4
			C714.3,370.1,730,354.1,730.2,333.8z"/>
		<path d="M780.8,352.5l-39.9-70.4h17.3l30,53.3l30-53.3h17.3l-39.9,70.4v32.9h-14.6V352.5z"/>
		<path d="M891.4,385.5l-32.2-75.3l-32.6,75.3h-17l42.4-98.4c1.2-3,4.2-4.8,7.3-4.8c3.2,0,5.8,1.8,7.1,4.8l42,98.4H891.4z"/>
		<g>
			<defs>
				<path id="SVGID_1_" d="M860.5,378.2L847.3,361c-1.1-1.4,0-3.3,1.8-3.3h26.1c1.8,0,2.9,1.9,1.8,3.3l-13.2,17.2
					C862.9,379.3,861.3,379.3,860.5,378.2z"/>
			</defs>
			<use xlink:href="#SVGID_1_"  style="overflow:visible;fill:#F07E26;"/>
			<clipPath id="SVGID_00000155110198979189445740000004367101047109584050_">
				<use xlink:href="#SVGID_1_"  style="overflow:visible;"/>
			</clipPath>
		</g>
	</g>
	<path class="st1" d="M169.4,248c-47.5,0-85.9,38.5-85.9,85.9s38.5,85.9,85.9,85.9s85.9-38.5,85.9-85.9S216.8,248,169.4,248z
		 M169.4,411.3c-42.7,0-77.3-34.6-77.3-77.3s34.6-77.3,77.3-77.3s77.3,34.6,77.3,77.3S212.1,411.3,169.4,411.3z"/>
	<g>
		<path class="st1" d="M180,366L180,366l-16.3,28.2l-42.6-71.3h19.4c4.6,0,8.8,2.6,10.9,6.8l12.2,23.8l9.8-16.8l34.6-59.5
			c-11-7.6-24.4-12-38.8-12c-37.9,0-68.6,30.7-68.6,68.6s30.7,68.6,68.6,68.6c37.9,0,68.6-30.7,68.6-68.6c0-16-5.5-30.7-14.7-42.4
			L180,366z"/>
	</g>
</g>
</svg>
