<?xml version="1.0" encoding="utf-8"?>
<!-- Generator: Adobe Illustrator 25.0.1, SVG Export Plug-In . SVG Version: 6.00 Build 0)  -->
<svg version="1.0" id="katman_1" xmlns="http://www.w3.org/2000/svg" xmlns:xlink="http://www.w3.org/1999/xlink" x="0px" y="0px"
	 viewBox="0 0 560 400" style="enable-background:new 0 0 560 400;" xml:space="preserve">
<style type="text/css">
	.st0{fill:#00582A;}
	.st1{fill:#F15D2A;}
	.st2{fill:#B2D235;}
</style>
<g>
	<path class="st0" d="M154.9,112.3l1.5-0.6l2,3.2l-3.9,3v3.2c4.8-3.2,8.1-5.1,10.2-5.8c2.4-0.9,4.7-1.3,6.7-1.3
		c4.2,0,7.6,1.4,10.4,4.1c2.6,2.7,3.9,6.4,3.9,11c0,3.3-0.9,6.3-2.6,8.9c-1.7,2.9-4.2,5-7.4,6.5c-3.6,1.7-8.3,2.9-14,3.5
		c-0.1-1.3-0.8-3-1.9-5.2c7.2,0,12.4-1.3,15.6-3.9c3.2-2.3,4.7-5.5,4.7-9.7c0-3.3-0.9-5.9-2.6-7.8c-1.7-1.7-3.9-2.6-6.5-2.6
		c-4.3,0-9.9,2.5-16.6,7.6c0,7.1,0.1,14.8,0.4,23.1l-5.4,0.2v-18.6l-4.8,5.4c-0.3,0.6-0.7,1.2-1.2,1.7c-0.5,0.6-1.2,1.4-2.1,2.6
		l-4.1-4.1c2-2,6.1-5.9,12.1-11.7c0-2.2,0.1-4.6,0.2-7.4c-1.7,0.3-2.9,0.5-3.6,0.6c-0.6,0.1-1.6,0.2-2.8,0.3
		c-1.2,0.1-2.2,0.2-2.9,0.2v-5.2c2.6,0.1,5.7,0.1,9.3-0.2c0.2-1.3,0.3-3,0.3-5.2c0.1-2.2,0.1-4.1,0.1-5.8l5.8,0.4l-0.7,5
		C154.9,108.5,154.8,110,154.9,112.3"/>
	<path class="st0" d="M243.3,113c3-0.7,7.5-2.1,13.4-4.1l1.5,4.7c-5.3,1.9-9.6,3.1-13,3.7c2.6,4.8,6.3,9.4,11.2,13.8l-2.8,3.9
		c-3.2-1.3-5.5-2.2-7.1-2.6c-2.3-0.3-4.4-0.4-6.3-0.4c-5.3,0-9.2,0.8-11.7,2.4c-1.6,1.2-2.4,2.5-2.4,4.1c0,1.4,0.8,2.7,2.4,3.9
		c2.9,1.7,7.1,2.6,12.7,2.6c3.4,0,7.9-0.4,13.4-1.1l0.2,5c-4.5,0.6-8.4,0.9-11.9,0.9c-8.1,0-14-1.2-17.7-3.7
		c-2.7-1.9-4.1-4.4-4.1-7.6c0-2.9,1.4-5.4,4.3-7.6c2.9-2,7.6-3,14.1-3c0.6,0,3.2,0.1,7.8,0.4c-2.4-2.7-4.8-6.1-7.1-10.1
		c-5.5,0.7-9.7,1.1-12.7,1.1c-0.9,0-3.3-0.1-7.3-0.4l0.2-5c3.7,0.4,6.6,0.6,8.6,0.6c3,0,6-0.2,9.1-0.6c-1.7-3.3-2.9-6.4-3.7-9.3
		l5.4-1.3C241,107.3,242.2,110.5,243.3,113"/>
	<path class="st0" d="M329.8,121.6c0,7.8-0.6,13.4-1.7,16.8c-1.3,3.6-3.5,6.3-6.5,8.2c-3.3,2-6.8,3-10.6,3c-4.6,0-8.2-1.3-10.8-3.9
		c-2.6-2.4-3.9-5.8-3.9-9.9c0-3.6,0.9-7.2,2.8-10.8c2-4.2,4.9-8.3,8.6-12.5c-4.5,1.3-8.8,2.2-13,2.6l-0.4-5.2
		c7.1-0.3,13.2-1.4,18.4-3.5l3.5,4.3c-2.2,1.9-4.5,4-6.9,6.5c-2.6,3.6-4.5,6.8-5.6,9.5c-1.5,3-2.2,5.8-2.2,8.4
		c0,2.9,0.9,5.1,2.6,6.7c1.7,1.7,4.2,2.6,7.4,2.6c2.9,0,5.3-0.7,7.3-2.2c2.2-1.6,3.9-4,5.2-7.1c1.2-3.4,1.7-8.3,1.7-14.5
		c0-4-0.4-8.1-1.3-12.1l5.4-1.3c1.6,4.9,2.9,8.8,3.9,11.7c1.7,3.9,3.2,6.8,4.3,8.6c1.3,2.2,2.9,4.4,5,6.7l-4.6,3.9
		c-1.9-2.6-3.4-5.1-4.5-7.6C332.4,127.9,331.1,124.9,329.8,121.6 M331.3,106l2.6-1.9c1.3,1,3.1,3,5.4,5.8l-3,2.4
		C336,112,334.3,109.9,331.3,106 M344.2,105.8l-3,2.6l-5-6.3l2.8-2.2C341.1,101.9,342.8,103.8,344.2,105.8"/>
	<path class="st1" d="M149.1,294c0,1.5-0.6,2.9-1.7,4.1c-1.1,1.2-2.6,1.9-4.4,1.9c-1.6,0-3-0.6-4.3-1.7c-1.2-1.1-1.9-2.6-1.9-4.4
		v-1.6h3.1v1.6c0,0.7,0.3,1.4,0.9,1.9c0.6,0.6,1.3,0.9,2.2,0.9c0.8,0,1.5-0.3,2.2-0.9c0.6-0.6,1-1.2,1-2v-5l-9.2-9v-5.4
		c0-1.7,0.6-3.1,1.7-4.3c1.1-1.2,2.6-1.8,4.4-1.8c1.7,0,3.1,0.6,4.3,1.8c1.2,1.2,1.8,2.6,1.8,4.3v1.5h-3v-1.5c0-0.6-0.3-1.2-0.9-1.8
		c-0.7-0.7-1.4-1.1-2.2-1.1c-0.8,0-1.6,0.3-2.2,0.8s-0.9,1.2-0.9,2l0,3.8l9.2,9.1L149.1,294z"/>
	<path class="st1" d="M173.1,294.1c0,1.7-0.6,3.1-1.8,4.2c-1.2,1.1-2.6,1.7-4.3,1.7c-1.6,0-3-0.6-4.3-1.7c-1.3-1.1-1.9-2.6-1.9-4.3
		v-24.9h3v24.8c0,0.7,0.3,1.4,1,2c0.6,0.6,1.4,0.9,2.2,0.9c0.7,0,1.4-0.3,2.1-0.9c0.7-0.6,1-1.3,1-1.9v-24.8h3.1L173.1,294.1z"/>
	<path class="st1" d="M197.4,294c0,1.5-0.6,2.9-1.7,4.1c-1.1,1.2-2.6,1.9-4.4,1.9c-1.6,0-3-0.6-4.3-1.7c-1.2-1.1-1.9-2.6-1.9-4.4
		v-1.6h3.1v1.6c0,0.7,0.3,1.4,0.9,1.9c0.6,0.6,1.3,0.9,2.2,0.9c0.8,0,1.5-0.3,2.2-0.9c0.6-0.6,1-1.2,1-2v-5l-9.2-9v-5.4
		c0-1.7,0.6-3.1,1.7-4.3c1.1-1.2,2.6-1.8,4.4-1.8c1.7,0,3.1,0.6,4.3,1.8c1.2,1.2,1.8,2.6,1.8,4.3v1.5h-3v-1.5c0-0.6-0.3-1.2-0.9-1.8
		c-0.7-0.7-1.5-1.1-2.2-1.1c-0.8,0-1.6,0.3-2.2,0.8c-0.6,0.6-0.9,1.2-0.9,2l0,3.8l9.2,9.1L197.4,294z"/>
	<path class="st1" d="M222.2,299.4H219v-27.1c-1.1,0-2.3,0.6-3.7,1.8c-1.6,1.4-2.3,3-2.3,4.7v20.6h-3V257h3v14.8
		c1.2-0.9,2.4-1.6,3.5-2.1c1.4-0.6,2.8-0.9,4.1-0.9h1.6L222.2,299.4z"/>
	<path class="st1" d="M239.9,299.4h-3v-27.1h-1.4v-3.2h4.5V299.4z M239.9,263.4h-3v-3.2h3V263.4z"/>
	<path class="st0" d="M285.5,289.6h-2.8v4.8c0,1.5-0.5,2.9-1.6,3.9c-1.1,1.1-2.5,1.6-4.1,1.6c-1.5,0-2.8-0.4-3.8-1.3
		c-1.2-1-1.8-2.5-1.8-4.3v-13c0-0.9,0.1-1.7,0.3-2.3c0.2-0.6,0.7-1.2,1.5-1.9c-0.6-0.7-1-1.3-1.3-2c-0.3-0.6-0.5-1.4-0.5-2.2v-7
		c0-1.6,0.5-2.9,1.5-4c1-1.1,2.4-1.6,4.2-1.6h4.3v2.8h-4.3c-0.7,0-1.3,0.3-1.9,0.8c-0.6,0.6-0.9,1.2-0.9,1.9v7
		c0,0.7,0.3,1.3,0.9,1.9c0.6,0.6,1.2,0.9,2,0.9h2.8v2.9H277c-0.7,0-1.3,0.3-1.9,0.9c-0.6,0.6-0.9,1.2-0.9,2v13
		c0,0.7,0.3,1.3,0.9,1.8c0.6,0.5,1.2,0.8,2,0.8c0.7,0,1.3-0.2,1.9-0.7c0.5-0.5,0.8-1.1,0.8-1.9v-7.6h5.8L285.5,289.6z"/>
	<path class="st1" d="M327,293.4c0,1.7-0.6,3.1-1.7,4.3c-1.1,1.1-2.6,1.7-4.3,1.7h-6.2V257h3.1v12.1h3.1c1.6,0,3,0.6,4.3,1.7
		c1.2,1.1,1.8,2.6,1.8,4.4L327,293.4z M323.8,293.4v-18.2c0-0.8-0.3-1.5-0.8-2c-0.6-0.6-1.3-0.8-2-0.8h-3.1v24h2.9
		c0.9,0,1.7-0.3,2.3-0.8C323.5,294.9,323.8,294.2,323.8,293.4"/>
	<path class="st1" d="M351.8,293.9c0,1.5-0.6,2.9-1.7,4.2c-1.1,1.3-2.6,1.9-4.3,1.9c-1.6,0-3-0.6-4.3-1.8c-1.3-1.2-1.9-2.6-1.9-4.2
		v-19.4c0-1.6,0.6-3.1,1.7-4.2c1.2-1.2,2.6-1.8,4.5-1.8c1.6,0,3.1,0.6,4.3,1.7c1.2,1.1,1.8,2.6,1.8,4.4v12.8h-9.2v6.6
		c0,0.8,0.3,1.4,1,2c0.7,0.6,1.4,0.8,2.2,0.8c0.7,0,1.4-0.3,2-0.8c0.7-0.6,1-1.3,1-2v-1.6h3.1L351.8,293.9z M348.7,284.2v-9.6
		c0-0.6-0.3-1.2-0.9-1.9c-0.6-0.6-1.3-1-2.1-1c-0.8,0-1.6,0.3-2.2,0.9c-0.6,0.6-1,1.2-1,2v9.6H348.7z"/>
	<path class="st1" d="M376.1,299.4h-3.2v-24.8c0-0.8-0.3-1.4-0.9-2c-0.6-0.6-1.3-0.9-1.9-0.9c-0.7,0-1.4,0.3-2.1,0.9
		c-0.7,0.6-1,1.2-1,2v24.8h-3.2v-25c0-1.7,0.6-3.1,1.7-4.2c1.1-1.1,2.6-1.6,4.5-1.6c1.6,0,3,0.6,4.2,1.7c1.2,1.2,1.8,2.6,1.8,4.3
		V299.4z"/>
	<path class="st1" d="M397.8,272.3h-3.1v27.1h-3.2v-27.1h-3v-3.2h3v-7.6h3.2v7.6h3.1V272.3z"/>
	<path class="st1" d="M421.7,294c0,1.5-0.6,2.9-1.7,4.1c-1.1,1.3-2.6,1.9-4.4,1.9c-1.6,0-3.1-0.6-4.3-1.7c-1.2-1.2-1.8-2.6-1.8-4.3
		v-19.4c0-1.5,0.6-2.9,1.7-4.2c1.2-1.2,2.6-1.9,4.5-1.9c1.6,0,3.1,0.6,4.3,1.7c1.2,1.1,1.8,2.6,1.8,4.3L421.7,294z M418.6,293.9
		v-19.4c0-0.6-0.3-1.3-1-1.9c-0.6-0.6-1.3-1-2.1-1c-0.8,0-1.5,0.3-2.2,0.8c-0.6,0.6-1,1.2-1,2v19.4c0,0.7,0.3,1.4,1,2
		c0.6,0.6,1.4,0.9,2.2,0.9c0.7,0,1.4-0.3,2.1-0.8C418.3,295.4,418.6,294.7,418.6,293.9"/>
	<g>
		<path class="st2" d="M138.7,217.2v-60.5h10.5v67.3c0,7.7,1.7,11.6,5.1,11.6c1.7,0,3.3-1.1,4.6-3.4c1.3-2.3,1.9-4.7,1.9-7.3v-68.2
			h10.5v67.5c0,2.7,0.6,5.3,1.9,7.7c1.3,2.4,2.7,3.6,4.4,3.6c3.6,0,5.4-3.6,5.4-10.7v-68.2h10.7v60.6c0,9.6-0.8,16.2-2.3,19.8
			c-2,4.9-6.1,7.3-12.2,7.3c-5,0-9.2-2.3-12.4-7c-3.7,4.7-7.9,7-12.7,7c-6.7,0-11-2.2-13-6.5C139.6,234.6,138.7,227.7,138.7,217.2"
			/>
		<path class="st2" d="M235.9,242.9l-1.9-4.4c-3,3.4-6.3,5.1-9.9,5.1c-8.9,0-13.3-7.4-13.3-22.2c0-9.2,1.7-16.3,5.1-21.2
			c3.2-4.7,9.1-9.3,17.7-13.7v-12c0-6.7-1.5-10.1-4.6-10.1c-3.2,0-4.8,3.6-4.8,10.9v8.5h-10.5v-7.2c0-14.3,5.1-21.4,15.2-21.4
			c5.7,0,9.7,2.4,12,7.1c2.1,4.1,3.1,10.6,3.1,19.6v44.6c0,4.6,0.8,10.1,2.5,16.4L235.9,242.9z M228.1,235.3c3.6,0,5.4-3.5,5.4-10.4
			v-28.1c-5,3.4-8.2,6.9-9.7,10.3c-1.5,3.4-2.2,8.8-2.2,16.2C221.6,231.3,223.8,235.3,228.1,235.3"/>
		<path class="st2" d="M292.8,176.5v5.2h-10.5v-7.3c0-6.2-2-9.3-5.9-9.3c-4,0-6,2.9-6,8.6c0,4.8,2,9.6,5.9,14.3l9.6,11.5
			c5.2,6.2,7.8,13.5,7.8,21.8c0,7.3-1.5,13-4.6,17c-3.1,4-7.3,6-12.6,6c-4.7,0-8.6-1.8-11.6-5.5c-3-3.6-4.5-8.4-4.5-14.3v-7.7H271
			v7.9c0,6.8,1.9,10.3,5.6,10.3c4.4,0,6.6-3.6,6.6-10.9c0-7.1-1.9-13-5.7-17.7l-9.8-12.1c-4.9-6-7.4-12.6-7.4-19.8
			c0-5.6,1.6-10.1,4.8-13.6c3.2-3.5,7.2-5.3,11.9-5.3C287.5,155.6,292.8,162.5,292.8,176.5"/>
		<path class="st2" d="M335.9,242.9l-1.9-4.4c-3,3.4-6.3,5.1-9.9,5.1c-8.9,0-13.3-7.4-13.3-22.2c0-9.2,1.7-16.3,5.1-21.2
			c3.2-4.7,9.1-9.3,17.7-13.7v-12c0-6.7-1.5-10.1-4.6-10.1c-3.2,0-4.8,3.6-4.8,10.9v8.5h-10.5v-7.2c0-14.3,5.1-21.4,15.2-21.4
			c5.7,0,9.7,2.4,12.1,7.1c2.1,4.1,3.1,10.6,3.1,19.6v44.6c0,4.6,0.8,10.1,2.5,16.4L335.9,242.9z M328.2,235.3
			c3.6,0,5.4-3.5,5.4-10.4v-28.1c-5,3.4-8.2,6.9-9.7,10.3c-1.5,3.4-2.2,8.8-2.2,16.2C321.7,231.3,323.8,235.3,328.2,235.3"/>
		<path class="st2" d="M371.8,237.2v5.7h-10.5V122.4h10.5V161c3.3-3.3,6.5-4.9,9.6-4.9c9,0,13.5,6.4,13.5,19.2v48.7
			c0,13.4-3.7,20.1-11,20.1C380.5,244,376.5,241.8,371.8,237.2 M384.3,175.1c0-6-1.6-9-4.8-9c-2.5,0-5,2.3-7.7,7v54.1
			c3,4.3,5.6,6.5,7.9,6.5c3.1,0,4.7-2.7,4.7-8.1V175.1z"/>
		<path class="st2" d="M412.8,122.4h10.4v11.1h-10.4V122.4z M423.2,242.9h-10.4v-86.1h10.4V242.9z"/>
	</g>
</g>
</svg>
